<svg xmlns="http://www.w3.org/2000/svg" width="1024" height="1024" viewBox="0 0 1024 1024">
<g>
<path d="M 497.00 946.41 C427.01,942.71 362.86,924.35 306.00,891.73 C239.70,853.69 183.26,797.36 146.54,732.60 C117.26,680.94 98.89,624.81 91.86,565.54 C90.16,551.15 89.73,541.84 89.73,519.50 C89.75,474.40 93.45,446.90 105.13,405.31 C114.42,372.21 127.47,341.28 145.77,309.00 C173.12,260.77 212.58,216.72 261.50,179.84 C300.02,150.80 352.11,125.58 399.50,113.03 C439.56,102.42 473.07,98.00 513.41,98.00 C621.84,98.02 718.81,135.65 800.16,209.28 C819.05,226.38 845.38,256.73 861.40,279.87 C901.23,337.39 925.49,403.31 934.13,477.50 C935.86,492.30 935.88,544.02 934.18,559.00 C927.76,615.25 914.45,662.57 892.26,707.99 C871.09,751.33 846.00,786.20 810.58,821.53 C731.02,900.88 631.34,943.85 521.00,946.36 C511.38,946.57 500.58,946.60 497.00,946.41 ZM 563.00 915.54 C635.90,905.46 698.19,879.09 755.50,834.06 C871.10,743.23 928.12,592.71 901.50,448.61 C894.66,411.57 884.00,379.92 866.62,345.00 C852.44,316.53 831.47,284.65 813.73,264.60 L 809.39 259.71 L 803.81 272.10 C800.74,278.92 788.69,305.65 777.03,331.50 C765.37,357.35 747.96,396.27 738.34,418.00 C728.71,439.73 718.85,461.92 716.42,467.33 C713.99,472.74 712.00,477.35 712.00,477.58 C712.00,477.81 737.22,478.00 768.05,478.00 L 824.09 478.00 L 826.55 480.45 C829.43,483.34 829.66,486.47 827.24,490.18 C826.29,491.66 820.16,499.31 813.64,507.18 C807.12,515.06 787.62,538.83 770.31,560.00 C724.14,616.47 719.72,621.83 656.97,697.43 C614.42,748.69 552.92,822.28 552.03,823.00 C551.69,823.28 546.53,829.47 540.57,836.77 C534.60,844.06 528.75,850.27 527.57,850.57 C524.60,851.32 520.35,849.52 518.97,846.94 C517.26,843.75 518.43,839.32 525.65,821.65 C529.21,812.92 531.98,805.65 531.81,805.47 C531.63,805.30 526.32,806.89 520.00,809.00 C482.72,821.45 437.93,821.67 393.97,809.61 C361.08,800.58 336.13,786.20 309.66,761.02 C291.84,744.06 278.98,726.81 269.00,706.50 C244.82,657.29 242.61,603.56 262.69,553.00 C268.90,537.36 272.31,530.78 286.24,507.52 C301.44,482.16 307.29,470.45 312.06,455.93 C317.51,439.34 319.33,428.77 319.37,413.50 C319.40,399.32 318.43,393.28 313.88,379.32 C311.02,370.55 310.95,369.99 312.49,367.02 C314.37,363.38 317.88,361.50 321.23,362.34 C324.70,363.21 338.69,375.73 345.64,384.19 C365.25,408.03 373.86,428.69 375.66,456.27 C376.32,466.24 376.35,466.35 377.64,462.62 C381.95,450.19 382.41,444.74 382.51,405.00 C382.61,367.58 382.69,366.15 385.22,354.00 C395.09,306.69 423.79,266.04 473.18,229.42 C484.90,220.73 502.48,210.25 506.79,209.39 C510.84,208.58 515.00,212.16 515.00,216.45 C515.00,218.27 512.59,226.45 509.65,234.63 C486.83,298.11 486.42,344.41 508.26,391.16 C510.72,396.41 513.19,401.00 513.75,401.35 C514.37,401.73 515.27,399.33 516.03,395.24 C519.34,377.35 530.54,355.56 544.40,340.03 C555.53,327.55 562.81,325.10 566.73,332.50 C567.53,334.00 567.20,337.36 565.41,346.00 C561.67,363.98 562.53,381.00 568.04,398.00 C571.14,407.59 580.29,426.21 586.43,435.43 C591.98,443.78 601.64,456.30 602.87,456.76 C603.79,457.10 619.21,440.06 665.98,387.00 C707.24,340.20 710.30,336.73 729.11,315.54 C735.92,307.86 753.10,288.28 767.28,272.04 L 793.06 242.50 L 784.78 234.63 C717.42,170.64 634.63,134.24 542.00,127.88 C521.60,126.48 483.27,127.27 465.00,129.48 C436.26,132.95 401.44,141.10 377.86,149.88 C342.57,163.01 322.07,173.33 293.00,192.57 C238.24,228.82 191.39,281.27 160.83,340.54 C133.26,394.01 119.10,449.00 117.33,509.50 C114.14,618.44 157.45,725.12 236.90,804.00 C269.52,836.38 299.40,857.86 338.50,877.02 C386.88,900.72 430.55,912.36 490.00,917.40 C501.23,918.35 552.05,917.06 563.00,915.54 ZM 514.00 797.60 C514.00,798.27 522.97,795.11 531.33,791.51 C536.18,789.41 540.75,786.75 541.48,785.60 C542.21,784.44 544.40,779.67 546.34,775.00 C548.29,770.33 551.76,762.00 554.05,756.50 C561.97,737.50 587.23,678.41 598.72,652.00 C620.67,601.56 630.99,577.50 630.99,576.75 C631.00,576.34 604.79,575.99 572.75,575.99 C527.96,575.97 513.92,575.68 512.00,574.71 C510.11,573.76 509.42,572.53 509.19,569.66 C508.91,566.36 509.50,565.12 513.69,560.19 C518.53,554.48 562.97,503.93 563.97,503.00 C564.26,502.73 567.42,499.12 570.98,495.00 C574.54,490.88 581.18,483.40 585.73,478.38 C590.28,473.37 594.00,468.93 594.00,468.52 C594.00,468.11 591.81,465.24 589.13,462.14 C580.70,452.39 571.32,438.31 565.06,426.03 C553.99,404.32 550.22,390.83 549.42,370.07 C549.18,363.79 548.81,358.48 548.61,358.28 C547.74,357.40 540.60,368.57 536.50,377.23 C530.06,390.83 527.78,401.41 527.62,418.38 C527.51,431.09 527.33,432.36 525.50,433.53 C524.21,434.35 522.73,434.51 521.34,433.97 C518.19,432.75 500.99,406.32 494.63,392.95 C487.95,378.91 484.76,369.60 482.05,356.26 C476.50,328.98 476.97,304.64 483.65,273.55 C486.38,260.83 491.71,241.95 494.32,235.75 C495.19,233.69 495.68,232.00 495.41,232.00 C495.15,232.00 490.33,235.21 484.72,239.14 C454.92,259.97 425.91,291.53 412.84,317.33 C408.68,325.55 403.23,339.32 401.53,345.91 C396.98,363.53 396.61,368.15 396.53,408.00 C396.46,440.31 396.18,447.63 394.78,453.50 C389.63,475.08 383.06,488.71 372.49,499.71 C364.59,507.93 361.36,509.01 358.38,504.45 C356.94,502.26 356.87,501.16 357.85,496.70 C359.46,489.38 360.96,473.94 360.98,464.50 C361.01,440.48 352.17,413.55 339.14,398.03 C337.05,395.54 334.53,392.25 333.54,390.72 C332.54,389.19 331.59,388.08 331.41,388.26 C331.23,388.43 331.79,392.84 332.65,398.04 C336.70,422.66 330.15,456.69 316.01,484.50 C312.94,490.55 306.07,502.55 300.74,511.17 C274.41,553.78 264.87,579.89 263.31,613.61 C260.34,677.87 291.35,738.42 345.31,773.70 C359.72,783.12 369.31,787.69 387.70,793.90 C390.89,794.98 394.39,796.21 395.48,796.63 C396.57,797.05 392.78,792.91 387.07,787.44 C357.94,759.57 343.84,719.40 347.94,675.98 C349.65,657.85 353.26,643.46 359.62,629.50 C363.08,621.89 364.85,620.00 368.51,620.00 C373.01,620.00 375.00,622.92 375.00,629.53 C375.00,640.80 382.01,659.78 390.45,671.34 C396.49,679.62 404.68,688.65 405.46,687.87 C405.80,687.53 405.62,684.38 405.05,680.87 C403.41,670.77 403.80,653.38 405.94,640.85 C411.29,609.63 428.53,577.83 453.91,552.35 C463.37,542.86 473.98,534.25 477.93,532.88 C480.74,531.90 481.41,532.04 483.56,534.06 C486.76,537.06 486.64,540.00 483.01,548.66 C473.83,570.49 473.20,594.64 481.17,618.50 C482.27,621.80 487.17,632.86 492.04,643.08 C496.92,653.29 501.48,663.76 502.16,666.33 C502.85,668.90 503.74,671.00 504.14,671.00 C505.41,671.00 508.88,665.45 512.99,656.84 C517.37,647.68 520.96,632.90 520.98,623.90 C521.01,614.36 523.83,610.00 529.97,610.00 C532.99,610.00 537.63,616.56 544.50,630.50 C563.87,669.83 566.19,711.93 550.99,748.38 C545.88,760.63 535.11,776.12 523.87,787.40 C518.44,792.84 514.00,797.43 514.00,797.60 ZM 553.16 791.25 C549.32,799.91 546.48,806.97 546.84,806.94 C547.20,806.91 549.30,804.68 551.50,802.00 C553.70,799.31 562.25,789.32 570.51,779.80 C578.76,770.29 596.74,749.00 610.47,732.50 C624.19,716.00 644.21,691.95 654.96,679.06 C677.66,651.83 702.57,621.58 739.80,576.00 C754.40,558.12 770.23,538.78 774.97,533.00 C779.72,527.22 788.96,515.97 795.50,508.00 C802.05,500.02 807.76,493.35 808.20,493.17 C812.45,491.39 802.54,491.00 753.50,491.00 C699.33,491.00 697.95,490.95 696.00,489.00 C694.90,487.90 694.00,486.32 694.00,485.49 C694.00,484.65 697.21,476.89 701.12,468.24 C705.04,459.58 712.87,441.92 718.53,429.00 C724.18,416.08 735.20,391.33 743.01,374.00 C758.25,340.21 772.18,308.73 781.51,287.00 C784.70,279.58 787.75,272.93 788.30,272.23 C788.84,271.53 789.07,270.74 788.81,270.48 C788.17,269.84 776.14,283.14 739.50,325.00 C709.98,358.72 680.99,391.47 627.52,451.50 C614.29,466.35 592.25,491.33 578.53,507.00 C564.82,522.67 548.26,541.46 541.73,548.75 C535.20,556.04 530.22,562.05 530.68,562.12 C531.13,562.18 531.95,562.34 532.50,562.46 C533.05,562.59 558.36,562.76 588.75,562.85 C642.56,563.00 644.05,563.05 646.00,565.00 C647.10,566.10 648.00,568.08 648.00,569.40 C648.00,570.72 643.23,582.76 637.40,596.15 C631.56,609.54 623.29,628.60 619.02,638.50 C614.74,648.40 604.62,671.80 596.52,690.50 C588.42,709.20 576.93,735.97 570.97,750.00 C565.02,764.03 557.00,782.59 553.16,791.25 ZM 443.00 803.36 C444.38,803.62 451.35,803.72 458.50,803.57 C469.96,803.34 472.62,802.94 481.00,800.18 C495.26,795.48 504.78,789.44 516.59,777.61 C531.32,762.85 539.21,748.94 545.28,727.03 C547.07,720.57 547.38,716.58 547.43,699.00 C547.49,679.79 547.32,677.82 544.73,667.59 C541.65,655.46 534.07,635.47 533.01,636.71 C532.63,637.14 531.84,640.25 531.25,643.61 C528.33,660.17 513.85,683.47 503.56,688.15 C501.82,688.95 500.53,688.87 498.48,687.86 C496.23,686.74 495.08,684.62 492.02,675.87 C489.97,670.02 485.27,658.84 481.58,651.02 C467.62,621.48 464.07,609.71 463.28,590.34 C462.81,578.74 463.85,565.05 465.64,559.15 C466.80,555.35 450.24,574.42 442.89,585.36 C430.88,603.22 425.47,614.71 420.40,633.09 C417.70,642.89 417.53,644.64 417.52,663.00 C417.50,681.52 417.65,683.02 420.42,692.91 C423.06,702.35 423.20,703.56 421.88,705.91 C419.42,710.32 415.55,709.84 406.66,704.04 C397.65,698.16 387.42,688.23 380.88,679.00 C375.26,671.08 367.00,655.62 367.00,653.02 C367.00,648.69 365.17,650.44 364.13,655.77 C358.74,683.32 358.74,706.72 364.12,726.94 C368.73,744.22 382.02,766.32 395.07,778.40 C409.60,791.85 425.21,799.98 443.00,803.36 ZM 289.40 610.25 C288.66,612.67 287.28,612.44 286.41,609.75 C285.13,605.78 285.72,590.75 287.47,582.50 C291.87,561.83 300.25,542.26 317.20,513.00 C326.87,496.33 333.14,482.51 337.05,469.25 C339.91,459.59 342.00,459.40 342.00,468.81 C342.00,482.73 336.95,495.95 320.34,525.50 C305.35,552.17 297.51,572.05 292.54,596.00 C291.11,602.88 289.70,609.29 289.40,610.25 ZM 481.76 749.01 C480.52,750.84 478.90,752.54 478.16,752.78 C476.75,753.25 477.04,747.98 479.07,736.07 C481.58,721.40 478.74,706.61 470.27,690.25 C456.99,664.62 454.91,660.17 453.45,654.30 C451.78,647.56 451.83,633.88 453.53,633.32 C454.10,633.13 456.07,637.60 457.90,643.24 C462.29,656.73 466.16,665.00 474.77,679.28 C482.55,692.18 485.40,698.85 487.69,709.50 C490.39,722.07 487.65,740.32 481.76,749.01 ZM 333.00 725.73 C333.00,727.90 328.73,727.11 323.15,723.92 C312.35,717.72 299.24,702.34 291.25,686.48 C283.14,670.40 278.23,643.00 283.45,643.00 C284.20,643.00 286.79,649.24 289.79,658.26 C292.58,666.65 296.22,676.54 297.88,680.23 C302.81,691.22 311.28,702.85 322.47,713.98 C328.26,719.75 333.00,725.03 333.00,725.73 ZM 424.05 359.94 C420.45,370.63 416.97,379.55 416.32,379.75 C414.60,380.29 413.64,372.18 414.49,364.24 C415.91,350.97 422.19,333.68 430.64,319.77 C435.13,312.38 448.17,296.51 451.01,295.00 C456.60,292.00 454.93,296.82 444.36,314.21 C435.85,328.20 431.26,338.53 424.05,359.94 ZM 435.76 784.75 C436.29,786.38 431.84,786.28 426.29,784.55 C411.64,779.97 396.22,763.58 389.03,744.93 C385.86,736.69 385.20,731.61 387.16,730.40 C388.72,729.44 390.72,732.08 396.90,743.22 C404.00,756.05 412.63,765.96 424.94,775.47 C430.67,779.89 435.53,784.06 435.76,784.75 ZM 526.80 496.64 C526.64,499.78 526.00,502.51 525.40,502.71 C524.79,502.91 523.05,499.57 521.52,495.28 C518.26,486.13 509.32,468.60 502.51,458.00 C493.79,444.44 489.81,434.00 493.37,434.00 C496.11,434.00 500.02,438.28 507.96,450.01 C521.42,469.86 527.43,484.74 526.80,496.64 ZM 503.93 769.54 C498.44,772.37 498.60,771.68 506.15,759.45 C516.26,743.09 519.92,733.75 523.56,715.09 C526.55,699.79 527.22,698.75 529.06,706.67 C531.55,717.36 529.02,734.02 523.02,746.51 C518.96,754.96 509.09,766.87 503.93,769.54 ZM 416.39 405.62 C416.03,409.68 415.35,413.00 414.90,413.00 C412.96,413.00 411.59,407.90 411.26,399.50 C410.88,389.88 411.78,386.74 414.30,388.83 C416.36,390.54 417.17,397.04 416.39,405.62 Z" fill="rgba(1,0,0,1)"/>
<path d="M 575.54 543.14 C570.89,545.97 569.00,545.50 569.00,541.48 C569.00,538.38 571.40,535.36 603.11,498.47 C618.72,480.30 635.10,461.21 639.50,456.04 C661.44,430.29 666.64,425.00 670.02,425.00 C676.34,425.00 674.88,427.87 657.50,449.68 C647.32,462.46 639.48,471.83 611.17,505.00 C595.41,523.46 579.01,541.02 575.54,543.14 ZM 629.81 659.25 C627.63,662.33 624.27,662.88 623.29,660.31 C622.20,657.47 629.03,640.11 646.24,602.00 C660.97,569.37 664.10,564.50 668.45,567.38 C669.58,568.12 670.64,569.63 670.80,570.72 C671.26,573.78 635.24,651.57 629.81,659.25 ZM 759.53 509.55 C752.80,512.36 710.73,510.77 711.75,507.74 C711.89,507.33 712.00,506.58 712.00,506.07 C712.00,502.49 755.12,500.88 760.29,504.27 C763.88,506.62 763.71,507.81 759.53,509.55 ZM 690.84 411.25 C683.66,418.86 681.40,419.79 682.38,414.75 C684.14,405.66 694.95,391.00 699.90,391.00 C702.84,391.00 705.00,392.06 705.00,393.52 C705.00,395.14 699.21,402.40 690.84,411.25 ZM 607.23 705.25 C602.04,711.14 602.57,701.88 608.23,687.69 C610.90,681.00 611.93,679.44 613.87,679.17 C617.63,678.63 618.31,680.20 616.69,685.69 C615.02,691.29 609.54,702.63 607.23,705.25 Z" fill="rgba(143,143,142,1)"/>
<path d="M 369.47 766.49 C374.53,774.05 380.40,781.07 387.07,787.44 C392.78,792.91 396.57,797.05 395.48,796.63 C394.39,796.21 390.89,794.98 387.70,793.90 C369.31,787.69 359.72,783.12 345.31,773.70 C291.35,738.42 260.34,677.87 263.31,613.61 C264.87,579.89 274.41,553.78 300.74,511.17 C306.07,502.55 312.94,490.55 316.01,484.50 C330.15,456.69 336.70,422.66 332.65,398.04 C331.79,392.84 331.23,388.43 331.41,388.26 C331.59,388.08 332.54,389.19 333.54,390.72 C334.53,392.25 337.05,395.54 339.14,398.03 C352.17,413.55 361.01,440.48 360.98,464.50 C360.96,473.94 359.46,489.38 357.85,496.70 C356.87,501.16 356.94,502.26 358.38,504.45 C361.36,509.01 364.59,507.93 372.49,499.71 C383.06,488.71 389.63,475.08 394.78,453.50 C396.18,447.63 396.46,440.31 396.53,408.00 C396.61,368.15 396.98,363.53 401.53,345.91 C403.23,339.32 408.68,325.55 412.84,317.33 C425.91,291.53 454.92,259.97 484.72,239.14 C490.33,235.21 495.15,232.00 495.41,232.00 C495.68,232.00 495.19,233.69 494.32,235.75 C491.71,241.95 486.38,260.83 483.65,273.55 C476.97,304.64 476.50,328.98 482.05,356.26 C484.76,369.60 487.95,378.91 494.63,392.95 C500.99,406.32 518.19,432.75 521.34,433.97 C522.73,434.51 524.21,434.35 525.50,433.53 C527.33,432.36 527.51,431.09 527.62,418.38 C527.78,401.41 530.06,390.83 536.50,377.23 C540.60,368.57 547.74,357.40 548.61,358.28 C548.81,358.48 549.18,363.79 549.42,370.07 C550.22,390.83 553.99,404.32 565.06,426.03 C571.32,438.31 580.70,452.39 589.13,462.14 C591.81,465.24 594.00,468.11 594.00,468.52 C594.00,468.93 590.28,473.37 585.73,478.38 C581.18,483.40 574.54,490.88 570.98,495.00 C567.42,499.12 564.26,502.73 563.97,503.00 C563.75,503.20 561.57,505.65 558.22,509.44 C561.92,505.21 564.46,502.30 565.06,501.58 C566.40,499.97 568.29,497.83 569.25,496.83 C570.21,495.82 570.58,495.00 570.06,495.00 C569.54,495.00 568.84,495.46 568.49,496.02 C567.27,497.99 566.14,495.90 564.53,488.74 C561.26,474.10 558.04,465.55 552.64,457.13 C549.68,452.53 547.03,449.15 546.74,449.63 C546.00,450.85 544.23,466.06 542.97,482.00 C541.71,497.95 539.11,508.94 534.39,518.36 C529.95,527.21 524.98,534.41 524.05,533.34 C523.65,532.88 521.84,528.22 520.02,523.00 C510.71,496.19 503.58,480.65 495.05,468.50 C478.56,445.01 471.87,433.69 465.06,417.75 C456.46,397.63 450.28,368.75 451.25,353.25 C451.70,345.92 451.26,344.78 449.00,347.50 C448.32,348.33 448.14,349.00 448.60,349.00 C449.06,349.00 448.49,349.67 447.32,350.49 C442.01,354.21 432.37,373.68 427.52,390.50 C421.54,411.20 420.71,426.07 421.80,493.50 C422.03,508.33 421.74,513.17 420.11,521.00 C419.03,526.22 417.66,531.78 417.07,533.33 C416.47,534.89 416.24,536.58 416.55,537.08 C416.86,537.59 416.73,538.00 416.26,538.00 C415.78,538.00 414.56,540.36 413.54,543.25 C411.12,550.11 405.06,562.26 398.41,573.59 C395.47,578.59 392.51,583.99 391.81,585.59 C390.70,588.16 390.48,586.76 389.93,573.50 C389.33,559.14 388.29,551.61 385.85,544.00 C382.93,534.88 380.75,530.00 379.58,530.00 C378.85,530.00 377.53,532.83 376.52,536.57 C374.61,543.64 368.98,555.95 364.40,563.09 C362.84,565.52 361.67,567.84 361.79,568.25 C361.90,568.66 361.52,569.00 360.94,569.00 C360.36,569.00 360.16,569.45 360.50,570.00 C360.84,570.55 360.68,571.00 360.15,571.00 C358.99,571.00 350.67,583.94 350.67,585.74 C350.67,586.43 350.35,587.00 349.97,587.00 C348.81,587.00 342.21,602.29 339.98,610.13 C337.48,618.92 336.48,633.76 337.72,643.64 C338.51,649.98 338.44,650.67 337.05,649.80 C333.53,647.60 322.83,626.93 321.47,619.70 C320.13,612.57 318.94,614.11 315.85,627.00 C313.92,635.03 314.13,660.36 316.22,671.50 C317.87,680.24 322.61,695.79 328.84,712.82 C331.11,719.04 331.47,720.81 330.25,719.82 C328.86,718.70 328.74,718.72 329.46,720.00 C329.92,720.83 330.87,722.17 331.56,723.00 C332.25,723.83 335.34,729.52 338.43,735.66 C347.91,754.49 354.73,762.56 369.58,772.52 C374.48,775.80 375.82,776.38 374.74,774.73 C372.84,771.82 371.09,769.09 369.47,766.49 ZM 514.91 575.23 C521.05,575.79 537.23,575.98 572.75,575.99 C604.79,575.99 631.00,576.34 630.99,576.75 C630.99,577.45 621.97,598.52 602.86,642.48 C604.08,639.52 604.96,636.89 604.92,636.16 C604.87,635.11 604.66,634.96 604.34,635.76 C603.04,638.98 601.99,635.05 601.93,626.69 C601.89,621.64 601.52,616.64 601.11,615.59 C600.42,613.84 600.19,613.92 598.34,616.59 C597.23,618.19 593.99,623.67 591.14,628.76 C584.97,639.81 574.35,655.00 572.80,655.00 C571.65,655.00 571.98,643.70 574.00,613.00 C574.53,605.03 574.97,593.44 574.98,587.25 L 575.00 576.00 L 544.75 575.99 C528.35,575.98 519.62,575.94 514.91,575.23 ZM 289.40 610.25 C289.70,609.29 291.11,602.88 292.54,596.00 C297.51,572.05 305.35,552.17 320.34,525.50 C336.95,495.95 342.00,482.73 342.00,468.81 C342.00,459.40 339.91,459.59 337.05,469.25 C333.14,482.51 326.87,496.33 317.20,513.00 C300.25,542.26 291.87,561.83 287.47,582.50 C285.72,590.75 285.13,605.78 286.41,609.75 C287.28,612.44 288.66,612.67 289.40,610.25 ZM 333.00 725.73 C333.00,725.03 328.26,719.75 322.47,713.98 C311.28,702.85 302.81,691.22 297.88,680.23 C296.22,676.54 292.58,666.65 289.79,658.26 C286.79,649.24 284.20,643.00 283.45,643.00 C278.23,643.00 283.14,670.40 291.25,686.48 C299.24,702.34 312.35,717.72 323.15,723.92 C328.73,727.11 333.00,727.90 333.00,725.73 ZM 424.05 359.94 C431.26,338.53 435.85,328.20 444.36,314.21 C454.93,296.82 456.60,292.00 451.01,295.00 C448.17,296.51 435.13,312.38 430.64,319.77 C422.19,333.68 415.91,350.97 414.49,364.24 C413.64,372.18 414.60,380.29 416.32,379.75 C416.97,379.55 420.45,370.63 424.05,359.94 ZM 526.80 496.64 C527.43,484.74 521.42,469.86 507.96,450.01 C500.02,438.28 496.11,434.00 493.37,434.00 C489.81,434.00 493.79,444.44 502.51,458.00 C509.32,468.60 518.26,486.13 521.52,495.28 C523.05,499.57 524.79,502.91 525.40,502.71 C526.00,502.51 526.64,499.78 526.80,496.64 ZM 514.00 797.60 C514.00,797.43 518.44,792.84 523.87,787.40 C535.11,776.12 545.88,760.63 550.99,748.38 C556.24,735.78 559.40,722.51 560.49,708.91 C559.12,727.93 553.79,745.92 544.50,761.30 C540.36,768.17 540.10,769.26 543.50,765.59 C545.99,762.91 548.00,762.86 548.00,765.47 C548.00,766.22 546.21,771.26 544.01,776.66 C541.36,783.21 540.69,785.66 541.99,784.00 C542.35,783.54 542.70,783.06 542.99,782.62 C542.32,784.05 541.78,785.13 541.48,785.60 C540.75,786.75 536.18,789.41 531.33,791.51 C522.97,795.11 514.00,798.27 514.00,797.60 ZM 416.39 405.62 C417.17,397.04 416.36,390.54 414.30,388.83 C411.78,386.74 410.88,389.88 411.26,399.50 C411.59,407.90 412.96,413.00 414.90,413.00 C415.35,413.00 416.03,409.68 416.39,405.62 ZM 601.76 645.01 C600.77,647.28 599.76,649.61 598.72,652.00 C590.73,670.35 576.10,704.49 565.25,729.99 C578.79,698.12 597.13,655.33 601.76,645.01 ZM 351.54 725.90 C353.53,733.79 356.20,741.39 359.52,748.65 C355.93,741.11 353.51,734.08 351.54,725.90 ZM 350.44 658.32 C349.35,663.85 348.53,669.69 347.94,675.98 C347.65,679.02 347.45,682.04 347.34,685.04 C347.63,676.02 348.67,667.01 350.44,658.32 ZM 547.35 772.59 C546.98,773.47 546.64,774.28 546.34,775.00 C545.59,776.80 544.81,778.61 544.09,780.22 C544.44,779.12 545.62,776.33 547.00,773.34 C547.12,773.09 547.23,772.84 547.35,772.59 ZM 533.26 537.78 C526.39,545.60 520.07,552.82 516.44,556.99 C520.06,552.75 525.39,546.69 533.26,537.78 ZM 509.50 566.16 C509.11,567.25 509.07,568.27 509.19,569.66 C509.35,571.62 509.72,572.82 510.54,573.68 C509.51,572.76 509.34,571.47 509.19,569.66 C509.13,569.04 509.06,568.55 509.06,568.05 C509.05,567.49 509.15,566.92 509.50,566.16 ZM 555.48 753.08 C554.96,754.33 554.48,755.47 554.05,756.50 C553.18,758.58 552.15,761.06 551.09,763.59 C552.04,761.29 553.55,757.67 555.48,753.08 Z" fill="rgba(240,59,37,1)"/>
<path d="M 544.01 776.66 C546.21,771.26 548.00,766.22 548.00,765.47 C548.00,762.86 545.99,762.91 543.50,765.59 C540.10,769.26 540.36,768.17 544.50,761.30 C566.29,725.22 566.29,674.75 544.50,630.50 C537.63,616.56 532.99,610.00 529.97,610.00 C523.83,610.00 521.01,614.36 520.98,623.90 C520.96,632.90 517.37,647.68 512.99,656.84 C508.88,665.45 505.41,671.00 504.14,671.00 C503.74,671.00 502.85,668.90 502.16,666.33 C501.48,663.76 496.92,653.29 492.04,643.08 C487.17,632.86 482.27,621.80 481.17,618.50 C473.20,594.64 473.83,570.49 483.01,548.66 C486.64,540.00 486.76,537.06 483.56,534.06 C481.41,532.04 480.74,531.90 477.93,532.88 C473.98,534.25 463.37,542.86 453.91,552.35 C428.53,577.83 411.29,609.63 405.94,640.85 C403.80,653.38 403.41,670.77 405.05,680.87 C405.62,684.38 405.80,687.53 405.46,687.87 C404.68,688.65 396.49,679.62 390.45,671.34 C382.01,659.78 375.00,640.80 375.00,629.53 C375.00,622.92 373.01,620.00 368.51,620.00 C364.85,620.00 363.08,621.89 359.62,629.50 C347.76,655.55 344.13,689.67 350.06,719.19 C354.12,739.37 359.48,751.43 374.74,774.73 C375.82,776.38 374.48,775.80 369.58,772.52 C354.73,762.56 347.91,754.49 338.43,735.66 C335.34,729.52 332.25,723.83 331.56,723.00 C330.87,722.17 329.92,720.83 329.46,720.00 C328.74,718.72 328.86,718.70 330.25,719.82 C331.47,720.81 331.11,719.04 328.84,712.82 C322.61,695.79 317.87,680.24 316.22,671.50 C314.13,660.36 313.92,635.03 315.85,627.00 C318.94,614.11 320.13,612.57 321.47,619.70 C322.83,626.93 333.53,647.60 337.05,649.80 C338.44,650.67 338.51,649.98 337.72,643.64 C336.48,633.76 337.48,618.92 339.98,610.13 C342.21,602.29 348.81,587.00 349.97,587.00 C350.35,587.00 350.67,586.43 350.67,585.74 C350.67,583.94 358.99,571.00 360.15,571.00 C360.68,571.00 360.84,570.55 360.50,570.00 C360.16,569.45 360.36,569.00 360.94,569.00 C361.52,569.00 361.90,568.66 361.79,568.25 C361.67,567.84 362.84,565.52 364.40,563.09 C368.98,555.95 374.61,543.64 376.52,536.57 C377.53,532.83 378.85,530.00 379.58,530.00 C380.75,530.00 382.93,534.88 385.85,544.00 C388.29,551.61 389.33,559.14 389.93,573.50 C390.48,586.76 390.70,588.16 391.81,585.59 C392.51,583.99 395.47,578.59 398.41,573.59 C405.06,562.26 411.12,550.11 413.54,543.25 C414.56,540.36 415.78,538.00 416.26,538.00 C416.73,538.00 416.86,537.59 416.55,537.08 C416.24,536.58 416.47,534.89 417.07,533.33 C417.66,531.78 419.03,526.22 420.11,521.00 C421.74,513.17 422.03,508.33 421.80,493.50 C420.71,426.07 421.54,411.20 427.52,390.50 C432.37,373.68 442.01,354.21 447.32,350.49 C448.49,349.67 449.06,349.00 448.60,349.00 C448.14,349.00 448.32,348.33 449.00,347.50 C451.26,344.78 451.70,345.92 451.25,353.25 C450.28,368.75 456.46,397.63 465.06,417.75 C471.87,433.69 478.56,445.01 495.05,468.50 C503.58,480.65 510.71,496.19 520.02,523.00 C521.84,528.22 523.65,532.88 524.05,533.34 C524.98,534.41 529.95,527.21 534.39,518.36 C539.11,508.94 541.71,497.95 542.97,482.00 C544.23,466.06 546.00,450.85 546.74,449.63 C547.03,449.15 549.68,452.53 552.64,457.13 C558.04,465.55 561.26,474.10 564.53,488.74 C566.14,495.90 567.27,497.99 568.49,496.02 C568.84,495.46 569.54,495.00 570.06,495.00 C570.58,495.00 570.21,495.82 569.25,496.83 C568.29,497.83 566.40,499.97 565.06,501.58 C563.72,503.19 552.69,515.75 540.56,529.50 C524.55,547.65 516.60,556.61 512.69,561.51 C512.89,561.21 513.00,560.93 513.00,560.68 C513.00,560.00 514.58,557.95 516.52,556.12 C518.45,554.30 520.53,551.84 521.13,550.65 C521.74,549.47 519.82,551.17 516.87,554.44 C508.70,563.47 507.84,564.77 507.29,568.86 C506.85,572.18 507.17,572.97 509.97,575.32 C512.59,577.53 514.14,578.00 518.74,578.00 C525.59,578.00 525.30,577.52 517.61,576.10 C510.09,574.72 509.00,573.74 509.00,568.41 C509.00,565.09 509.47,563.82 511.00,563.00 C511.50,562.73 511.96,562.37 512.32,561.99 C509.56,565.50 509.05,566.78 509.06,568.05 C509.06,568.55 509.13,569.04 509.19,569.66 C509.70,575.83 510.48,575.97 544.75,575.99 L 575.00 576.00 L 574.98 587.25 C574.97,593.44 574.53,605.03 574.00,613.00 C571.98,643.70 571.65,655.00 572.80,655.00 C574.35,655.00 584.97,639.81 591.14,628.76 C593.99,623.67 597.23,618.19 598.34,616.59 C600.19,613.92 600.42,613.84 601.11,615.59 C601.52,616.64 601.89,621.64 601.93,626.69 C601.99,635.05 603.04,638.98 604.34,635.76 C604.66,634.96 604.87,635.11 604.92,636.16 C604.96,637.07 603.61,640.89 601.92,644.66 C594.84,660.36 550.00,765.49 550.00,766.38 C550.00,766.65 548.65,769.78 547.00,773.34 C545.35,776.91 543.99,780.20 543.98,780.66 C543.97,781.12 543.07,782.62 541.99,784.00 C540.69,785.66 541.36,783.21 544.01,776.66 Z" fill="rgba(248,116,22,1)"/>
<path d="M 553.16 791.25 C557.00,782.59 565.02,764.03 570.97,750.00 C576.93,735.97 588.42,709.20 596.52,690.50 C604.62,671.80 614.74,648.40 619.02,638.50 C623.29,628.60 631.56,609.54 637.40,596.15 C643.23,582.76 648.00,570.72 648.00,569.40 C648.00,568.08 647.10,566.10 646.00,565.00 C644.05,563.05 642.56,563.00 588.75,562.85 C558.36,562.76 533.05,562.59 532.50,562.46 C531.95,562.34 531.13,562.18 530.68,562.12 C530.22,562.05 535.20,556.04 541.73,548.75 C548.26,541.46 564.82,522.67 578.53,507.00 C592.25,491.33 614.29,466.35 627.52,451.50 C680.99,391.47 709.98,358.72 739.50,325.00 C776.14,283.14 788.17,269.84 788.81,270.48 C789.07,270.74 788.84,271.53 788.30,272.23 C787.75,272.93 784.70,279.58 781.51,287.00 C772.18,308.73 758.25,340.21 743.01,374.00 C735.20,391.33 724.18,416.08 718.53,429.00 C712.87,441.92 705.04,459.58 701.12,468.24 C697.21,476.89 694.00,484.65 694.00,485.49 C694.00,486.32 694.90,487.90 696.00,489.00 C697.95,490.95 699.33,491.00 753.50,491.00 C802.54,491.00 812.45,491.39 808.20,493.17 C807.76,493.35 802.05,500.02 795.50,508.00 C788.96,515.97 779.72,527.22 774.97,533.00 C770.23,538.78 754.40,558.12 739.80,576.00 C702.57,621.58 677.66,651.83 654.96,679.06 C644.21,691.95 624.19,716.00 610.47,732.50 C596.74,749.00 578.76,770.29 570.51,779.80 C562.25,789.32 553.70,799.31 551.50,802.00 C549.30,804.68 547.20,806.91 546.84,806.94 C546.48,806.97 549.32,799.91 553.16,791.25 ZM 607.23 705.25 C609.54,702.63 615.02,691.29 616.69,685.69 C618.31,680.20 617.63,678.63 613.87,679.17 C611.93,679.44 610.90,681.00 608.23,687.69 C602.57,701.88 602.04,711.14 607.23,705.25 ZM 629.81 659.25 C635.24,651.57 671.26,573.78 670.80,570.72 C670.64,569.63 669.58,568.12 668.45,567.38 C664.10,564.50 660.97,569.37 646.24,602.00 C629.03,640.11 622.20,657.47 623.29,660.31 C624.27,662.88 627.63,662.33 629.81,659.25 ZM 575.54 543.14 C579.01,541.02 595.41,523.46 611.17,505.00 C639.48,471.83 647.32,462.46 657.50,449.68 C674.88,427.87 676.34,425.00 670.02,425.00 C666.64,425.00 661.44,430.29 639.50,456.04 C635.10,461.21 618.72,480.30 603.11,498.47 C571.40,535.36 569.00,538.38 569.00,541.48 C569.00,545.50 570.89,545.97 575.54,543.14 ZM 759.53 509.55 C763.71,507.81 763.88,506.62 760.29,504.27 C755.12,500.88 712.00,502.49 712.00,506.07 C712.00,506.58 711.89,507.33 711.75,507.74 C710.73,510.77 752.80,512.36 759.53,509.55 ZM 690.84 411.25 C699.21,402.40 705.00,395.14 705.00,393.52 C705.00,392.06 702.84,391.00 699.90,391.00 C694.95,391.00 684.14,405.66 682.38,414.75 C681.40,419.79 683.66,418.86 690.84,411.25 ZM 443.00 803.36 C425.21,799.98 409.60,791.85 395.07,778.40 C382.02,766.32 368.73,744.22 364.12,726.94 C358.74,706.72 358.74,683.32 364.13,655.77 C365.17,650.44 367.00,648.69 367.00,653.02 C367.00,655.62 375.26,671.08 380.88,679.00 C387.42,688.23 397.65,698.16 406.66,704.04 C415.55,709.84 419.42,710.32 421.88,705.91 C423.20,703.56 423.06,702.35 420.42,692.91 C417.65,683.02 417.50,681.52 417.52,663.00 C417.53,644.64 417.70,642.89 420.40,633.09 C425.47,614.71 430.88,603.22 442.89,585.36 C450.24,574.42 466.80,555.35 465.64,559.15 C463.85,565.05 462.81,578.74 463.28,590.34 C464.07,609.71 467.62,621.48 481.58,651.02 C485.27,658.84 489.97,670.02 492.02,675.87 C495.08,684.62 496.23,686.74 498.48,687.86 C500.53,688.87 501.82,688.95 503.56,688.15 C513.85,683.47 528.33,660.17 531.25,643.61 C531.84,640.25 532.63,637.14 533.01,636.71 C534.07,635.47 541.65,655.46 544.73,667.59 C547.32,677.82 547.49,679.79 547.43,699.00 C547.38,716.58 547.07,720.57 545.28,727.03 C539.21,748.94 531.32,762.85 516.59,777.61 C504.78,789.44 495.26,795.48 481.00,800.18 C472.62,802.94 469.96,803.34 458.50,803.57 C451.35,803.72 444.38,803.62 443.00,803.36 ZM 435.76 784.75 C435.53,784.06 430.67,779.89 424.94,775.47 C412.63,765.96 404.00,756.05 396.90,743.22 C390.72,732.08 388.72,729.44 387.16,730.40 C385.20,731.61 385.86,736.69 389.03,744.93 C396.22,763.58 411.64,779.97 426.29,784.55 C431.84,786.28 436.29,786.38 435.76,784.75 ZM 503.93 769.54 C509.09,766.87 518.96,754.96 523.02,746.51 C529.02,734.02 531.55,717.36 529.06,706.67 C527.22,698.75 526.55,699.79 523.56,715.09 C519.92,733.75 516.26,743.09 506.15,759.45 C498.60,771.68 498.44,772.37 503.93,769.54 ZM 481.76 749.01 C487.65,740.32 490.39,722.07 487.69,709.50 C485.40,698.85 482.55,692.18 474.77,679.28 C466.16,665.00 462.29,656.73 457.90,643.24 C456.07,637.60 454.10,633.13 453.53,633.32 C451.83,633.88 451.78,647.56 453.45,654.30 C454.91,660.17 456.99,664.62 470.27,690.25 C478.74,706.61 481.58,721.40 479.07,736.07 C477.04,747.98 476.75,753.25 478.16,752.78 C478.90,752.54 480.52,750.84 481.76,749.01 ZM 509.97 575.32 C507.17,572.97 506.85,572.18 507.29,568.86 C507.84,564.77 508.70,563.47 516.87,554.44 C519.82,551.17 521.74,549.47 521.13,550.65 C520.53,551.84 518.45,554.30 516.52,556.12 C514.58,557.95 513.00,560.00 513.00,560.68 C513.00,561.37 512.10,562.41 511.00,563.00 C509.47,563.82 509.00,565.09 509.00,568.41 C509.00,573.74 510.09,574.72 517.61,576.10 C525.30,577.52 525.59,578.00 518.74,578.00 C514.14,578.00 512.59,577.53 509.97,575.32 Z" fill="rgba(251,202,17,1)"/>
</g>
</svg>