<svg xmlns="http://www.w3.org/2000/svg" width="1464" height="716" viewBox="0 0 1464 716">
<g>
<path d="M 774.50 623.12 C764.93,624.78 757.34,625.26 737.00,625.49 C708.99,625.80 707.04,625.71 692.50,623.42 C650.05,616.74 608.08,599.10 574.00,573.62 C555.14,559.52 536.95,542.17 523.98,525.94 C493.65,487.96 475.30,445.73 467.31,395.50 C465.07,381.45 464.79,337.24 466.85,323.50 C478.61,244.95 520.42,177.91 583.50,136.43 C610.94,118.39 640.40,105.50 670.00,98.59 C749.14,80.10 829.78,96.93 894.50,145.42 C908.33,155.78 934.60,181.49 943.62,193.50 C972.74,232.24 988.78,269.10 997.14,316.50 C999.70,330.98 1000.74,367.87 999.07,384.57 C994.28,432.54 974.41,483.49 946.67,519.00 C937.56,530.65 922.41,547.35 914.37,554.58 C873.19,591.66 827.88,613.86 774.50,623.12 ZM 709.00 611.31 C718.61,612.33 749.74,611.86 761.25,610.51 C854.52,599.60 936.09,536.03 969.34,448.35 C979.41,421.81 984.80,394.64 985.69,366.00 C986.56,338.20 984.26,318.64 976.95,291.68 C953.70,205.94 887.62,139.37 801.54,114.98 C753.48,101.36 708.82,101.89 657.00,116.69 C636.24,122.62 608.66,136.17 586.50,151.33 C561.95,168.13 536.04,195.18 518.81,222.00 C487.19,271.21 473.45,333.44 481.39,391.53 C482.93,402.82 483.61,406.33 487.10,420.84 C497.51,464.20 521.94,506.32 555.64,539.00 C578.79,561.46 600.70,576.46 629.91,589.87 C652.83,600.39 682.81,608.52 709.00,611.31 Z" fill="rgb(2,2,2)"/>
<path d="M 730.65 533.94 C727.11,538.37 725.15,540.00 723.37,540.00 C718.81,540.00 719.00,536.51 724.35,522.63 C726.68,516.60 726.79,515.83 725.25,516.28 C703.85,522.59 689.87,524.40 674.17,522.92 C647.39,520.39 621.81,507.93 602.75,488.15 C588.57,473.43 579.88,458.65 574.71,440.43 C566.21,410.45 569.29,384.27 584.91,354.00 C605.89,313.32 607.50,308.58 606.75,289.67 C606.46,282.37 605.66,275.87 604.74,273.43 C602.92,268.58 603.92,266.00 607.61,266.00 C609.40,266.00 612.06,267.98 616.81,272.82 C625.14,281.31 625.24,281.44 630.01,290.28 C634.40,298.41 638.33,313.08 637.83,319.41 C637.65,321.66 637.95,323.65 638.50,323.82 C640.80,324.57 642.23,313.83 643.01,290.00 C643.44,276.52 644.09,264.38 644.45,263.00 C644.81,261.62 646.05,256.79 647.20,252.25 C648.34,247.71 649.67,244.00 650.14,244.00 C650.61,244.00 651.00,243.12 651.00,242.05 C651.00,240.98 652.76,236.72 654.90,232.57 C664.98,213.09 680.95,196.12 702.38,182.14 C710.63,176.75 712.98,176.06 714.94,178.43 C715.89,179.57 715.19,182.22 711.53,191.38 C706.12,204.90 702.36,220.54 701.46,233.35 C700.44,247.81 705.59,273.03 712.03,285.06 C713.37,287.56 715.00,287.55 715.00,285.05 C715.00,280.33 720.28,266.98 724.96,259.85 C730.38,251.59 738.49,244.00 741.89,244.00 C742.06,244.00 742.22,243.99 742.37,243.99 C742.74,243.97 743.04,243.95 743.27,244.07 C744.31,244.55 744.24,247.44 744.40,263.00 C744.55,278.00 744.80,280.13 747.14,286.50 C750.41,295.39 754.86,304.20 760.62,313.19 C764.43,319.13 765.37,320.05 766.47,318.88 C767.20,318.12 774.92,309.37 783.64,299.43 C826.49,250.59 834.82,241.21 838.75,237.35 C841.09,235.06 843.00,232.89 843.00,232.53 C843.00,232.17 851.89,221.97 862.75,209.86 C873.61,197.75 883.78,186.30 885.35,184.42 C889.47,179.47 893.00,180.14 893.00,185.87 C893.00,188.04 850.41,278.66 847.88,281.88 C846.85,283.19 846.00,285.12 846.00,286.17 C846.00,287.21 844.81,290.41 843.35,293.28 C839.22,301.43 826.00,330.32 826.00,331.21 C826.00,331.64 841.03,332.00 859.39,332.00 C888.92,332.00 892.86,332.18 893.39,333.58 C894.48,336.40 894.05,338.05 891.58,340.51 C890.25,341.84 888.53,343.83 887.75,344.94 C886.98,346.05 884.28,349.33 881.75,352.23 C879.23,355.13 872.55,363.12 866.91,370.00 C861.26,376.88 855.71,383.51 854.57,384.74 C853.43,385.98 851.30,388.45 849.82,390.24 C848.35,392.03 846.01,394.85 844.63,396.50 C843.24,398.15 836.38,406.48 829.38,415.00 C815.09,432.42 815.02,432.51 811.82,436.12 C810.54,437.56 809.05,439.42 808.50,440.26 C807.95,441.10 802.55,447.62 796.50,454.74 C790.45,461.86 781.22,472.91 776.00,479.31 C770.78,485.70 765.83,491.19 765.00,491.50 C764.17,491.81 762.17,494.18 760.53,496.78 C758.90,499.38 754.28,505.47 750.25,510.33 C746.23,515.18 742.39,519.83 741.72,520.65 C741.05,521.48 739.38,523.45 738.00,525.02 C736.62,526.60 733.32,530.61 730.65,533.94 ZM 646.82 509.08 C649.94,510.07 652.71,510.92 652.97,510.95 C653.23,510.98 650.85,508.47 647.69,505.38 C641.47,499.31 637.58,494.08 634.00,487.00 C632.75,484.52 631.40,482.27 631.00,482.00 C630.60,481.73 630.04,480.15 629.74,478.50 C629.45,476.85 628.45,472.12 627.51,468.00 C625.15,457.59 625.88,438.33 629.00,428.50 C631.88,419.44 634.68,414.00 636.46,414.00 C638.49,414.00 639.12,415.39 640.59,423.14 C642.67,434.06 649.05,444.99 654.10,446.32 C655.89,446.78 656.00,446.11 656.00,435.14 C656.00,426.42 656.52,421.58 658.06,416.02 C662.34,400.57 674.18,382.10 687.74,369.70 C697.55,360.74 699.58,362.23 696.19,375.90 C691.25,395.82 692.42,404.43 703.21,427.44 C708.87,439.50 709.66,440.69 711.10,439.40 C716.02,434.98 720.96,420.40 720.99,410.22 C721.00,406.44 721.43,404.77 722.51,404.36 C724.73,403.51 726.79,405.65 730.14,412.27 C737.72,427.30 742.94,450.00 741.57,462.06 C739.85,477.30 732.94,493.10 723.26,503.95 C720.09,507.50 718.17,510.15 719.00,509.86 C719.83,509.56 722.92,508.46 725.88,507.41 C727.38,506.88 728.44,506.61 729.36,506.09 C732.25,504.45 733.74,500.34 743.02,478.00 C747.47,467.27 753.08,454.00 755.49,448.50 C757.90,443.00 761.42,434.67 763.32,430.00 C765.22,425.33 769.69,414.75 773.24,406.50 C776.80,398.25 780.03,390.49 780.42,389.25 L 781.13 387.00 L 747.77 387.00 C713.47,387.00 712.00,386.84 712.00,383.05 C712.00,381.19 717.50,373.27 721.59,369.23 C723.19,367.64 725.85,364.78 727.50,362.88 C729.15,360.97 734.78,354.70 740.01,348.95 C745.23,343.20 751.87,335.72 754.76,332.33 L 760.00 326.16 L 754.83 317.83 C747.78,306.49 740.58,290.91 738.61,282.75 C737.71,279.04 736.68,271.87 736.33,266.82 L 735.67 257.63 L 732.76 261.06 C725.94,269.10 721.04,282.91 721.01,294.17 C721.00,301.33 720.34,303.00 717.56,303.00 C712.31,303.00 700.21,279.00 696.39,261.00 C694.23,250.82 694.20,229.22 696.35,217.25 C697.26,212.16 699.30,203.96 700.89,199.03 C703.70,190.29 703.72,190.08 701.64,191.17 C697.62,193.27 687.51,201.84 680.39,209.18 C667.36,222.60 658.95,237.06 653.45,255.51 C651.00,263.74 650.70,266.61 649.97,289.50 C649.08,316.89 648.37,321.06 642.41,333.63 C638.01,342.89 631.64,348.46 629.47,344.95 C629.11,344.37 629.39,339.23 630.09,333.52 C631.20,324.46 631.15,321.84 629.68,312.89 C627.74,301.07 622.31,288.57 616.83,283.29 L 613.50 280.09 L 613.84 290.53 C614.39,307.46 611.67,316.34 597.15,345.00 C584.60,369.79 581.98,376.25 578.93,390.00 C574.24,411.14 578.64,438.61 590.15,460.00 C601.72,481.52 625.78,502.35 646.82,509.08 ZM 737.44 511.40 C737.08,512.83 736.98,514.00 737.23,514.00 C737.48,514.00 739.75,511.41 742.29,508.25 C744.82,505.09 749.96,498.83 753.70,494.35 C757.44,489.86 764.17,481.76 768.65,476.35 C773.13,470.93 800.62,437.92 829.73,403.00 L 882.66 339.50 L 850.58 339.00 C832.94,338.73 817.94,338.14 817.25,337.69 C816.56,337.25 816.00,336.13 816.00,335.22 C816.00,333.67 845.03,271.05 865.18,229.12 C870.06,218.97 873.91,210.22 873.73,209.68 C873.40,208.70 871.02,211.25 847.35,238.03 C788.16,304.98 724.02,378.38 724.01,379.18 C724.00,379.56 738.35,379.65 755.88,379.39 C784.32,378.96 787.94,379.09 789.39,380.53 C790.96,382.10 790.77,386.02 789.02,388.50 C788.63,389.05 785.49,396.25 782.04,404.50 C769.46,434.60 762.69,450.67 759.27,458.50 C751.80,475.63 738.06,508.92 737.44,511.40 ZM 674.00 514.11 C699.38,522.33 728.08,500.96 734.55,469.03 C737.25,455.73 734.99,437.66 728.94,424.22 L 726.82 419.50 L 724.16 427.59 C721.33,436.20 718.12,441.55 712.57,446.94 C708.97,450.42 706.47,450.54 705.35,447.27 C705.01,446.30 701.69,438.75 697.97,430.50 C694.25,422.25 690.48,413.06 689.60,410.07 C687.81,403.99 687.40,385.59 688.93,380.24 C689.44,378.46 689.48,377.00 689.01,377.00 C687.00,377.00 675.60,392.27 671.06,401.05 C662.31,417.96 660.06,432.28 663.45,449.50 C664.62,455.43 664.62,456.72 663.46,457.92 C662.27,459.15 661.52,459.09 657.96,457.48 C651.28,454.47 643.18,445.58 638.96,436.64 L 635.25 428.78 L 633.88 434.14 C631.88,441.92 632.13,461.87 634.32,470.00 C637.51,481.78 643.47,492.54 650.98,500.05 C658.01,507.08 664.48,511.03 674.00,514.11 ZM 594.98 387.00 C593.76,392.77 592.41,398.40 591.99,399.50 C590.35,403.72 589.74,398.02 590.87,389.15 C592.42,377.10 594.68,371.00 605.56,349.57 C610.74,339.36 615.26,329.21 615.61,327.01 C615.97,324.80 616.69,323.00 617.22,323.00 C620.02,323.00 614.31,339.50 603.20,363.50 C598.88,372.84 596.56,379.45 594.98,387.00 ZM 699.58 481.45 C697.00,487.63 695.97,485.76 696.65,476.16 C697.48,464.49 696.24,459.81 688.93,447.00 C682.24,435.27 679.51,427.49 680.51,422.97 C681.37,419.02 682.66,420.00 683.51,425.26 C684.48,431.23 686.91,436.35 692.90,444.99 C695.75,449.11 698.81,454.96 699.70,457.99 C701.68,464.70 701.62,476.58 699.58,481.45 ZM 664.50 261.80 C661.49,272.16 659.99,274.22 660.01,267.95 C660.04,261.71 662.45,252.17 665.97,244.40 C670.36,234.73 681.01,220.80 681.00,224.75 C681.00,225.16 679.36,228.20 677.36,231.50 C672.57,239.42 667.57,251.19 664.50,261.80 ZM 615.00 469.21 C615.00,471.83 607.55,466.14 601.65,459.01 C594.67,450.58 586.76,430.63 588.97,427.05 C589.75,425.79 590.06,426.42 594.51,438.49 C597.80,447.40 604.58,458.25 610.43,463.96 C612.94,466.41 615.00,468.77 615.00,469.21 ZM 720.98 341.75 C721.00,344.13 719.21,344.87 718.54,342.75 C718.33,342.06 717.15,338.01 715.93,333.75 C714.63,329.23 711.47,322.25 708.35,317.02 C703.08,308.19 702.01,305.50 704.02,306.17 C705.62,306.71 712.67,316.00 715.55,321.37 C718.03,326.01 720.95,336.93 720.98,341.75 ZM 672.80 503.95 C673.47,505.86 671.26,505.68 666.92,503.47 C660.43,500.16 651.64,490.32 649.08,483.50 C645.24,473.23 646.83,470.54 651.27,479.79 C654.84,487.23 661.45,495.25 667.62,499.63 C670.30,501.53 672.64,503.48 672.80,503.95 ZM 719.36 486.07 C716.27,491.77 709.00,499.25 709.00,496.75 C709.00,495.84 710.81,492.50 713.03,489.33 C716.61,484.22 720.14,474.99 722.42,464.75 C723.32,460.72 725.00,461.40 725.00,465.79 C725.00,471.13 722.39,480.51 719.36,486.07 ZM 661.10 286.75 C660.94,288.73 659.20,288.20 658.49,285.96 C657.66,283.34 658.95,275.54 660.02,276.65 C660.74,277.40 661.37,283.26 661.10,286.75 Z" fill="rgb(47,28,15)"/>
<path d="M 646.82 509.08 C625.78,502.35 601.72,481.52 590.15,460.00 C578.64,438.61 574.24,411.14 578.93,390.00 C581.98,376.25 584.60,369.79 597.15,345.00 C611.67,316.34 614.39,307.46 613.84,290.53 L 613.50 280.09 L 616.83 283.29 C622.31,288.57 627.74,301.07 629.68,312.89 C631.15,321.84 631.20,324.46 630.09,333.52 C629.39,339.23 629.11,344.37 629.47,344.95 C631.64,348.46 638.01,342.89 642.41,333.63 C648.37,321.06 649.08,316.89 649.97,289.50 C650.70,266.61 651.00,263.74 653.45,255.51 C658.95,237.06 667.36,222.60 680.39,209.18 C687.51,201.84 697.62,193.27 701.64,191.17 C703.72,190.08 703.70,190.29 700.89,199.03 C699.30,203.96 697.26,212.16 696.35,217.25 C694.20,229.22 694.23,250.82 696.39,261.00 C700.21,279.00 712.31,303.00 717.56,303.00 C720.34,303.00 721.00,301.33 721.01,294.17 C721.04,282.91 725.94,269.10 732.76,261.06 L 735.67 257.63 L 736.33 266.82 C736.68,271.87 737.71,279.04 738.61,282.75 C740.58,290.91 747.78,306.49 754.83,317.83 L 760.00 326.16 L 754.76 332.33 C752.38,335.13 747.44,340.71 742.85,345.81 C744.94,343.16 744.87,342.15 744.46,339.53 C744.10,337.32 742.24,331.99 740.33,327.71 C738.41,323.42 736.08,317.65 735.14,314.88 C734.20,312.12 733.02,309.77 732.53,309.68 C730.95,309.37 729.08,319.11 728.10,332.74 C727.34,343.49 726.68,347.02 724.60,351.56 C722.27,356.65 720.00,358.08 720.00,354.45 C720.00,352.14 711.04,335.64 701.17,319.78 C685.95,295.35 682.01,284.36 681.24,264.25 C680.97,256.96 680.37,251.00 679.92,251.00 C677.06,251.00 665.91,272.58 662.87,284.00 C660.44,293.10 660.09,303.13 660.93,338.50 C661.27,352.61 661.05,355.50 659.09,363.00 C657.86,367.67 654.77,375.72 652.22,380.88 C646.99,391.45 646.46,391.24 646.12,378.49 C645.93,371.48 644.84,365.94 642.75,361.36 C641.68,359.00 641.54,359.14 639.53,364.72 C638.37,367.92 634.23,375.03 630.33,380.52 C626.43,386.01 622.28,392.40 621.11,394.72 C616.76,403.37 614.87,416.09 616.62,424.88 C617.94,431.44 620.99,426.46 621.02,417.68 C621.05,411.03 624.87,400.21 629.07,394.92 C633.93,388.77 638.60,384.00 639.75,384.00 C640.31,384.00 641.07,387.94 641.45,392.75 C642.54,406.74 643.71,408.29 647.14,400.25 C652.64,387.37 656.24,380.78 662.05,373.00 C670.48,361.72 675.10,353.97 678.47,345.53 C681.04,339.07 681.21,337.78 680.78,328.06 L 680.31 317.56 L 685.90 323.69 C688.98,327.06 692.48,331.77 693.68,334.16 C703.99,354.70 706.55,363.90 708.06,385.87 C709.56,407.58 711.61,411.54 716.42,401.96 C717.82,399.19 720.31,394.95 721.98,392.53 C723.64,390.12 725.00,387.88 725.00,387.57 C725.00,387.26 722.61,387.00 719.70,387.00 C716.03,387.00 713.80,386.46 712.74,385.24 C714.73,386.91 721.94,387.00 747.77,387.00 L 781.13 387.00 L 780.42 389.25 C780.03,390.49 776.80,398.25 773.24,406.50 C769.69,414.75 765.22,425.33 763.32,430.00 C761.42,434.67 757.90,443.00 755.49,448.50 C753.08,454.00 747.47,467.27 743.02,478.00 C733.74,500.34 732.25,504.45 729.36,506.09 C728.44,506.61 727.38,506.88 725.88,507.41 C722.92,508.46 719.83,509.56 719.00,509.86 C718.17,510.15 720.09,507.50 723.26,503.95 C732.94,493.10 739.85,477.30 741.57,462.06 C742.94,450.00 737.72,427.30 730.14,412.27 C726.79,405.65 724.73,403.51 722.51,404.36 C721.43,404.77 721.00,406.44 720.99,410.22 C720.96,420.40 716.02,434.98 711.10,439.40 C709.66,440.69 708.87,439.50 703.21,427.44 C692.42,404.43 691.25,395.82 696.19,375.90 C699.58,362.23 697.55,360.74 687.74,369.70 C674.18,382.10 662.34,400.57 658.06,416.02 C656.52,421.58 656.00,426.42 656.00,435.14 C656.00,446.11 655.89,446.78 654.10,446.32 C649.05,444.99 642.67,434.06 640.59,423.14 C639.12,415.39 638.49,414.00 636.46,414.00 C634.68,414.00 631.88,419.44 629.00,428.50 C625.88,438.33 625.15,457.59 627.51,468.00 C628.45,472.12 629.45,476.85 629.74,478.50 C630.04,480.15 630.60,481.73 631.00,482.00 C631.40,482.27 632.75,484.52 634.00,487.00 C637.58,494.08 641.47,499.31 647.69,505.38 C650.85,508.47 653.23,510.98 652.97,510.95 C652.71,510.92 649.94,510.07 646.82,509.08 ZM 594.98 387.00 C596.56,379.45 598.88,372.84 603.20,363.50 C614.31,339.50 620.02,323.00 617.22,323.00 C616.69,323.00 615.97,324.80 615.61,327.01 C615.26,329.21 610.74,339.36 605.56,349.57 C594.68,371.00 592.42,377.10 590.87,389.15 C589.74,398.02 590.35,403.72 591.99,399.50 C592.41,398.40 593.76,392.77 594.98,387.00 ZM 664.50 261.80 C667.57,251.19 672.57,239.42 677.36,231.50 C679.36,228.20 681.00,225.16 681.00,224.75 C681.01,220.80 670.36,234.73 665.97,244.40 C662.45,252.17 660.04,261.71 660.01,267.95 C659.99,274.22 661.49,272.16 664.50,261.80 ZM 615.00 469.21 C615.00,468.77 612.94,466.41 610.43,463.96 C604.58,458.25 597.80,447.40 594.51,438.49 C590.06,426.42 589.75,425.79 588.97,427.05 C586.76,430.63 594.67,450.58 601.65,459.01 C607.55,466.14 615.00,471.83 615.00,469.21 ZM 720.98 341.75 C720.95,336.93 718.03,326.01 715.55,321.37 C712.67,316.00 705.62,306.71 704.02,306.17 C702.01,305.50 703.08,308.19 708.35,317.02 C711.47,322.25 714.63,329.23 715.93,333.75 C717.15,338.01 718.33,342.06 718.54,342.75 C719.21,344.87 721.00,344.13 720.98,341.75 ZM 623.29 457.55 C623.96,458.30 624.61,458.94 624.75,458.96 C624.89,458.98 624.96,455.29 624.92,450.75 C624.88,446.21 624.61,443.07 624.34,443.76 C624.06,444.45 623.53,444.83 623.16,444.61 C622.80,444.39 621.97,444.78 621.33,445.48 C620.43,446.45 620.47,447.36 621.52,449.38 C622.27,450.82 622.70,452.94 622.48,454.09 C622.26,455.23 622.63,456.79 623.29,457.55 ZM 661.10 286.75 C661.37,283.26 660.74,277.40 660.02,276.65 C658.95,275.54 657.66,283.34 658.49,285.96 C659.20,288.20 660.94,288.73 661.10,286.75 ZM 760.46 429.73 L 760.42 434.97 L 762.28 432.02 C764.40,428.68 764.24,424.50 762.00,424.50 C760.86,424.50 760.49,425.77 760.46,429.73 Z" fill="rgb(226,90,38)"/>
<path d="M 674.00 514.11 C664.48,511.03 658.01,507.08 650.98,500.05 C643.47,492.54 637.51,481.78 634.32,470.00 C632.13,461.87 631.88,441.92 633.88,434.14 L 635.25 428.78 L 638.96 436.64 C643.18,445.58 651.28,454.47 657.96,457.48 C661.52,459.09 662.27,459.15 663.46,457.92 C664.62,456.72 664.62,455.43 663.45,449.50 C660.06,432.28 662.31,417.96 671.06,401.05 C675.60,392.27 687.00,377.00 689.01,377.00 C689.48,377.00 689.44,378.46 688.93,380.24 C687.40,385.59 687.81,403.99 689.60,410.07 C690.48,413.06 694.25,422.25 697.97,430.50 C701.69,438.75 705.01,446.30 705.35,447.27 C706.47,450.54 708.97,450.42 712.57,446.94 C718.12,441.55 721.33,436.20 724.16,427.59 L 726.82 419.50 L 728.94 424.22 C734.99,437.66 737.25,455.73 734.55,469.03 C728.08,500.96 699.38,522.33 674.00,514.11 ZM 672.80 503.95 C672.64,503.48 670.30,501.53 667.62,499.63 C661.45,495.25 654.84,487.23 651.27,479.79 C646.83,470.54 645.24,473.23 649.08,483.50 C651.64,490.32 660.43,500.16 666.92,503.47 C669.08,504.57 670.71,505.16 671.72,505.25 C670.59,506.24 669.02,507.00 668.06,507.00 C666.99,507.00 665.84,507.45 665.50,508.00 C665.16,508.55 665.81,509.00 666.94,509.00 C668.07,509.00 669.00,509.41 669.00,509.92 C669.00,510.42 670.91,511.51 673.25,512.34 C678.21,514.09 689.56,514.39 696.00,512.93 C704.13,511.08 718.84,499.31 722.09,492.04 C723.09,489.82 724.30,488.00 724.79,488.00 C726.93,488.00 731.00,477.01 732.58,467.00 C733.98,458.15 734.06,455.01 733.08,447.00 C731.87,437.02 729.48,430.50 727.05,430.50 C726.26,430.50 724.35,432.90 722.82,435.84 C718.55,444.00 711.90,451.25 708.68,451.25 C704.84,451.25 703.63,449.85 701.61,443.09 C700.62,439.79 699.18,436.56 698.41,435.92 C697.63,435.28 697.00,434.06 697.00,433.21 C697.00,432.35 696.39,430.95 695.64,430.08 C691.70,425.51 685.00,401.19 685.00,391.48 C685.00,386.23 682.49,386.35 678.54,391.78 C676.64,394.37 674.57,397.62 673.93,399.00 C673.29,400.38 672.38,402.17 671.89,403.00 C668.27,409.22 666.85,412.71 665.33,419.14 C663.36,427.45 663.18,440.91 664.92,448.38 C666.28,454.18 664.97,459.51 662.00,460.29 C657.90,461.36 644.91,451.36 639.86,443.25 C638.72,441.42 637.00,440.00 635.92,440.00 C634.13,440.00 634.00,440.84 634.00,451.93 C634.00,462.46 634.35,464.96 637.00,473.18 C638.66,478.31 641.02,484.05 642.25,485.93 C643.49,487.82 645.18,490.48 646.02,491.83 C648.03,495.07 651.21,497.11 652.75,496.15 C653.67,495.59 653.26,494.36 651.17,491.44 C648.06,487.10 645.00,479.60 645.00,476.33 C645.00,474.87 645.78,474.08 647.57,473.74 C649.87,473.30 650.38,473.81 652.51,478.61 C656.37,487.34 661.03,493.10 667.59,497.24 C672.98,500.65 674.25,502.09 672.84,504.05 C672.83,504.02 672.81,503.99 672.80,503.95 ZM 737.44 511.40 C738.06,508.92 751.80,475.63 759.27,458.50 C762.69,450.67 769.46,434.60 782.04,404.50 C785.49,396.25 788.63,389.05 789.02,388.50 C789.36,388.02 789.64,387.48 789.86,386.91 C789.73,387.56 789.61,388.24 789.50,388.87 C789.19,390.72 787.60,395.09 785.97,398.57 C784.33,402.06 783.00,405.51 783.00,406.24 C783.00,406.96 782.41,408.44 781.69,409.53 C780.97,410.61 778.68,415.77 776.60,421.00 C774.53,426.23 771.81,432.98 770.56,436.00 C766.32,446.24 765.81,447.88 766.46,448.94 C766.82,449.52 766.53,450.01 765.81,450.02 C764.28,450.04 761.09,456.72 757.50,467.40 C756.10,471.58 753.57,477.34 751.88,480.20 C747.91,486.94 744.77,494.95 745.42,496.66 C746.49,499.43 749.47,497.55 753.41,491.62 C754.83,489.49 758.48,484.99 761.53,481.62 C764.58,478.25 767.42,475.05 767.84,474.50 C768.26,473.95 771.06,470.56 774.05,466.97 C777.05,463.37 781.07,458.42 782.98,455.97 C784.90,453.51 788.81,449.02 791.67,446.00 C794.54,442.98 797.92,439.06 799.19,437.30 C803.35,431.55 807.35,426.62 813.73,419.39 C817.18,415.47 820.00,411.92 820.00,411.48 C820.00,411.04 822.36,408.14 825.25,405.04 C828.14,401.94 835.45,393.41 841.50,386.10 C847.55,378.79 852.97,372.29 853.54,371.65 C854.11,371.02 859.61,364.49 865.76,357.14 C875.47,345.55 876.81,343.51 875.89,341.79 C875.00,340.13 874.13,339.89 870.66,340.37 C866.22,340.98 852.70,341.23 831.29,341.09 C818.94,341.01 817.94,340.85 815.97,338.75 C813.36,335.96 813.73,333.66 818.31,324.25 C820.19,320.39 822.05,315.95 822.44,314.37 C822.83,312.79 824.25,310.07 825.58,308.32 C826.91,306.57 828.00,304.84 828.00,304.49 C828.00,303.50 835.42,287.43 844.68,268.35 C849.25,258.91 853.00,250.72 853.00,250.14 C853.00,249.56 854.25,246.93 855.78,244.29 C860.87,235.51 865.29,224.89 864.27,223.87 C863.17,222.77 859.85,225.64 852.56,234.00 C849.92,237.02 845.39,242.20 842.50,245.50 C839.60,248.80 836.17,252.77 834.87,254.32 C833.56,255.86 830.77,259.01 828.65,261.32 C824.26,266.08 817.00,275.59 817.00,276.57 C817.00,276.93 818.58,276.93 820.51,276.56 C823.14,276.07 824.17,276.28 824.59,277.38 C825.46,279.64 822.34,285.24 818.86,287.67 C815.67,289.90 812.49,289.76 813.38,287.44 C814.61,284.25 815.15,279.00 814.25,279.00 C813.72,279.00 809.96,282.71 805.90,287.25 C801.83,291.79 798.03,295.95 797.45,296.50 C793.53,300.19 779.14,317.91 778.57,319.75 C778.18,320.99 777.49,322.00 777.04,322.00 C775.77,322.00 770.00,327.66 770.00,328.90 C770.00,330.67 773.54,330.17 775.37,328.14 C776.43,326.97 776.79,325.60 776.34,324.39 C775.71,322.72 775.82,322.66 777.31,323.87 C778.41,324.77 779.00,324.85 779.00,324.12 C779.00,323.51 779.11,322.66 779.24,322.25 C779.73,320.71 805.81,295.00 806.88,295.00 C808.12,295.00 808.45,301.64 807.23,302.17 C806.81,302.35 804.79,304.81 802.74,307.62 C800.69,310.44 796.99,314.94 794.52,317.62 C792.04,320.31 790.02,322.82 790.01,323.20 C790.00,323.59 788.09,325.87 785.75,328.26 C783.41,330.65 779.40,335.29 776.82,338.56 C774.25,341.82 768.91,348.10 764.95,352.50 C760.99,356.90 756.72,362.12 755.46,364.09 C753.06,367.86 748.10,370.63 745.52,369.65 C743.51,368.87 743.37,361.00 745.37,361.00 C746.13,361.00 747.81,359.43 749.12,357.51 C750.43,355.59 751.84,354.01 752.25,354.01 C752.66,354.00 753.00,353.33 753.00,352.50 C753.00,351.67 752.59,351.00 752.09,351.00 C750.53,351.00 744.00,357.88 744.00,359.51 C744.00,360.37 743.15,361.39 742.10,361.78 C739.03,362.94 728.99,374.81 729.64,376.50 C730.01,377.48 731.57,378.00 734.11,378.00 C736.25,378.00 738.00,378.34 738.00,378.75 C738.00,379.16 749.23,379.40 762.96,379.28 L 763.89 379.28 C761.46,379.31 758.81,379.35 755.88,379.39 C738.35,379.65 724.00,379.56 724.01,379.18 C724.02,378.38 788.16,304.98 847.35,238.03 C871.02,211.25 873.40,208.70 873.73,209.68 C873.91,210.22 870.06,218.97 865.18,229.12 C845.03,271.05 816.00,333.67 816.00,335.22 C816.00,336.13 816.56,337.25 817.25,337.69 C817.94,338.14 832.94,338.73 850.58,339.00 L 882.66 339.50 L 829.73 403.00 C800.62,437.92 773.13,470.93 768.65,476.35 C764.17,481.76 757.44,489.86 753.70,494.35 C749.96,498.83 744.82,505.09 742.29,508.25 C739.75,511.41 737.48,514.00 737.23,514.00 C736.98,514.00 737.08,512.83 737.44,511.40 ZM 780.63 436.25 C776.53,441.56 774.94,434.45 778.45,426.51 C779.85,423.34 781.00,420.09 781.00,419.28 C781.00,418.47 781.64,416.61 782.42,415.15 C785.88,408.70 789.00,401.47 789.00,399.92 C789.00,397.81 796.73,382.47 798.55,380.96 C799.30,380.34 800.83,380.13 801.95,380.48 C803.55,380.99 804.00,381.98 804.00,384.99 C804.00,387.10 803.38,390.11 802.61,391.67 C801.85,393.23 798.97,399.23 796.21,405.00 C785.66,427.08 781.93,434.56 780.63,436.25 ZM 746.60 367.26 C746.93,367.59 747.84,367.62 748.62,367.32 C749.99,366.79 771.71,341.89 785.03,325.58 C788.59,321.22 793.19,315.77 795.25,313.47 C797.31,311.16 799.00,308.76 799.00,308.14 C799.00,304.29 792.99,310.03 773.50,332.50 C770.20,336.31 765.87,341.24 763.88,343.46 C755.18,353.16 746.00,364.50 746.00,365.54 C746.00,366.16 746.27,366.94 746.60,367.26 ZM 780.57 430.11 C781.44,431.52 784.16,426.28 794.62,403.01 C802.71,385.01 803.72,380.79 799.28,383.60 C796.22,385.52 779.18,427.87 780.57,430.11 ZM 854.83 349.41 C853.05,350.65 850.04,350.98 841.03,350.92 C828.21,350.83 827.00,350.59 827.00,348.11 C827.00,345.27 835.46,343.67 846.00,344.50 C855.94,345.29 858.60,346.77 854.83,349.41 ZM 696.99 484.86 C696.34,484.73 695.63,484.43 694.83,483.97 C693.43,483.15 693.33,482.40 694.20,479.25 C694.77,477.19 695.00,472.25 694.70,468.27 C694.21,461.80 693.50,459.81 687.83,449.28 C684.35,442.81 680.97,436.17 680.33,434.51 C678.66,430.23 678.72,423.14 680.44,421.42 C680.87,420.99 681.20,420.72 681.50,420.63 C681.14,420.86 680.80,421.64 680.51,422.97 C679.51,427.49 682.24,435.27 688.93,447.00 C696.24,459.81 697.48,464.49 696.65,476.16 C696.29,481.24 696.41,484.16 696.99,484.86 ZM 719.36 486.07 C722.39,480.51 725.00,471.13 725.00,465.79 C725.00,464.25 724.79,463.17 724.49,462.58 C725.23,463.04 725.69,463.86 725.86,465.00 C726.33,468.26 724.09,480.83 722.91,481.56 C722.41,481.87 722.00,483.04 722.00,484.16 C722.00,485.29 720.99,487.49 719.75,489.04 C718.51,490.60 716.70,493.02 715.72,494.42 C714.74,495.82 713.07,497.43 712.01,498.00 C710.46,498.82 709.87,498.62 708.97,496.93 C707.81,494.78 709.44,489.79 712.28,486.80 C714.20,484.77 717.66,476.16 719.54,468.70 C721.03,462.76 721.52,461.93 723.38,462.20 C723.13,462.54 722.73,463.36 722.42,464.75 C720.14,474.99 716.61,484.22 713.03,489.33 C710.81,492.50 709.00,495.84 709.00,496.75 C709.00,499.25 716.27,491.77 719.36,486.07 ZM 699.58 481.45 C701.62,476.58 701.68,464.70 699.70,457.99 C698.81,454.96 695.75,449.11 692.90,444.99 C686.91,436.35 684.48,431.23 683.51,425.26 C683.09,422.64 682.56,421.08 682.02,420.67 C682.41,420.84 682.82,421.34 683.44,422.21 C684.30,423.44 685.00,425.13 685.01,425.97 C685.02,428.18 690.75,438.76 696.21,446.67 C700.19,452.43 701.11,454.68 702.08,460.97 C703.26,468.70 702.84,476.29 700.92,481.81 C700.16,483.97 699.09,485.00 697.57,484.93 C698.07,484.61 698.75,483.45 699.58,481.45 ZM 770.37 457.84 C768.87,460.13 767.24,462.00 766.75,462.00 C766.25,462.00 766.16,459.48 766.55,456.25 C767.12,451.56 767.88,449.87 770.63,447.08 C772.48,445.20 774.31,443.98 774.70,444.37 C775.83,445.50 773.31,453.35 770.37,457.84 ZM 712.00 383.05 C712.00,383.98 712.09,384.70 712.74,385.24 C713.80,386.46 716.03,387.00 719.70,387.00 C721.38,387.00 722.89,387.09 723.86,387.22 C723.46,387.29 722.89,387.52 722.15,387.92 C721.04,388.51 719.04,389.00 717.70,389.00 C714.67,389.00 709.98,385.42 710.07,383.18 C710.13,381.83 710.31,381.89 711.00,383.50 C711.86,385.50 711.86,385.50 711.93,383.50 C711.93,383.36 711.96,383.20 712.00,383.02 C712.00,383.03 712.00,383.04 712.00,383.05 ZM 837.50 348.00 C837.11,348.62 839.14,349.00 842.88,349.00 C846.18,349.00 849.16,348.55 849.50,348.00 C849.89,347.38 847.86,347.00 844.12,347.00 C840.82,347.00 837.84,347.45 837.50,348.00 ZM 761.00 340.36 C761.00,341.86 761.29,342.01 762.39,341.09 C763.16,340.45 764.01,339.08 764.28,338.03 C764.71,336.38 764.53,336.28 762.89,337.30 C761.85,337.95 761.00,339.33 761.00,340.36 ZM 724.48 387.32 C724.81,387.40 725.00,387.48 725.00,387.57 C725.00,387.85 723.94,389.62 722.55,391.69 C724.22,389.18 724.87,387.74 724.48,387.32 ZM 789.44 380.59 C789.46,380.60 789.48,380.62 789.50,380.64 C790.36,381.50 790.84,382.95 790.57,383.86 C790.53,383.99 790.49,384.14 790.44,384.32 C790.54,382.82 790.21,381.41 789.44,380.59 ZM 715.71 376.32 C717.47,373.81 719.61,371.18 721.59,369.23 C719.70,371.09 717.52,373.78 715.71,376.32 Z" fill="rgb(238,212,82)"/>
<path d="M 724.48 387.32 C724.87,387.74 724.22,389.18 722.55,391.69 C722.36,391.97 722.17,392.25 721.98,392.53 C720.31,394.95 717.82,399.19 716.42,401.96 C711.61,411.54 709.56,407.58 708.06,385.87 C706.55,363.90 703.99,354.70 693.68,334.16 C692.48,331.77 688.98,327.06 685.90,323.69 L 680.31 317.56 L 680.78 328.06 C681.21,337.78 681.04,339.07 678.47,345.53 C675.10,353.97 670.48,361.72 662.05,373.00 C656.24,380.78 652.64,387.37 647.14,400.25 C643.71,408.29 642.54,406.74 641.45,392.75 C641.07,387.94 640.31,384.00 639.75,384.00 C638.60,384.00 633.93,388.77 629.07,394.92 C624.87,400.21 621.05,411.03 621.02,417.68 C620.99,426.46 617.94,431.44 616.62,424.88 C614.87,416.09 616.76,403.37 621.11,394.72 C622.28,392.40 626.43,386.01 630.33,380.52 C634.23,375.03 638.37,367.92 639.53,364.72 C641.54,359.14 641.68,359.00 642.75,361.36 C644.84,365.94 645.93,371.48 646.12,378.49 C646.46,391.24 646.99,391.45 652.22,380.88 C654.77,375.72 657.86,367.67 659.09,363.00 C661.05,355.50 661.27,352.61 660.93,338.50 C660.09,303.13 660.44,293.10 662.87,284.00 C665.91,272.58 677.06,251.00 679.92,251.00 C680.37,251.00 680.97,256.96 681.24,264.25 C682.01,284.36 685.95,295.35 701.17,319.78 C711.04,335.64 720.00,352.14 720.00,354.45 C720.00,358.08 722.27,356.65 724.60,351.56 C726.68,347.02 727.34,343.49 728.10,332.74 C729.08,319.11 730.95,309.37 732.53,309.68 C733.02,309.77 734.20,312.12 735.14,314.88 C736.08,317.65 738.41,323.42 740.33,327.71 C742.24,331.99 744.10,337.32 744.46,339.53 C744.87,342.15 744.94,343.16 742.85,345.81 C741.88,346.89 740.92,347.95 740.01,348.95 C734.78,354.70 729.15,360.97 727.50,362.88 C725.85,364.78 723.19,367.64 721.59,369.23 C719.70,371.09 717.52,373.78 715.71,376.32 L 715.71 376.32 C713.61,379.26 712.03,382.01 712.00,383.02 C711.96,383.20 711.93,383.36 711.93,383.50 C711.86,385.50 711.86,385.50 711.00,383.50 C710.31,381.89 710.13,381.83 710.07,383.18 C709.98,385.42 714.67,389.00 717.70,389.00 C719.04,389.00 721.04,388.51 722.15,387.92 C722.89,387.52 723.46,387.29 723.86,387.22 C724.10,387.25 724.31,387.29 724.48,387.32 ZM 623.29 457.55 C622.63,456.79 622.26,455.23 622.48,454.09 C622.70,452.94 622.27,450.82 621.52,449.38 C620.47,447.36 620.43,446.45 621.33,445.48 C621.97,444.78 622.80,444.39 623.16,444.61 C623.53,444.83 624.06,444.45 624.34,443.76 C624.61,443.07 624.88,446.21 624.92,450.75 C624.96,455.29 624.89,458.98 624.75,458.96 C624.61,458.94 623.96,458.30 623.29,457.55 ZM 760.46 429.73 C760.49,425.77 760.86,424.50 762.00,424.50 C764.24,424.50 764.40,428.68 762.28,432.02 L 760.42 434.97 Z" fill="rgb(247,161,39)"/>
<path d="M 789.44 380.59 C789.42,380.57 789.40,380.55 789.39,380.53 C788.09,379.24 785.04,379.00 763.89,379.28 L 763.88 379.28 L 762.96 379.28 C749.23,379.40 738.00,379.16 738.00,378.75 C738.00,378.34 736.25,378.00 734.11,378.00 C731.57,378.00 730.01,377.48 729.64,376.50 C728.99,374.81 739.03,362.94 742.10,361.78 C743.15,361.39 744.00,360.37 744.00,359.51 C744.00,357.88 750.53,351.00 752.09,351.00 C752.59,351.00 753.00,351.67 753.00,352.50 C753.00,353.33 752.66,354.00 752.25,354.01 C751.84,354.01 750.43,355.59 749.12,357.51 C747.81,359.43 746.13,361.00 745.37,361.00 C743.37,361.00 743.51,368.87 745.52,369.65 C748.10,370.63 753.06,367.86 755.46,364.09 C756.72,362.12 760.99,356.90 764.95,352.50 C768.91,348.10 774.25,341.82 776.82,338.56 C779.40,335.29 783.41,330.65 785.75,328.26 C788.09,325.87 790.00,323.59 790.01,323.20 C790.02,322.82 792.04,320.31 794.52,317.62 C796.99,314.94 800.69,310.44 802.74,307.62 C804.79,304.81 806.81,302.35 807.23,302.17 C808.45,301.64 808.12,295.00 806.88,295.00 C805.81,295.00 779.73,320.71 779.24,322.25 C779.11,322.66 779.00,323.51 779.00,324.12 C779.00,324.85 778.41,324.77 777.31,323.87 C775.82,322.66 775.71,322.72 776.34,324.39 C776.79,325.60 776.43,326.97 775.37,328.14 C773.54,330.17 770.00,330.67 770.00,328.90 C770.00,327.66 775.77,322.00 777.04,322.00 C777.49,322.00 778.18,320.99 778.57,319.75 C779.14,317.91 793.53,300.19 797.45,296.50 C798.03,295.95 801.83,291.79 805.90,287.25 C809.96,282.71 813.72,279.00 814.25,279.00 C815.15,279.00 814.61,284.25 813.38,287.44 C812.49,289.76 815.67,289.90 818.86,287.67 C822.34,285.24 825.46,279.64 824.59,277.38 C824.17,276.28 823.14,276.07 820.51,276.56 C818.58,276.93 817.00,276.93 817.00,276.57 C817.00,275.59 824.26,266.08 828.65,261.32 C830.77,259.01 833.56,255.86 834.87,254.32 C836.17,252.77 839.60,248.80 842.50,245.50 C845.39,242.20 849.92,237.02 852.56,234.00 C859.85,225.64 863.17,222.77 864.27,223.87 C865.29,224.89 860.87,235.51 855.78,244.29 C854.25,246.93 853.00,249.56 853.00,250.14 C853.00,250.72 849.25,258.91 844.68,268.35 C835.42,287.43 828.00,303.50 828.00,304.49 C828.00,304.84 826.91,306.57 825.58,308.32 C824.25,310.07 822.83,312.79 822.44,314.37 C822.05,315.95 820.19,320.39 818.31,324.25 C813.73,333.66 813.36,335.96 815.97,338.75 C817.94,340.85 818.94,341.01 831.29,341.09 C852.70,341.23 866.22,340.98 870.66,340.37 C874.13,339.89 875.00,340.13 875.89,341.79 C876.81,343.51 875.47,345.55 865.76,357.14 C859.61,364.49 854.11,371.02 853.54,371.65 C852.97,372.29 847.55,378.79 841.50,386.10 C835.45,393.41 828.14,401.94 825.25,405.04 C822.36,408.14 820.00,411.04 820.00,411.48 C820.00,411.92 817.18,415.47 813.73,419.39 C807.35,426.62 803.35,431.55 799.19,437.30 C797.92,439.06 794.54,442.98 791.67,446.00 C788.81,449.02 784.90,453.51 782.98,455.97 C781.07,458.42 777.05,463.37 774.05,466.97 C771.06,470.56 768.26,473.95 767.84,474.50 C767.42,475.05 764.58,478.25 761.53,481.62 C758.48,484.99 754.83,489.49 753.41,491.62 C749.47,497.55 746.49,499.43 745.42,496.66 C744.77,494.95 747.91,486.94 751.88,480.20 C753.57,477.34 756.10,471.58 757.50,467.40 C761.09,456.72 764.28,450.04 765.81,450.02 C766.53,450.01 766.82,449.52 766.46,448.94 C765.81,447.88 766.32,446.24 770.56,436.00 C771.81,432.98 774.53,426.23 776.60,421.00 C778.68,415.77 780.97,410.61 781.69,409.53 C782.41,408.44 783.00,406.96 783.00,406.24 C783.00,405.51 784.33,402.06 785.97,398.57 C787.60,395.09 789.19,390.72 789.50,388.87 C789.61,388.24 789.73,387.56 789.86,386.91 C790.19,386.08 790.38,385.18 790.44,384.32 C790.49,384.14 790.53,383.99 790.57,383.86 C790.84,382.95 790.36,381.50 789.50,380.64 C789.48,380.62 789.46,380.60 789.44,380.59 ZM 668.06 507.00 C669.02,507.00 670.59,506.24 671.72,505.25 C672.71,505.34 673.11,504.94 672.84,504.05 C674.25,502.09 672.98,500.65 667.59,497.24 C661.03,493.10 656.37,487.34 652.51,478.61 C650.38,473.81 649.87,473.30 647.57,473.74 C645.78,474.08 645.00,474.87 645.00,476.33 C645.00,479.60 648.06,487.10 651.17,491.44 C653.26,494.36 653.67,495.59 652.75,496.15 C651.21,497.11 648.03,495.07 646.02,491.83 C645.18,490.48 643.49,487.82 642.25,485.93 C641.02,484.05 638.66,478.31 637.00,473.18 C634.35,464.96 634.00,462.46 634.00,451.93 C634.00,440.84 634.13,440.00 635.92,440.00 C637.00,440.00 638.72,441.42 639.86,443.25 C644.91,451.36 657.90,461.36 662.00,460.29 C664.97,459.51 666.28,454.18 664.92,448.38 C663.18,440.91 663.36,427.45 665.33,419.14 C666.85,412.71 668.27,409.22 671.89,403.00 C672.38,402.17 673.29,400.38 673.93,399.00 C674.57,397.62 676.64,394.37 678.54,391.78 C682.49,386.35 685.00,386.23 685.00,391.48 C685.00,401.19 691.70,425.51 695.64,430.08 C696.39,430.95 697.00,432.35 697.00,433.21 C697.00,434.06 697.63,435.28 698.41,435.92 C699.18,436.56 700.62,439.79 701.61,443.09 C703.63,449.85 704.84,451.25 708.68,451.25 C711.90,451.25 718.55,444.00 722.82,435.84 C724.35,432.90 726.26,430.50 727.05,430.50 C729.48,430.50 731.87,437.02 733.08,447.00 C734.06,455.01 733.98,458.15 732.58,467.00 C731.00,477.01 726.93,488.00 724.79,488.00 C724.30,488.00 723.09,489.82 722.09,492.04 C718.84,499.31 704.13,511.08 696.00,512.93 C689.56,514.39 678.21,514.09 673.25,512.34 C670.91,511.51 669.00,510.42 669.00,509.92 C669.00,509.41 668.07,509.00 666.94,509.00 C665.81,509.00 665.16,508.55 665.50,508.00 C665.84,507.45 666.99,507.00 668.06,507.00 ZM 696.99 484.86 C697.15,485.05 697.34,485.08 697.57,484.93 C699.09,485.00 700.16,483.97 700.92,481.81 C702.84,476.29 703.26,468.70 702.08,460.97 C701.11,454.68 700.19,452.43 696.21,446.67 C690.75,438.76 685.02,428.18 685.01,425.97 C685.00,425.13 684.30,423.44 683.44,422.21 C682.82,421.34 682.41,420.84 682.02,420.67 C681.85,420.53 681.67,420.52 681.50,420.63 C681.20,420.72 680.87,420.99 680.44,421.42 C678.72,423.14 678.66,430.23 680.33,434.51 C680.97,436.17 684.35,442.81 687.83,449.28 C693.50,459.81 694.21,461.80 694.70,468.27 C695.00,472.25 694.77,477.19 694.20,479.25 C693.33,482.40 693.43,483.15 694.83,483.97 C695.63,484.43 696.34,484.73 696.99,484.86 ZM 780.63 436.25 C781.93,434.56 785.66,427.08 796.21,405.00 C798.97,399.23 801.85,393.23 802.61,391.67 C803.38,390.11 804.00,387.10 804.00,384.99 C804.00,381.98 803.55,380.99 801.95,380.48 C800.83,380.13 799.30,380.34 798.55,380.96 C796.73,382.47 789.00,397.81 789.00,399.92 C789.00,401.47 785.88,408.70 782.42,415.15 C781.64,416.61 781.00,418.47 781.00,419.28 C781.00,420.09 779.85,423.34 778.45,426.51 C774.94,434.45 776.53,441.56 780.63,436.25 ZM 724.49 462.58 C724.22,462.07 723.88,461.94 723.53,462.22 C721.52,461.93 721.03,462.76 719.54,468.70 C717.66,476.16 714.20,484.77 712.28,486.80 C709.44,489.79 707.81,494.78 708.97,496.93 C709.87,498.62 710.46,498.82 712.01,498.00 C713.07,497.43 714.74,495.82 715.72,494.42 C716.70,493.02 718.51,490.60 719.75,489.04 C720.99,487.49 722.00,485.29 722.00,484.16 C722.00,483.04 722.41,481.87 722.91,481.56 C724.09,480.83 726.33,468.26 725.86,465.00 C725.69,463.86 725.23,463.04 724.49,462.58 ZM 854.83 349.41 C858.60,346.77 855.94,345.29 846.00,344.50 C835.46,343.67 827.00,345.27 827.00,348.11 C827.00,350.59 828.21,350.83 841.03,350.92 C850.04,350.98 853.05,350.65 854.83,349.41 ZM 770.37 457.84 C773.31,453.35 775.83,445.50 774.70,444.37 C774.31,443.98 772.48,445.20 770.63,447.08 C767.88,449.87 767.12,451.56 766.55,456.25 C766.16,459.48 766.25,462.00 766.75,462.00 C767.24,462.00 768.87,460.13 770.37,457.84 ZM 761.00 340.36 C761.00,339.33 761.85,337.95 762.89,337.30 C764.53,336.28 764.71,336.38 764.28,338.03 C764.01,339.08 763.16,340.45 762.39,341.09 C761.29,342.01 761.00,341.86 761.00,340.36 Z" fill="rgb(247,211,29)"/>
<path d="M 0.00 358.00 L 0.00 0.00 L 732.00 0.00 L 1464.00 0.00 L 1464.00 358.00 L 1464.00 716.00 L 732.00 716.00 L 0.00 716.00 L 0.00 358.00 ZM 774.50 623.12 C827.88,613.86 873.19,591.66 914.37,554.58 C922.41,547.35 937.56,530.65 946.67,519.00 C974.41,483.49 994.28,432.54 999.07,384.57 C1000.74,367.87 999.70,330.98 997.14,316.50 C988.78,269.10 972.74,232.24 943.62,193.50 C934.60,181.49 908.33,155.78 894.50,145.42 C829.78,96.93 749.14,80.10 670.00,98.59 C640.40,105.50 610.94,118.39 583.50,136.43 C520.42,177.91 478.61,244.95 466.85,323.50 C464.79,337.24 465.07,381.45 467.31,395.50 C475.30,445.73 493.65,487.96 523.98,525.94 C536.95,542.17 555.14,559.52 574.00,573.62 C608.08,599.10 650.05,616.74 692.50,623.42 C707.04,625.71 708.99,625.80 737.00,625.49 C757.34,625.26 764.93,624.78 774.50,623.12 ZM 709.00 611.31 C682.81,608.52 652.83,600.39 629.91,589.87 C600.70,576.46 578.79,561.46 555.64,539.00 C521.94,506.32 497.51,464.20 487.10,420.84 C483.61,406.33 482.93,402.82 481.39,391.53 C473.45,333.44 487.19,271.21 518.81,222.00 C536.04,195.18 561.95,168.13 586.50,151.33 C608.66,136.17 636.24,122.62 657.00,116.69 C708.82,101.89 753.48,101.36 801.54,114.98 C887.62,139.37 953.70,205.94 976.95,291.68 C984.26,318.64 986.56,338.20 985.69,366.00 C984.80,394.64 979.41,421.81 969.34,448.35 C936.09,536.03 854.52,599.60 761.25,610.51 C749.74,611.86 718.61,612.33 709.00,611.31 ZM 730.65 533.94 C733.32,530.61 736.62,526.60 738.00,525.02 C739.38,523.45 741.05,521.48 741.72,520.65 C742.39,519.83 746.23,515.18 750.25,510.33 C754.28,505.47 758.90,499.38 760.53,496.78 C762.17,494.18 764.17,491.81 765.00,491.50 C765.83,491.19 770.78,485.70 776.00,479.31 C781.22,472.91 790.45,461.86 796.50,454.74 C802.55,447.62 807.95,441.10 808.50,440.26 C809.05,439.42 810.54,437.56 811.82,436.12 C815.02,432.51 815.09,432.42 829.38,415.00 C836.38,406.48 843.24,398.15 844.63,396.50 C846.01,394.85 848.35,392.03 849.82,390.24 C851.30,388.45 853.43,385.98 854.57,384.74 C855.71,383.51 861.26,376.88 866.91,370.00 C872.55,363.12 879.23,355.13 881.75,352.23 C884.28,349.33 886.98,346.05 887.75,344.94 C888.53,343.83 890.25,341.84 891.58,340.51 C894.05,338.05 894.48,336.40 893.39,333.58 C892.86,332.18 888.92,332.00 859.39,332.00 C841.03,332.00 826.00,331.64 826.00,331.21 C826.00,330.32 839.22,301.43 843.35,293.28 C844.81,290.41 846.00,287.21 846.00,286.17 C846.00,285.12 846.85,283.19 847.88,281.88 C850.41,278.66 893.00,188.04 893.00,185.87 C893.00,180.14 889.47,179.47 885.35,184.42 C883.78,186.30 873.61,197.75 862.75,209.86 C851.89,221.97 843.00,232.17 843.00,232.53 C843.00,232.89 841.09,235.06 838.75,237.35 C834.82,241.21 826.49,250.59 783.64,299.43 C774.92,309.37 767.20,318.12 766.47,318.88 C765.37,320.05 764.43,319.13 760.62,313.19 C754.86,304.20 750.41,295.39 747.14,286.50 C744.80,280.13 744.55,278.00 744.40,263.00 C744.18,242.47 744.39,244.00 741.89,244.00 C738.49,244.00 730.38,251.59 724.96,259.85 C720.28,266.98 715.00,280.33 715.00,285.05 C715.00,287.55 713.37,287.56 712.03,285.06 C705.59,273.03 700.44,247.81 701.46,233.35 C702.36,220.54 706.12,204.90 711.53,191.38 C715.19,182.22 715.89,179.57 714.94,178.43 C712.98,176.06 710.63,176.75 702.38,182.14 C680.95,196.12 664.98,213.09 654.90,232.57 C652.76,236.72 651.00,240.98 651.00,242.05 C651.00,243.12 650.61,244.00 650.14,244.00 C649.67,244.00 648.34,247.71 647.20,252.25 C646.05,256.79 644.81,261.62 644.45,263.00 C644.09,264.38 643.44,276.52 643.01,290.00 C642.23,313.83 640.80,324.57 638.50,323.82 C637.95,323.65 637.65,321.66 637.83,319.41 C638.33,313.08 634.40,298.41 630.01,290.28 C625.24,281.44 625.14,281.31 616.81,272.82 C612.06,267.98 609.40,266.00 607.61,266.00 C603.92,266.00 602.92,268.58 604.74,273.43 C605.66,275.87 606.46,282.37 606.75,289.67 C607.50,308.58 605.89,313.32 584.91,354.00 C569.29,384.27 566.21,410.45 574.71,440.43 C579.88,458.65 588.57,473.43 602.75,488.15 C621.81,507.93 647.39,520.39 674.17,522.92 C689.87,524.40 703.85,522.59 725.25,516.28 C726.79,515.83 726.68,516.60 724.35,522.63 C719.00,536.51 718.81,540.00 723.37,540.00 C725.15,540.00 727.11,538.37 730.65,533.94 ZM 780.57 430.11 C779.18,427.87 796.22,385.52 799.28,383.60 C803.72,380.79 802.71,385.01 794.62,403.01 C784.16,426.28 781.44,431.52 780.57,430.11 ZM 746.60 367.26 C746.27,366.94 746.00,366.16 746.00,365.54 C746.00,364.50 755.18,353.16 763.88,343.46 C765.87,341.24 770.20,336.31 773.50,332.50 C792.99,310.03 799.00,304.29 799.00,308.14 C799.00,308.76 797.31,311.16 795.25,313.47 C793.19,315.77 788.59,321.22 785.03,325.58 C771.71,341.89 749.99,366.79 748.62,367.32 C747.84,367.62 746.93,367.59 746.60,367.26 ZM 837.50 348.00 C837.84,347.45 840.82,347.00 844.12,347.00 C847.86,347.00 849.89,347.38 849.50,348.00 C849.16,348.55 846.18,349.00 842.88,349.00 C839.14,349.00 837.11,348.62 837.50,348.00 Z" fill="rgb(254,254,254)"/>
</g>
</svg>