<svg xmlns="http://www.w3.org/2000/svg" width="1081" height="970" viewBox="0 0 1081 970">
<g>
<path d="M 517.50 748.43 C515.85,748.21 510.67,747.53 506.00,746.91 C470.59,742.23 435.49,729.11 404.70,709.04 C360.78,680.43 324.50,636.64 304.56,588.16 C292.58,559.05 287.34,536.22 285.00,502.99 C283.05,475.31 286.73,438.65 294.02,413.17 C304.03,378.16 320.78,345.40 342.67,318.00 C352.76,305.37 375.06,283.42 387.00,274.36 C407.82,258.56 429.24,246.22 449.78,238.18 C491.06,222.02 540.22,217.84 585.50,226.64 C636.94,236.63 688.39,267.22 724.66,309.38 C759.66,350.05 780.27,396.67 788.15,453.00 C789.89,465.46 789.92,505.56 788.18,517.50 C782.69,555.38 772.95,585.30 756.41,615.04 C727.58,666.92 685.16,706.01 632.25,729.44 C619.40,735.13 613.34,737.27 599.50,740.99 C578.72,746.58 566.55,748.19 542.50,748.52 C530.40,748.69 519.15,748.65 517.50,748.43 ZM 564.20 717.51 C616.93,710.55 668.08,682.05 703.14,640.10 C731.36,606.34 748.35,569.35 757.15,522.50 C760.23,506.12 760.51,467.25 757.66,451.00 C752.76,423.04 746.38,402.94 734.91,379.37 C712.75,333.82 676.69,296.82 632.77,274.58 C606.29,261.17 581.61,254.34 550.95,251.93 C490.86,247.21 426.33,272.71 381.89,318.75 C363.72,337.58 351.35,355.02 339.88,378.00 C327.27,403.27 320.06,426.54 315.89,455.50 C314.19,467.35 314.17,502.85 315.87,515.00 C324.08,573.85 353.87,629.55 396.26,665.32 C428.52,692.54 463.26,709.32 501.00,715.92 C515.78,718.50 517.36,718.63 536.70,718.83 C546.36,718.93 557.46,718.40 564.20,717.51 ZM 648.56 557.09 C647.49,555.37 649.32,552.49 655.73,545.77 C662.42,538.75 663.37,535.87 659.73,533.60 C658.38,532.76 657.30,532.88 655.19,534.08 C653.15,535.25 651.84,535.41 650.21,534.68 C645.79,532.71 648.66,528.89 656.05,526.91 C659.92,525.87 661.08,525.94 664.15,527.40 C667.86,529.16 670.00,532.45 670.00,536.40 C670.00,538.79 665.87,545.10 662.15,548.40 C658.87,551.31 659.51,552.00 665.50,552.00 C670.94,552.00 671.00,552.03 671.00,555.00 L 671.00 558.00 L 660.06 558.00 C654.04,558.00 648.86,557.59 648.56,557.09 ZM 590.67 545.33 C590.30,544.97 590.00,532.37 590.00,517.33 L 590.00 490.00 L 595.31 490.00 C601.62,490.00 601.22,489.64 615.59,508.50 L 625.50 521.49 L 626.11 509.50 C626.45,502.90 626.79,495.81 626.86,493.75 L 627.00 490.00 L 633.50 490.00 L 640.00 490.00 L 640.00 516.80 C640.00,536.31 639.67,543.93 638.80,544.80 C637.52,546.08 632.23,546.41 629.52,545.37 C628.08,544.82 611.43,523.35 606.54,515.76 C605.57,514.25 604.38,513.26 603.89,513.57 C603.40,513.87 603.00,521.01 603.00,529.44 C603.00,544.49 602.96,544.78 600.75,545.37 C597.72,546.18 591.49,546.16 590.67,545.33 ZM 691.50 545.11 C686.94,543.95 684.66,542.48 680.73,538.12 C671.28,527.67 674.00,510.12 686.02,503.99 C691.16,501.37 701.87,501.30 707.51,503.86 C720.16,509.61 723.92,526.37 714.98,537.20 C710.01,543.24 698.88,546.98 691.50,545.11 ZM 703.36 532.15 C710.65,524.54 706.92,512.00 697.37,512.00 C691.98,512.00 688.00,516.45 688.00,522.47 C688.00,527.51 689.99,532.31 692.75,533.92 C696.12,535.88 700.48,535.15 703.36,532.15 ZM 484.82 538.31 C484.51,535.56 484.35,535.49 477.50,535.22 C469.51,534.89 467.69,533.58 468.98,529.07 C470.19,524.85 471.46,522.81 478.06,514.51 C483.84,507.24 484.28,506.90 487.81,507.19 L 491.50 507.50 L 492.00 517.15 C492.39,524.72 492.91,527.25 494.38,528.87 C496.22,530.91 496.22,531.01 494.38,533.72 C493.35,535.25 492.26,537.40 491.96,538.50 C491.59,539.86 490.42,540.60 488.28,540.81 C485.50,541.08 485.11,540.80 484.82,538.31 ZM 484.29 524.66 C484.87,522.89 484.87,521.03 484.28,519.71 C483.39,517.72 483.20,517.82 480.67,521.53 C477.23,526.59 477.23,528.22 480.67,527.82 C482.58,527.59 483.61,526.69 484.29,524.66 ZM 370.02 533.10 C362.64,530.47 355.77,523.32 353.59,515.99 C349.16,501.06 354.56,487.58 367.24,481.90 C374.92,478.45 386.54,478.59 393.50,482.21 C396.25,483.63 399.59,485.97 400.91,487.39 C403.30,489.95 403.31,490.00 401.42,492.09 C400.37,493.25 398.26,494.85 396.73,495.64 C394.15,496.97 393.72,496.89 390.38,494.34 C385.54,490.65 376.97,489.97 372.29,492.91 C359.36,501.03 365.41,523.00 380.57,523.00 C383.93,523.00 385.85,522.24 389.50,519.45 L 394.15 515.90 L 397.22 517.70 C402.05,520.53 402.81,522.44 400.38,525.71 C394.84,533.16 380.20,536.73 370.02,533.10 ZM 448.48 533.75 C448.24,533.06 447.91,528.00 447.77,522.50 L 447.50 512.50 L 435.75 512.22 L 424.00 511.94 L 424.00 522.97 L 424.00 534.00 L 417.50 534.00 L 411.00 534.00 L 411.00 507.00 L 411.00 480.00 L 413.75 479.99 C415.26,479.98 418.17,479.70 420.21,479.36 L 423.93 478.75 L 424.21 489.62 L 424.50 500.50 L 436.00 500.50 L 447.50 500.50 L 447.78 489.70 L 448.07 478.91 L 454.28 479.20 L 460.50 479.50 L 460.77 506.63 L 461.03 533.76 L 458.77 534.37 C454.85,535.41 448.96,535.06 448.48,533.75 ZM 590.67 435.33 C589.19,433.86 590.30,431.99 597.00,424.64 C600.85,420.42 604.00,416.28 604.00,415.45 C604.00,413.15 601.27,412.59 596.96,414.01 C593.81,415.05 592.77,415.06 591.53,414.03 C589.29,412.17 589.62,411.20 593.25,408.99 C596.92,406.75 604.58,406.36 607.09,408.28 C612.24,412.24 611.74,418.15 605.70,424.71 C601.09,429.71 601.60,430.96 608.25,430.98 C611.58,431.00 612.00,431.28 612.00,433.50 L 612.00 436.00 L 601.67 436.00 C595.98,436.00 591.03,435.70 590.67,435.33 ZM 492.73 421.91 C474.12,417.53 464.90,397.98 473.76,381.69 C482.22,366.15 505.84,362.12 518.35,374.08 L 522.50 378.05 L 519.04 381.02 C514.83,384.64 513.36,384.72 509.05,381.54 C498.18,373.52 483.77,381.19 483.77,395.00 C483.77,400.94 486.08,405.37 490.78,408.45 C497.20,412.65 503.55,412.30 508.93,407.45 L 512.86 403.89 L 516.98 405.99 C519.24,407.15 521.36,408.77 521.68,409.60 C522.97,412.98 513.40,420.11 505.18,421.87 C499.20,423.15 498.01,423.15 492.73,421.91 ZM 548.00 421.45 C534.90,417.80 527.71,408.38 527.77,394.95 C527.83,384.36 532.86,375.52 541.84,370.24 C546.06,367.76 547.40,367.50 556.00,367.55 C570.04,367.62 576.52,371.28 582.21,382.38 C585.34,388.49 585.83,399.34 583.23,405.21 C577.18,418.90 562.73,425.56 548.00,421.45 ZM 564.05 409.29 C565.45,408.48 567.55,406.39 568.72,404.66 C575.18,395.10 570.73,381.89 560.07,379.02 C554.42,377.50 550.57,378.49 545.94,382.67 C539.49,388.50 538.67,394.89 543.30,403.26 C547.67,411.16 556.44,413.71 564.05,409.29 Z" fill="rgba(0,0,0,1)"/>
</g>
</svg>