<svg xmlns="http://www.w3.org/2000/svg" width="1024" height="1024" viewBox="0 0 1024 1024">
<g>
<path d="M 473.50 1011.92 C390.74,1004.34 321.28,981.70 253.50,940.21 C129.83,864.51 44.24,738.59 20.54,597.50 C16.34,572.48 14.86,554.98 14.29,523.46 C13.12,459.00 20.84,405.93 39.45,350.50 C64.27,276.57 104.07,212.65 159.93,157.00 C216.54,100.60 275.07,64.44 350.88,39.05 C391.08,25.58 426.78,18.05 470.00,13.92 C487.39,12.26 533.69,12.50 555.50,14.36 C658.63,23.16 753.73,62.19 833.50,128.45 C847.63,140.19 878.07,170.30 890.16,184.50 C907.96,205.41 926.66,231.52 941.13,255.70 C956.76,281.81 975.68,323.79 985.88,355.00 C1015.25,444.82 1018.88,545.99 995.94,635.00 C974.37,718.64 931.90,794.99 871.60,858.52 C805.10,928.57 715.38,980.05 623.50,1000.88 C607.72,1004.46 584.21,1008.44 566.00,1010.61 C550.13,1012.51 489.28,1013.37 473.50,1011.92 ZM 561.50 941.64 C641.43,930.80 703.16,906.52 766.00,861.20 C796.92,838.89 822.91,813.68 850.58,779.14 C892.75,726.50 924.26,657.66 936.49,591.46 C944.21,549.68 945.64,502.38 940.49,460.00 C926.61,346.01 870.01,244.66 779.81,172.32 C768.03,162.87 739.85,144.04 725.50,136.03 C647.26,92.38 552.85,72.90 466.00,82.51 C380.60,91.95 299.67,126.09 235.34,179.81 C188.15,219.21 151.49,265.76 124.51,320.50 C100.06,370.12 86.61,419.21 82.03,475.50 C80.50,494.35 80.74,532.84 82.51,552.00 C90.35,636.66 122.38,715.42 176.65,783.50 C192.46,803.32 222.56,833.68 240.89,848.28 C305.10,899.44 379.62,931.08 459.00,940.91 C468.70,942.11 474.25,942.81 479.81,943.20 C487.96,943.77 496.15,943.66 517.50,943.45 C539.42,943.24 554.19,942.63 561.50,941.64 ZM 345.45 755.55 C344.10,754.20 343.00,752.27 343.00,751.26 C343.00,750.25 349.77,725.15 358.04,695.47 C366.30,665.78 373.32,639.47 373.62,637.00 C373.93,634.53 373.25,614.05 372.12,591.50 C370.98,568.95 369.56,539.64 368.95,526.36 L 367.85 502.23 L 376.32 485.58 L 384.80 468.94 L 380.84 466.92 L 376.88 464.90 L 373.43 467.93 C362.92,477.15 355.00,476.29 336.13,463.88 C326.80,457.74 325.03,452.04 328.94,440.68 L 330.88 435.05 L 328.19 433.16 C326.71,432.12 324.04,430.52 322.26,429.61 C315.56,426.19 314.61,419.50 320.44,416.85 C322.59,415.87 323.72,416.20 329.03,419.36 C332.39,421.36 335.51,423.00 335.95,423.00 C337.35,423.00 339.51,416.38 353.04,370.50 C364.94,330.17 364.40,331.52 371.04,324.84 C379.86,315.96 377.99,316.28 445.50,311.95 C463.10,310.82 480.20,310.19 483.50,310.56 C489.37,311.20 507.82,316.82 513.19,319.60 C517.13,321.63 517.54,321.46 520.45,316.49 C521.90,314.01 524.14,311.30 525.42,310.46 C527.42,309.15 527.68,308.33 527.26,304.58 C526.66,299.32 529.31,283.07 532.14,274.64 C533.27,271.26 536.24,264.23 538.74,259.00 C542.39,251.37 544.68,248.11 550.39,242.45 C554.75,238.12 559.82,234.26 563.50,232.45 C569.12,229.70 570.25,229.51 581.50,229.51 C593.11,229.50 593.71,229.61 600.15,232.84 C614.80,240.19 624.84,253.67 625.83,267.30 C626.26,273.33 626.40,273.57 632.50,279.47 C639.57,286.31 644.00,294.13 644.00,299.74 C644.00,303.29 642.02,307.52 639.56,309.23 C637.09,310.95 630.53,309.84 623.28,306.49 C619.10,304.56 615.59,303.10 615.47,303.24 C615.35,303.38 612.22,309.75 608.51,317.39 C602.63,329.49 600.84,332.21 594.63,338.49 C586.65,346.55 581.45,349.00 572.34,349.00 C567.81,349.00 566.81,349.36 565.42,351.48 C563.82,353.93 563.89,354.07 569.93,360.67 C576.48,367.82 582.12,378.00 584.51,387.00 C585.33,390.06 585.98,396.95 585.99,402.55 C586.00,411.92 585.54,414.25 579.07,437.55 C572.02,462.97 569.14,472.67 567.85,482.58 C566.81,490.52 566.79,498.59 566.44,515.00 C565.79,546.30 565.84,547.75 567.88,554.36 C570.12,561.61 570.59,569.45 569.10,574.66 L 568.19 577.81 L 594.35 595.40 C608.73,605.08 620.95,613.00 621.50,612.99 C622.05,612.98 626.10,607.08 630.50,599.89 C634.90,592.69 639.49,585.72 640.70,584.40 C643.61,581.23 647.49,581.35 652.52,584.77 C670.21,596.78 688.42,610.47 693.15,615.31 C704.20,626.64 710.32,643.17 710.43,662.00 C710.49,670.92 710.18,673.10 708.35,676.50 C705.48,681.83 702.25,684.70 695.50,687.92 L 689.89 690.59 L 695.14 692.97 C698.02,694.27 702.77,697.69 705.69,700.56 C710.99,705.78 711.01,705.78 715.25,704.80 C730.45,701.29 745.66,708.92 751.99,723.25 C753.94,727.66 761.02,734.41 774.63,744.85 C778.25,747.62 779.00,748.76 779.00,751.54 C779.00,752.78 779.21,753.79 778.91,754.60 C777.54,758.27 765.59,758.00 675.34,758.00 C617.12,758.00 575.13,757.62 573.70,757.08 C570.43,755.83 569.66,752.29 571.78,748.25 C574.98,742.16 587.27,725.89 590.59,723.36 C595.10,719.92 602.46,717.27 609.83,716.44 C613.22,716.06 616.00,715.38 616.00,714.93 C616.00,712.67 627.68,701.81 632.82,699.29 C637.96,696.76 639.44,696.51 648.50,696.62 C659.34,696.76 658.91,695.90 647.14,693.98 C637.79,692.45 633.13,689.96 612.65,675.53 C594.63,662.83 593.47,661.42 596.28,655.54 C597.13,653.75 601.71,646.10 606.46,638.53 C611.21,630.97 614.96,624.44 614.80,624.02 C614.63,623.60 602.85,615.44 588.60,605.88 C571.08,594.12 562.56,588.94 562.24,589.85 C561.21,592.81 555.70,597.94 552.38,599.04 C547.10,600.78 543.40,599.61 531.95,592.56 C526.21,589.04 521.39,586.28 521.23,586.44 C521.07,586.60 522.55,590.73 524.53,595.62 C526.50,600.50 530.63,611.03 533.70,619.00 L 539.29 633.50 L 538.13 681.50 C537.49,707.90 536.97,734.73 536.98,741.12 C537.00,751.37 536.76,753.04 534.93,755.37 L 532.85 758.00 L 481.91 758.00 L 479.45 755.55 C477.15,753.24 477.00,752.44 477.02,742.30 C477.03,736.36 476.50,712.38 475.84,689.00 L 474.65 646.50 L 464.02 624.50 C458.18,612.40 451.84,599.01 449.95,594.75 C448.05,590.49 446.16,587.00 445.75,587.00 C445.34,587.00 445.00,590.70 445.00,595.22 C445.00,599.74 444.53,612.00 443.95,622.47 L 442.90 641.50 L 424.32 697.50 C413.00,731.61 404.94,754.38 403.69,755.75 C401.67,757.98 401.37,758.00 374.78,758.00 L 347.91 758.00 ZM 540.73 535.56 C545.01,536.22 549.92,536.81 551.66,536.88 L 554.82 537.00 L 555.25 507.75 C555.64,481.44 555.90,477.77 557.84,471.26 C559.03,467.28 560.00,462.98 560.00,461.71 C560.00,460.44 560.40,458.97 560.90,458.45 C562.55,456.70 574.12,411.91 574.70,405.03 C575.72,392.91 571.36,380.48 562.52,370.25 C558.68,365.81 555.33,364.81 552.79,367.35 C549.84,370.30 534.00,373.09 534.00,370.66 C534.00,370.18 533.33,370.05 532.50,370.36 C531.67,370.68 531.00,370.54 531.00,370.05 C531.00,369.56 529.04,368.42 526.64,367.50 C521.64,365.59 515.91,358.84 513.51,352.03 C512.68,349.67 511.99,344.54 511.98,340.62 C511.97,333.25 511.03,330.25 509.11,331.43 C508.50,331.81 508.00,331.61 508.00,331.00 C508.00,330.39 507.55,330.16 507.00,330.50 C506.45,330.84 506.00,330.70 506.00,330.18 C506.00,329.67 504.78,329.25 503.29,329.25 C501.80,329.25 500.41,328.74 500.21,328.12 C500.00,327.50 499.42,327.24 498.91,327.55 C498.41,327.86 498.00,327.59 498.00,326.95 C498.00,326.31 497.33,326.05 496.50,326.36 C495.67,326.68 495.00,326.47 495.00,325.90 C495.00,325.32 494.12,325.14 493.00,325.50 C491.80,325.88 491.00,325.68 491.00,325.00 C491.00,324.32 490.20,324.12 489.00,324.50 C487.90,324.85 487.00,324.77 487.00,324.32 C487.00,323.13 469.88,323.54 437.00,325.50 C432.88,325.75 425.23,326.16 420.00,326.43 C414.77,326.69 407.12,327.16 403.00,327.48 C398.88,327.80 393.23,328.20 390.46,328.38 C387.68,328.56 384.31,329.28 382.96,329.98 C379.42,331.81 375.97,335.15 376.59,336.15 C376.88,336.62 376.61,337.00 376.00,337.00 C375.39,337.00 375.16,337.45 375.50,338.00 C375.84,338.55 375.61,339.00 375.00,339.00 C374.39,339.00 374.14,339.42 374.46,339.93 C374.77,340.44 374.54,341.16 373.95,341.53 C373.35,341.90 373.10,342.82 373.39,343.57 C373.68,344.32 373.47,345.21 372.94,345.54 C372.41,345.87 372.21,346.53 372.50,347.00 C372.79,347.47 372.59,348.13 372.06,348.46 C371.53,348.79 371.34,349.72 371.65,350.53 C371.96,351.34 371.73,352.00 371.14,352.00 C370.55,352.00 370.30,352.63 370.60,353.40 C370.89,354.17 370.65,355.10 370.05,355.47 C369.46,355.84 369.21,356.53 369.50,357.00 C369.79,357.47 369.59,358.13 369.06,358.46 C368.53,358.79 368.34,359.72 368.65,360.53 C368.96,361.34 368.67,362.00 368.00,362.00 C367.33,362.00 367.04,362.66 367.35,363.47 C367.66,364.28 367.47,365.21 366.94,365.54 C366.41,365.87 366.21,366.53 366.50,367.00 C366.79,367.47 366.59,368.13 366.06,368.46 C365.53,368.79 365.34,369.72 365.65,370.53 C365.96,371.34 365.67,372.00 365.00,372.00 C364.33,372.00 364.02,372.62 364.31,373.38 C364.61,374.14 364.34,375.26 363.72,375.88 C363.10,376.50 362.97,377.00 363.42,377.00 C363.87,377.00 363.68,377.69 362.98,378.52 C362.28,379.36 362.00,380.33 362.35,380.68 C362.70,381.03 362.48,381.92 361.87,382.66 C361.26,383.40 361.09,384.00 361.50,384.00 C361.91,384.00 361.68,384.67 361.00,385.50 C360.32,386.33 360.09,387.00 360.50,387.00 C360.91,387.00 360.70,387.66 360.04,388.46 C359.37,389.26 359.10,390.35 359.43,390.89 C359.76,391.42 359.57,392.15 359.00,392.50 C358.43,392.85 358.21,393.53 358.50,394.00 C358.79,394.47 358.57,395.15 358.00,395.50 C357.43,395.85 357.24,396.58 357.57,397.11 C357.90,397.65 357.63,398.74 356.96,399.54 C356.30,400.34 356.09,401.00 356.50,401.00 C356.91,401.00 356.68,401.67 356.00,402.50 C355.32,403.33 355.09,404.00 355.50,404.00 C355.91,404.00 355.68,404.67 355.00,405.50 C354.32,406.33 354.06,407.00 354.44,407.00 C354.81,407.00 354.77,407.56 354.34,408.25 C353.01,410.37 352.99,412.74 354.27,413.79 C355.87,415.09 375.91,421.43 376.51,420.82 C376.76,420.57 378.72,415.44 380.87,409.43 C394.60,370.86 398.18,362.45 401.19,361.65 C402.46,361.31 414.98,361.03 429.00,361.03 C457.34,361.03 458.98,361.33 460.09,366.81 C461.12,371.81 459.20,373.10 449.08,374.23 C446.96,374.47 444.15,379.55 426.23,415.50 C415.00,438.05 405.39,456.65 404.89,456.84 C404.40,457.02 404.21,457.53 404.48,457.97 C404.75,458.40 403.90,460.34 402.59,462.27 L 400.22 465.77 L 406.67 469.89 C410.22,472.15 413.51,474.00 413.98,474.00 C414.45,474.00 414.98,474.34 415.17,474.75 C415.63,475.80 450.79,499.00 451.91,499.00 C452.42,499.00 452.98,499.34 453.17,499.75 C453.35,500.16 460.25,504.94 468.50,510.37 C476.75,515.80 484.41,521.07 485.52,522.08 C486.62,523.08 488.00,523.59 488.57,523.20 C489.74,522.41 494.23,514.36 508.46,487.50 C511.09,482.55 514.03,477.15 515.00,475.50 C515.97,473.85 518.45,469.35 520.51,465.50 C529.30,449.07 532.46,443.19 535.29,438.00 C536.94,434.98 539.63,429.80 541.26,426.50 C545.67,417.61 547.78,415.00 550.57,415.00 C554.09,415.00 557.21,418.49 556.65,421.80 C556.00,425.66 554.94,428.00 553.83,428.00 C553.31,428.00 553.16,428.45 553.50,429.00 C553.84,429.55 553.70,430.00 553.19,430.00 C552.69,430.00 551.50,432.02 550.55,434.50 C549.61,436.98 548.48,439.00 548.05,439.00 C547.62,439.00 546.50,441.02 545.55,443.50 C544.61,445.98 543.40,448.00 542.86,448.00 C542.32,448.00 542.16,448.45 542.50,449.00 C542.84,449.55 542.61,450.00 542.00,450.00 C541.39,450.00 541.16,450.45 541.50,451.00 C541.84,451.55 541.70,452.00 541.19,452.00 C540.69,452.00 539.50,454.02 538.55,456.50 C537.61,458.98 536.40,461.00 535.86,461.00 C535.32,461.00 535.16,461.45 535.50,462.00 C535.84,462.55 535.61,463.00 535.00,463.00 C534.39,463.00 534.16,463.45 534.50,464.00 C534.84,464.55 534.69,465.00 534.17,465.00 C533.65,465.00 532.05,467.81 530.62,471.25 C528.14,477.18 528.04,478.15 528.56,490.00 C528.86,496.88 529.25,504.75 529.43,507.50 C529.61,510.25 530.02,516.95 530.33,522.40 C530.64,527.84 531.36,532.76 531.93,533.33 C532.50,533.90 536.46,534.91 540.73,535.56 ZM 357.88 745.25 C358.06,746.39 390.28,746.15 393.62,744.98 C396.39,744.02 396.96,742.70 404.27,720.71 C408.52,707.92 412.02,696.79 412.03,695.98 C412.05,695.16 412.94,692.70 414.00,690.50 C415.06,688.30 415.95,685.51 415.97,684.31 C415.98,683.10 416.34,681.91 416.75,681.65 C417.16,681.39 420.17,673.15 423.43,663.34 C426.68,653.53 429.72,644.60 430.18,643.50 C430.64,642.40 431.69,628.90 432.51,613.50 C434.68,573.18 435.80,560.77 437.44,559.13 C439.72,556.85 445.70,558.52 447.46,561.92 C448.26,563.47 448.64,565.03 448.29,565.37 C447.95,565.72 448.22,566.00 448.89,566.00 C449.57,566.00 449.84,566.45 449.50,567.00 C449.16,567.55 449.39,568.00 450.00,568.00 C450.61,568.00 450.84,568.45 450.50,569.00 C450.16,569.55 450.39,570.00 451.00,570.00 C451.61,570.00 451.84,570.45 451.50,571.00 C451.16,571.55 451.36,572.00 451.94,572.00 C452.52,572.00 452.91,572.34 452.80,572.75 C452.69,573.16 453.57,575.36 454.76,577.63 C455.94,579.90 456.63,582.03 456.29,582.38 C455.95,582.72 456.22,583.00 456.89,583.00 C457.57,583.00 457.84,583.45 457.50,584.00 C457.16,584.55 457.39,585.00 458.00,585.00 C458.61,585.00 458.84,585.45 458.50,586.00 C458.16,586.55 458.39,587.00 459.00,587.00 C459.61,587.00 459.84,587.45 459.50,588.00 C459.16,588.55 459.39,589.00 460.00,589.00 C460.61,589.00 460.84,589.45 460.50,590.00 C460.16,590.55 460.39,591.00 461.00,591.00 C461.61,591.00 461.84,591.45 461.50,592.00 C461.16,592.55 461.39,593.00 462.00,593.00 C462.61,593.00 462.84,593.45 462.50,594.00 C462.16,594.55 462.39,595.00 463.00,595.00 C463.61,595.00 463.84,595.45 463.50,596.00 C463.16,596.55 463.43,597.00 464.11,597.00 C464.78,597.00 465.07,597.26 464.75,597.58 C464.43,597.90 465.93,601.43 468.08,605.42 C470.24,609.41 471.70,612.97 471.33,613.34 C470.97,613.70 471.22,614.00 471.89,614.00 C472.57,614.00 472.84,614.45 472.50,615.00 C472.16,615.55 472.39,616.00 473.00,616.00 C473.61,616.00 473.84,616.45 473.50,617.00 C473.16,617.55 473.39,618.00 474.00,618.00 C474.61,618.00 474.84,618.45 474.50,619.00 C474.16,619.55 474.39,620.00 475.00,620.00 C475.61,620.00 475.84,620.45 475.50,621.00 C475.16,621.55 475.39,622.00 476.00,622.00 C476.61,622.00 476.84,622.45 476.50,623.00 C476.16,623.55 476.39,624.00 477.00,624.00 C477.61,624.00 477.84,624.45 477.50,625.00 C477.16,625.55 477.39,626.00 478.00,626.00 C478.61,626.00 478.84,626.45 478.50,627.00 C478.16,627.55 478.39,628.00 479.00,628.00 C479.61,628.00 479.84,628.45 479.50,629.00 C479.16,629.55 479.39,630.00 480.00,630.00 C480.61,630.00 480.84,630.45 480.50,631.00 C480.16,631.55 480.39,632.00 481.00,632.00 C481.61,632.00 481.84,632.45 481.50,633.00 C481.16,633.55 481.39,634.00 482.00,634.00 C482.61,634.00 482.84,634.45 482.50,635.00 C482.16,635.55 482.39,636.00 483.00,636.00 C483.61,636.00 483.84,636.45 483.50,637.00 C483.16,637.55 483.39,638.00 484.00,638.00 C484.61,638.00 484.84,638.45 484.50,639.00 C484.16,639.55 484.39,640.00 485.00,640.00 C485.61,640.00 485.86,640.41 485.55,640.91 C485.24,641.42 485.40,641.98 485.89,642.16 C486.40,642.35 487.40,665.50 488.15,694.00 L 489.50 745.50 L 506.20 745.50 C516.05,745.50 523.29,745.09 523.84,744.50 C524.36,743.94 525.32,719.42 526.02,688.91 L 527.27 634.31 L 523.22 623.91 C520.99,618.18 516.16,605.40 512.49,595.50 C508.82,585.60 505.22,576.15 504.49,574.50 C503.76,572.85 502.84,570.38 502.45,569.00 C502.06,567.62 500.94,564.70 499.96,562.50 C498.98,560.30 497.63,556.70 496.96,554.50 C496.29,552.30 494.65,548.14 493.30,545.25 C491.13,540.59 490.58,540.07 488.43,540.61 C486.89,540.99 486.00,540.79 486.00,540.04 C486.00,539.32 485.23,539.11 484.00,539.50 C482.77,539.89 482.00,539.68 482.00,538.96 C482.00,538.20 481.10,538.01 479.50,538.41 C478.04,538.78 477.00,538.61 477.00,538.00 C477.00,537.39 475.96,537.22 474.50,537.59 C472.94,537.98 472.00,537.79 472.00,537.09 C472.00,536.39 471.06,536.20 469.50,536.59 C467.90,536.99 467.00,536.80 467.00,536.04 C467.00,535.32 466.23,535.11 465.00,535.50 C463.77,535.89 463.00,535.68 463.00,534.96 C463.00,534.20 462.10,534.01 460.50,534.41 C458.94,534.80 458.00,534.61 458.00,533.91 C458.00,533.21 457.06,533.02 455.50,533.41 C453.94,533.80 453.00,533.61 453.00,532.91 C453.00,532.21 452.06,532.02 450.50,532.41 C448.98,532.79 448.00,532.61 448.00,531.95 C448.00,531.32 447.16,531.13 446.00,531.50 C444.77,531.89 444.00,531.68 444.00,530.96 C444.00,530.20 443.10,530.01 441.50,530.41 C440.04,530.78 439.00,530.61 439.00,530.00 C439.00,529.39 437.96,529.22 436.50,529.59 C434.90,529.99 434.00,529.80 434.00,529.04 C434.00,528.32 433.23,528.11 432.00,528.50 C430.90,528.85 430.00,528.75 430.00,528.28 C430.00,527.81 428.13,527.35 425.84,527.26 C423.55,527.17 421.38,526.61 421.01,526.01 C420.64,525.42 419.59,525.22 418.67,525.57 C417.67,525.96 417.00,525.72 417.00,525.00 C417.00,524.20 416.14,524.00 414.50,524.41 C412.98,524.79 412.00,524.61 412.00,523.95 C412.00,523.32 411.16,523.13 410.00,523.50 C408.77,523.89 408.00,523.68 408.00,522.96 C408.00,522.20 407.10,522.01 405.50,522.41 C403.98,522.79 403.00,522.61 403.00,521.95 C403.00,521.32 402.16,521.13 401.00,521.50 C399.80,521.88 399.00,521.68 399.00,521.00 C399.00,520.32 398.20,520.12 397.00,520.50 C395.77,520.89 395.00,520.68 395.00,519.96 C395.00,519.20 394.10,519.01 392.50,519.41 C390.98,519.79 390.00,519.61 390.00,518.95 C390.00,518.32 389.16,518.13 388.00,518.50 C386.90,518.85 386.00,518.70 386.00,518.17 C386.00,517.64 384.88,517.28 383.50,517.36 C382.88,517.39 382.39,517.23 382.02,517.38 C380.57,517.96 381.01,523.29 383.03,564.00 C385.51,613.81 386.22,642.74 385.00,643.50 C384.50,643.81 384.34,644.72 384.65,645.53 C384.96,646.34 384.67,647.00 384.00,647.00 C383.33,647.00 383.04,647.67 383.36,648.51 C383.68,649.34 383.43,651.25 382.81,652.76 C382.19,654.27 381.77,656.06 381.88,656.75 C382.00,657.44 381.63,658.00 381.08,658.00 C380.52,658.00 380.30,658.63 380.60,659.40 C380.89,660.17 380.68,661.08 380.11,661.43 C379.55,661.78 379.34,662.72 379.65,663.53 C379.96,664.34 379.67,665.00 379.00,665.00 C378.33,665.00 378.04,665.67 378.36,666.51 C378.68,667.34 378.43,669.25 377.81,670.76 C377.19,672.27 376.74,673.82 376.83,674.22 C376.91,674.61 376.46,676.18 375.83,677.72 C375.20,679.25 374.76,681.03 374.87,681.67 C374.97,682.32 374.61,683.12 374.07,683.46 C373.53,683.79 373.34,684.72 373.65,685.53 C373.96,686.34 373.73,687.00 373.14,687.00 C372.55,687.00 372.30,687.63 372.60,688.40 C372.89,689.17 372.65,690.10 372.05,690.47 C371.46,690.84 371.20,691.52 371.49,691.99 C371.78,692.45 371.49,694.11 370.85,695.67 C370.20,697.22 369.77,699.06 369.88,699.75 C370.00,700.44 369.57,701.00 368.94,701.00 C368.30,701.00 368.04,701.66 368.35,702.47 C368.66,703.28 368.50,704.19 368.00,704.50 C367.50,704.81 367.34,705.72 367.65,706.53 C367.96,707.34 367.67,708.00 367.00,708.00 C366.33,708.00 366.04,708.66 366.35,709.47 C366.66,710.28 366.50,711.19 366.00,711.50 C365.50,711.81 365.34,712.72 365.65,713.53 C365.96,714.34 365.78,715.00 365.26,715.00 C364.73,715.00 364.27,716.38 364.22,718.07 C364.17,719.76 363.65,721.71 363.07,722.41 C362.49,723.11 362.30,723.97 362.65,724.32 C363.00,724.67 362.72,725.64 362.02,726.48 C361.32,727.31 361.09,728.00 361.50,728.00 C361.91,728.00 361.74,728.60 361.13,729.34 C360.52,730.08 360.30,730.97 360.65,731.32 C361.00,731.67 360.72,732.64 360.02,733.48 C359.32,734.31 359.09,735.00 359.50,735.00 C359.91,735.00 359.74,735.60 359.13,736.34 C358.52,737.08 358.30,737.97 358.65,738.32 C359.00,738.67 358.88,739.53 358.38,740.23 C357.58,741.35 357.46,742.51 357.88,745.25 ZM 592.16 739.88 L 587.87 746.00 L 671.90 746.00 C738.73,746.00 755.83,745.74 755.43,744.75 C755.15,744.06 752.66,741.96 749.90,740.08 C745.96,737.40 744.26,735.34 742.06,730.58 C739.11,724.16 732.92,717.32 731.09,718.45 C730.49,718.82 730.00,718.66 730.00,718.10 C730.00,717.44 725.66,717.22 717.76,717.49 L 705.51 717.89 L 699.01 711.05 C692.33,704.02 688.70,701.45 686.98,702.51 C686.44,702.85 686.00,702.74 686.00,702.27 C686.00,701.03 674.26,700.77 673.50,701.99 C673.15,702.56 672.48,702.79 672.01,702.50 C670.93,701.84 666.00,704.02 666.00,705.16 C666.00,705.62 665.46,706.00 664.80,706.00 C664.15,706.00 662.38,707.18 660.87,708.62 C658.51,710.89 657.75,711.11 655.26,710.24 C646.66,707.24 633.87,710.13 630.21,715.89 C629.29,717.32 628.26,718.72 627.91,719.00 C627.56,719.28 626.96,720.49 626.58,721.71 C626.20,722.92 624.61,724.99 623.03,726.32 C620.64,728.33 619.39,728.65 615.33,728.26 C610.09,727.75 602.87,729.28 600.79,731.33 C600.08,732.04 598.82,732.87 597.98,733.19 C597.14,733.50 594.53,736.52 592.16,739.88 ZM 648.02 682.40 C656.14,684.58 669.16,684.38 678.47,681.95 C689.83,678.97 692.05,677.64 698.13,670.19 C699.37,668.66 698.76,655.06 697.12,647.75 C695.21,639.19 689.63,628.70 683.80,622.67 C680.77,619.55 677.78,617.00 677.15,617.00 C676.52,617.00 676.00,616.55 676.00,616.00 C676.00,615.45 675.53,615.00 674.96,615.00 C673.98,615.00 672.85,614.22 669.54,611.25 C668.77,610.56 667.66,610.00 667.07,610.00 C666.48,610.00 666.00,609.55 666.00,609.00 C666.00,608.45 665.31,608.00 664.47,608.00 C663.63,608.00 662.68,607.33 662.36,606.50 C662.05,605.67 661.16,605.00 660.39,605.00 C659.63,605.00 659.00,604.55 659.00,604.00 C659.00,603.45 658.33,603.00 657.50,603.00 C656.67,603.00 656.00,602.55 656.00,602.00 C656.00,601.45 655.31,601.00 654.47,601.00 C653.63,601.00 652.68,600.33 652.36,599.50 C652.05,598.67 651.20,598.00 650.48,598.00 C649.76,598.00 648.96,597.44 648.71,596.75 C648.13,595.17 644.55,598.70 643.55,601.83 C643.18,603.02 642.45,604.00 641.93,604.00 C641.42,604.00 641.00,604.67 641.00,605.50 C641.00,606.33 640.60,607.00 640.11,607.00 C639.62,607.00 638.93,608.12 638.59,609.50 C638.24,610.88 637.52,612.00 636.98,612.00 C636.44,612.00 636.00,612.67 636.00,613.50 C636.00,614.33 635.52,615.00 634.94,615.00 C634.36,615.00 634.16,615.45 634.50,616.00 C634.84,616.55 634.64,617.00 634.06,617.00 C631.90,617.00 633.09,621.01 635.75,622.72 C638.84,624.70 639.29,625.04 643.50,628.52 C645.15,629.88 646.78,631.00 647.11,631.00 C647.45,631.00 649.25,632.34 651.11,633.98 C652.98,635.63 654.84,636.98 655.26,636.98 C655.95,637.00 657.92,638.60 663.50,643.68 C666.20,646.13 666.02,649.03 663.00,651.75 C660.07,654.39 658.69,654.55 656.64,652.50 C655.82,651.67 654.85,651.00 654.50,651.00 C654.15,651.00 653.23,650.44 652.46,649.75 C649.43,647.03 648.06,646.00 647.47,646.00 C647.13,646.00 646.23,645.44 645.46,644.75 C642.15,641.78 641.02,641.00 640.04,641.00 C639.47,641.00 639.00,640.55 639.00,640.00 C639.00,639.45 638.42,639.00 637.72,639.00 C637.02,639.00 635.79,638.10 635.00,637.00 C634.21,635.90 633.05,635.00 632.43,635.00 C631.81,635.00 630.30,634.13 629.07,633.06 C626.70,631.00 624.00,631.29 624.00,633.61 C624.00,634.37 623.55,635.00 623.00,635.00 C622.45,635.00 622.00,635.67 622.00,636.50 C622.00,637.33 621.52,638.00 620.94,638.00 C620.36,638.00 620.16,638.45 620.50,639.00 C620.84,639.55 620.64,640.00 620.06,640.00 C619.48,640.00 619.00,640.67 619.00,641.50 C619.00,642.33 618.60,643.00 618.11,643.00 C617.62,643.00 616.93,644.12 616.59,645.50 C616.24,646.88 615.52,648.00 614.98,648.00 C614.44,648.00 614.00,648.67 614.00,649.50 C614.00,650.33 613.52,651.00 612.94,651.00 C612.36,651.00 612.16,651.45 612.50,652.00 C612.84,652.55 612.64,653.00 612.06,653.00 C611.48,653.00 611.00,653.64 611.00,654.42 C611.00,655.20 610.49,656.00 609.86,656.21 C607.52,656.99 611.35,660.59 621.86,667.47 C627.71,671.30 632.72,674.72 633.00,675.06 C634.42,676.80 643.22,681.10 648.02,682.40 ZM 563.93 336.63 C573.63,339.25 578.60,337.75 586.32,329.87 C590.84,325.26 593.45,321.22 598.06,311.72 C601.32,305.00 603.99,298.96 604.00,298.29 C604.00,296.96 594.59,291.24 582.80,285.41 L 575.10 281.61 L 570.92 286.36 C568.56,289.04 564.07,292.48 560.62,294.27 C555.29,297.04 553.49,297.45 546.62,297.47 L 538.75 297.50 L 539.28 305.20 C540.38,321.30 549.31,332.69 563.93,336.63 ZM 411.65 415.98 C423.39,392.65 433.00,373.43 433.00,373.28 C433.00,373.13 427.18,373.00 420.08,373.00 L 407.15 373.00 L 402.42 385.25 C399.81,391.99 394.64,405.18 390.92,414.57 C384.53,430.70 384.19,431.96 384.71,437.70 C385.02,441.16 384.72,446.01 384.00,448.99 C382.76,454.18 382.77,454.24 385.62,456.57 C387.21,457.87 388.91,458.81 389.40,458.66 C389.90,458.52 399.91,439.31 411.65,415.98 ZM 452.00 520.91 C456.67,521.96 460.92,522.71 461.44,522.59 C463.10,522.21 463.22,520.00 461.58,520.00 C460.71,520.00 460.00,519.55 460.00,519.00 C460.00,518.45 459.33,518.00 458.50,518.00 C457.67,518.00 457.00,517.52 457.00,516.94 C457.00,516.36 456.55,516.16 456.00,516.50 C455.45,516.84 455.00,516.64 455.00,516.06 C455.00,515.48 454.33,515.00 453.50,515.00 C452.67,515.00 452.00,514.55 452.00,514.00 C452.00,513.45 451.33,513.00 450.50,513.00 C449.67,513.00 449.00,512.55 449.00,512.00 C449.00,511.45 448.33,511.00 447.50,511.00 C446.67,511.00 446.00,510.55 446.00,510.00 C446.00,509.45 445.33,509.00 444.50,509.00 C443.67,509.00 443.00,508.55 443.00,508.00 C443.00,507.45 442.33,507.00 441.50,507.00 C440.67,507.00 440.00,506.55 440.00,506.00 C440.00,505.45 439.33,505.00 438.50,505.00 C437.67,505.00 437.00,504.55 437.00,504.00 C437.00,503.45 436.33,503.00 435.50,503.00 C434.67,503.00 434.00,502.55 434.00,502.00 C434.00,501.45 433.33,501.00 432.50,501.00 C431.67,501.00 431.00,500.55 431.00,500.00 C431.00,499.45 430.33,499.00 429.50,499.00 C428.67,499.00 428.00,498.55 428.00,498.00 C428.00,497.45 427.33,497.00 426.50,497.00 C425.67,497.00 425.00,496.55 425.00,496.00 C425.00,495.45 424.33,495.00 423.50,495.00 C422.67,495.00 422.00,494.55 422.00,494.00 C422.00,493.45 421.33,493.00 420.50,493.00 C419.67,493.00 419.00,492.60 419.00,492.11 C419.00,491.62 417.88,490.93 416.50,490.59 C415.12,490.24 414.00,489.52 414.00,488.98 C414.00,488.44 413.33,488.00 412.50,488.00 C411.67,488.00 411.00,487.55 411.00,487.00 C411.00,486.45 410.33,486.00 409.50,486.00 C408.67,486.00 408.00,485.55 408.00,485.00 C408.00,484.45 407.33,484.00 406.50,484.00 C405.67,484.00 405.00,483.52 405.00,482.94 C405.00,482.36 404.55,482.16 404.00,482.50 C403.45,482.84 403.00,482.64 403.00,482.06 C403.00,481.48 402.33,481.00 401.50,481.00 C400.67,481.00 400.00,480.55 400.00,480.00 C400.00,479.45 399.33,479.00 398.50,479.00 C397.67,479.00 397.00,478.55 397.00,478.00 C397.00,477.45 396.39,477.00 395.64,477.00 C394.88,477.00 392.80,480.38 391.00,484.50 C389.20,488.62 387.31,492.00 386.81,492.00 C386.30,492.00 386.16,492.45 386.50,493.00 C386.84,493.55 386.61,494.00 386.00,494.00 C385.39,494.00 385.16,494.45 385.50,495.00 C385.84,495.55 385.61,496.00 385.00,496.00 C384.39,496.00 384.14,496.41 384.45,496.91 C384.76,497.42 384.56,497.98 384.00,498.17 C382.47,498.68 381.97,502.75 383.32,503.76 C385.50,505.42 410.21,511.59 452.00,520.91 ZM 570.50 265.83 C578.20,269.77 585.17,272.98 586.00,272.97 C586.83,272.97 590.65,272.30 594.50,271.48 C598.35,270.67 604.36,270.00 607.86,270.00 L 614.22 270.00 L 613.53 266.28 C613.14,264.24 612.23,261.41 611.50,260.00 C609.99,257.09 601.19,248.00 599.87,248.00 C599.39,248.00 599.00,247.55 599.00,247.00 C599.00,246.45 598.36,246.00 597.57,246.00 C596.79,246.00 595.44,245.30 594.58,244.44 C593.72,243.58 592.56,243.15 592.01,243.50 C591.45,243.84 591.00,243.61 591.00,242.99 C591.00,242.32 590.19,242.12 589.00,242.50 C587.90,242.85 587.00,242.77 587.00,242.32 C587.00,241.40 575.32,241.35 574.40,242.27 C574.07,242.60 573.17,242.62 572.40,242.32 C571.63,242.03 571.00,242.25 571.00,242.81 C571.00,243.38 569.65,244.14 568.00,244.50 C566.35,244.86 565.00,245.57 565.00,246.08 C565.00,246.59 564.63,247.00 564.18,247.00 C563.73,247.00 561.32,248.95 558.83,251.34 C555.20,254.82 554.52,255.98 555.40,257.19 C556.00,258.01 562.80,261.90 570.50,265.83 ZM 349.53 458.43 C359.58,464.17 362.12,464.25 367.13,458.98 C371.77,454.10 374.23,446.52 373.80,438.39 L 373.50 432.65 L 361.50 428.85 C354.90,426.76 349.21,425.03 348.86,425.02 C347.77,424.98 339.81,444.03 339.28,447.92 C338.71,452.23 338.75,452.28 349.53,458.43 ZM 533.50 358.33 C539.53,361.52 546.38,359.75 551.77,353.61 C556.21,348.55 555.94,346.73 550.25,343.44 C542.19,338.78 538.19,335.10 534.32,328.84 C530.05,321.92 529.61,322.09 525.92,331.94 C521.31,344.25 523.90,353.26 533.50,358.33 ZM 518.59 520.78 C517.93,508.84 517.14,498.81 516.82,498.49 C516.51,498.17 514.82,500.67 513.06,504.03 C511.31,507.39 507.43,514.63 504.44,520.11 C501.45,525.59 499.00,530.47 499.00,530.97 C499.00,533.03 518.24,545.07 519.14,543.56 C519.49,542.98 519.24,532.73 518.59,520.78 ZM 555.58 569.13 C555.88,569.61 556.77,570.00 557.56,570.00 C559.70,570.00 559.40,562.58 556.97,555.38 L 554.94 549.37 L 544.23 548.06 C538.34,547.34 532.95,546.53 532.26,546.27 C531.40,545.94 531.01,546.85 531.03,549.14 C531.05,552.32 531.70,552.92 543.05,560.38 C549.64,564.71 555.28,568.65 555.58,569.13 ZM 535.52 581.87 C541.33,585.79 546.70,589.00 547.47,589.00 C550.15,589.00 554.95,582.48 553.34,581.03 C552.88,580.61 546.78,576.64 539.80,572.21 C531.59,567.00 528.57,564.92 527.19,565.71 C526.26,566.25 526.08,568.08 525.57,571.12 L 524.96 574.75 ZM 542.55 285.08 C544.45,288.15 558.12,283.55 561.19,278.81 C562.73,276.44 562.55,273.55 560.91,274.55 C560.41,274.86 560.00,274.61 560.00,274.00 C560.00,273.39 559.55,273.16 559.00,273.50 C558.45,273.84 558.00,273.61 558.00,273.00 C558.00,272.39 557.55,272.16 557.00,272.50 C556.45,272.84 556.00,272.61 556.00,272.00 C556.00,271.39 555.55,271.16 555.00,271.50 C554.45,271.84 554.00,271.57 554.00,270.89 C554.00,270.22 553.73,269.94 553.39,270.27 C553.06,270.61 551.85,270.01 550.71,268.94 C548.52,266.90 546.45,266.29 547.50,268.00 C547.84,268.55 547.61,269.00 547.00,269.00 C546.39,269.00 546.14,269.42 546.46,269.93 C546.77,270.44 546.57,271.15 546.00,271.50 C545.43,271.85 545.23,272.56 545.54,273.07 C545.86,273.58 545.66,274.00 545.09,274.00 C544.53,274.00 544.32,274.67 544.64,275.50 C544.95,276.33 544.69,277.00 544.05,277.00 C543.41,277.00 543.14,277.41 543.45,277.92 C543.76,278.42 543.56,280.03 543.00,281.50 C542.44,282.97 542.24,284.58 542.55,285.08 ZM 616.55 290.10 C625.03,294.64 628.00,295.76 628.00,294.40 C628.00,292.80 624.36,287.93 622.78,287.43 C621.80,287.12 621.00,286.45 621.00,285.93 C621.00,285.42 620.33,285.00 619.50,285.00 C618.67,285.00 618.00,284.65 618.00,284.21 C618.00,283.78 615.48,283.32 612.41,283.20 C608.51,283.03 606.94,283.31 607.21,284.13 C607.42,284.77 611.63,287.46 616.55,290.10 ZM 516.98 556.85 C517.00,556.09 507.99,550.65 507.55,551.16 C507.39,551.35 508.87,555.06 510.84,559.40 L 514.42 567.31 L 515.69 562.40 C516.39,559.71 516.97,557.21 516.98,556.85 Z" fill="rgba(0,0,0,1)"/>
<path d="M 540.73 535.56 C536.46,534.91 532.50,533.90 531.93,533.33 C531.36,532.76 530.64,527.84 530.33,522.40 C530.02,516.95 529.61,510.25 529.43,507.50 C529.25,504.75 528.86,496.88 528.56,490.00 C528.04,478.15 528.14,477.18 530.62,471.25 C532.05,467.81 533.65,465.00 534.17,465.00 C534.69,465.00 534.84,464.55 534.50,464.00 C534.16,463.45 534.39,463.00 535.00,463.00 C535.61,463.00 535.84,462.55 535.50,462.00 C535.16,461.45 535.32,461.00 535.86,461.00 C536.40,461.00 537.61,458.98 538.55,456.50 C539.50,454.02 540.69,452.00 541.19,452.00 C541.70,452.00 541.84,451.55 541.50,451.00 C541.16,450.45 541.39,450.00 542.00,450.00 C542.61,450.00 542.84,449.55 542.50,449.00 C542.16,448.45 542.32,448.00 542.86,448.00 C543.40,448.00 544.61,445.98 545.55,443.50 C546.50,441.02 547.62,439.00 548.05,439.00 C548.48,439.00 549.61,436.98 550.55,434.50 C551.50,432.02 552.69,430.00 553.19,430.00 C553.70,430.00 553.84,429.55 553.50,429.00 C553.16,428.45 553.31,428.00 553.83,428.00 C554.94,428.00 556.00,425.66 556.65,421.80 C557.21,418.49 554.09,415.00 550.57,415.00 C547.78,415.00 545.67,417.61 541.26,426.50 C539.63,429.80 536.94,434.98 535.29,438.00 C532.46,443.19 529.30,449.07 520.51,465.50 C518.45,469.35 515.97,473.85 515.00,475.50 C514.03,477.15 511.09,482.55 508.46,487.50 C494.23,514.36 489.74,522.41 488.57,523.20 C488.00,523.59 486.62,523.08 485.52,522.08 C484.41,521.07 476.75,515.80 468.50,510.37 C460.25,504.94 453.35,500.16 453.17,499.75 C452.98,499.34 452.42,499.00 451.91,499.00 C450.79,499.00 415.63,475.80 415.17,474.75 C414.98,474.34 414.45,474.00 413.98,474.00 C413.51,474.00 410.22,472.15 406.67,469.89 L 400.22 465.77 L 402.59 462.27 C403.90,460.34 404.75,458.40 404.48,457.97 C404.21,457.53 404.40,457.02 404.89,456.84 C405.39,456.65 415.00,438.05 426.23,415.50 C444.15,379.55 446.96,374.47 449.08,374.23 C459.20,373.10 461.12,371.81 460.09,366.81 C458.98,361.33 457.34,361.03 429.00,361.03 C414.98,361.03 402.46,361.31 401.19,361.65 C398.18,362.45 394.60,370.86 380.87,409.43 C378.72,415.44 376.76,420.57 376.51,420.82 C375.91,421.43 355.87,415.09 354.27,413.79 C352.99,412.74 353.01,410.37 354.34,408.25 C354.77,407.56 354.81,407.00 354.44,407.00 C354.06,407.00 354.32,406.33 355.00,405.50 C355.68,404.67 355.91,404.00 355.50,404.00 C355.09,404.00 355.32,403.33 356.00,402.50 C356.68,401.67 356.91,401.00 356.50,401.00 C356.09,401.00 356.30,400.34 356.96,399.54 C357.63,398.74 357.90,397.65 357.57,397.11 C357.24,396.58 357.43,395.85 358.00,395.50 C358.57,395.15 358.79,394.47 358.50,394.00 C358.21,393.53 358.43,392.85 359.00,392.50 C359.57,392.15 359.76,391.42 359.43,390.89 C359.10,390.35 359.37,389.26 360.04,388.46 C360.70,387.66 360.91,387.00 360.50,387.00 C360.09,387.00 360.32,386.33 361.00,385.50 C361.68,384.67 361.91,384.00 361.50,384.00 C361.09,384.00 361.26,383.40 361.87,382.66 C362.48,381.92 362.70,381.03 362.35,380.68 C362.00,380.33 362.28,379.36 362.98,378.52 C363.68,377.69 363.87,377.00 363.42,377.00 C362.97,377.00 363.10,376.50 363.72,375.88 C364.34,375.26 364.61,374.14 364.31,373.38 C364.02,372.62 364.33,372.00 365.00,372.00 C365.67,372.00 365.96,371.34 365.65,370.53 C365.34,369.72 365.53,368.79 366.06,368.46 C366.59,368.13 366.79,367.47 366.50,367.00 C366.21,366.53 366.41,365.87 366.94,365.54 C367.47,365.21 367.66,364.28 367.35,363.47 C367.04,362.66 367.33,362.00 368.00,362.00 C368.67,362.00 368.96,361.34 368.65,360.53 C368.34,359.72 368.53,358.79 369.06,358.46 C369.59,358.13 369.79,357.47 369.50,357.00 C369.21,356.53 369.46,355.84 370.05,355.47 C370.65,355.10 370.89,354.17 370.60,353.40 C370.30,352.63 370.55,352.00 371.14,352.00 C371.73,352.00 371.96,351.34 371.65,350.53 C371.34,349.72 371.53,348.79 372.06,348.46 C372.59,348.13 372.79,347.47 372.50,347.00 C372.21,346.53 372.41,345.87 372.94,345.54 C373.47,345.21 373.68,344.32 373.39,343.57 C373.10,342.82 373.35,341.90 373.95,341.53 C374.54,341.16 374.77,340.44 374.46,339.93 C374.14,339.42 374.39,339.00 375.00,339.00 C375.61,339.00 375.84,338.55 375.50,338.00 C375.16,337.45 375.39,337.00 376.00,337.00 C376.61,337.00 376.88,336.62 376.59,336.15 C375.97,335.15 379.42,331.81 382.96,329.98 C384.31,329.28 387.68,328.56 390.46,328.38 C393.23,328.20 398.88,327.80 403.00,327.48 C407.12,327.16 414.77,326.69 420.00,326.43 C425.23,326.16 432.88,325.75 437.00,325.50 C469.88,323.54 487.00,323.13 487.00,324.32 C487.00,324.77 487.90,324.85 489.00,324.50 C490.20,324.12 491.00,324.32 491.00,325.00 C491.00,325.68 491.80,325.88 493.00,325.50 C494.12,325.14 495.00,325.32 495.00,325.90 C495.00,326.47 495.67,326.68 496.50,326.36 C497.33,326.05 498.00,326.31 498.00,326.95 C498.00,327.59 498.41,327.86 498.91,327.55 C499.42,327.24 500.00,327.50 500.21,328.12 C500.41,328.74 501.80,329.25 503.29,329.25 C504.78,329.25 506.00,329.67 506.00,330.18 C506.00,330.70 506.45,330.84 507.00,330.50 C507.55,330.16 508.00,330.39 508.00,331.00 C508.00,331.61 508.50,331.81 509.11,331.43 C511.03,330.25 511.97,333.25 511.98,340.62 C511.99,344.54 512.68,349.67 513.51,352.03 C515.91,358.84 521.64,365.59 526.64,367.50 C529.04,368.42 531.00,369.56 531.00,370.05 C531.00,370.54 531.67,370.68 532.50,370.36 C533.33,370.05 534.00,370.18 534.00,370.66 C534.00,373.09 549.84,370.30 552.79,367.35 C555.33,364.81 558.68,365.81 562.52,370.25 C571.36,380.48 575.72,392.91 574.70,405.03 C574.12,411.91 562.55,456.70 560.90,458.45 C560.40,458.97 560.00,460.44 560.00,461.71 C560.00,462.98 559.03,467.28 557.84,471.26 C555.90,477.77 555.64,481.44 555.25,507.75 L 554.82 537.00 L 551.66 536.88 C549.92,536.81 545.01,536.22 540.73,535.56 ZM 648.02 682.40 C643.22,681.10 634.42,676.80 633.00,675.06 C632.72,674.72 627.71,671.30 621.86,667.47 C611.35,660.59 607.52,656.99 609.86,656.21 C610.49,656.00 611.00,655.20 611.00,654.42 C611.00,653.64 611.48,653.00 612.06,653.00 C612.64,653.00 612.84,652.55 612.50,652.00 C612.16,651.45 612.36,651.00 612.94,651.00 C613.52,651.00 614.00,650.33 614.00,649.50 C614.00,648.67 614.44,648.00 614.98,648.00 C615.52,648.00 616.24,646.88 616.59,645.50 C616.93,644.12 617.62,643.00 618.11,643.00 C618.60,643.00 619.00,642.33 619.00,641.50 C619.00,640.67 619.48,640.00 620.06,640.00 C620.64,640.00 620.84,639.55 620.50,639.00 C620.16,638.45 620.36,638.00 620.94,638.00 C621.52,638.00 622.00,637.33 622.00,636.50 C622.00,635.67 622.45,635.00 623.00,635.00 C623.55,635.00 624.00,634.37 624.00,633.61 C624.00,631.29 626.70,631.00 629.07,633.06 C630.30,634.13 631.81,635.00 632.43,635.00 C633.05,635.00 634.21,635.90 635.00,637.00 C635.79,638.10 637.02,639.00 637.72,639.00 C638.42,639.00 639.00,639.45 639.00,640.00 C639.00,640.55 639.47,641.00 640.04,641.00 C641.02,641.00 642.15,641.78 645.46,644.75 C646.23,645.44 647.13,646.00 647.47,646.00 C648.06,646.00 649.43,647.03 652.46,649.75 C653.23,650.44 654.15,651.00 654.50,651.00 C654.85,651.00 655.82,651.67 656.64,652.50 C658.69,654.55 660.07,654.39 663.00,651.75 C666.02,649.03 666.20,646.13 663.50,643.68 C657.92,638.60 655.95,637.00 655.26,636.98 C654.84,636.98 652.98,635.63 651.11,633.98 C649.25,632.34 647.45,631.00 647.11,631.00 C646.78,631.00 645.15,629.88 643.50,628.52 C639.29,625.04 638.84,624.70 635.75,622.72 C633.09,621.01 631.90,617.00 634.06,617.00 C634.64,617.00 634.84,616.55 634.50,616.00 C634.16,615.45 634.36,615.00 634.94,615.00 C635.52,615.00 636.00,614.33 636.00,613.50 C636.00,612.67 636.44,612.00 636.98,612.00 C637.52,612.00 638.24,610.88 638.59,609.50 C638.93,608.12 639.62,607.00 640.11,607.00 C640.60,607.00 641.00,606.33 641.00,605.50 C641.00,604.67 641.42,604.00 641.93,604.00 C642.45,604.00 643.18,603.02 643.55,601.83 C644.55,598.70 648.13,595.17 648.71,596.75 C648.96,597.44 649.76,598.00 650.48,598.00 C651.20,598.00 652.05,598.67 652.36,599.50 C652.68,600.33 653.63,601.00 654.47,601.00 C655.31,601.00 656.00,601.45 656.00,602.00 C656.00,602.55 656.67,603.00 657.50,603.00 C658.33,603.00 659.00,603.45 659.00,604.00 C659.00,604.55 659.63,605.00 660.39,605.00 C661.16,605.00 662.05,605.67 662.36,606.50 C662.68,607.33 663.63,608.00 664.47,608.00 C665.31,608.00 666.00,608.45 666.00,609.00 C666.00,609.55 666.48,610.00 667.07,610.00 C667.66,610.00 668.77,610.56 669.54,611.25 C672.85,614.22 673.98,615.00 674.96,615.00 C675.53,615.00 676.00,615.45 676.00,616.00 C676.00,616.55 676.52,617.00 677.15,617.00 C677.78,617.00 680.77,619.55 683.80,622.67 C689.63,628.70 695.21,639.19 697.12,647.75 C698.76,655.06 699.37,668.66 698.13,670.19 C692.05,677.64 689.83,678.97 678.47,681.95 C669.16,684.38 656.14,684.58 648.02,682.40 ZM 452.00 520.91 C410.21,511.59 385.50,505.42 383.32,503.76 C381.97,502.75 382.47,498.68 384.00,498.17 C384.56,497.98 384.76,497.42 384.45,496.91 C384.14,496.41 384.39,496.00 385.00,496.00 C385.61,496.00 385.84,495.55 385.50,495.00 C385.16,494.45 385.39,494.00 386.00,494.00 C386.61,494.00 386.84,493.55 386.50,493.00 C386.16,492.45 386.30,492.00 386.81,492.00 C387.31,492.00 389.20,488.62 391.00,484.50 C392.80,480.38 394.88,477.00 395.64,477.00 C396.39,477.00 397.00,477.45 397.00,478.00 C397.00,478.55 397.67,479.00 398.50,479.00 C399.33,479.00 400.00,479.45 400.00,480.00 C400.00,480.55 400.67,481.00 401.50,481.00 C402.33,481.00 403.00,481.48 403.00,482.06 C403.00,482.64 403.45,482.84 404.00,482.50 C404.55,482.16 405.00,482.36 405.00,482.94 C405.00,483.52 405.67,484.00 406.50,484.00 C407.33,484.00 408.00,484.45 408.00,485.00 C408.00,485.55 408.67,486.00 409.50,486.00 C410.33,486.00 411.00,486.45 411.00,487.00 C411.00,487.55 411.67,488.00 412.50,488.00 C413.33,488.00 414.00,488.44 414.00,488.98 C414.00,489.52 415.12,490.24 416.50,490.59 C417.88,490.93 419.00,491.62 419.00,492.11 C419.00,492.60 419.67,493.00 420.50,493.00 C421.33,493.00 422.00,493.45 422.00,494.00 C422.00,494.55 422.67,495.00 423.50,495.00 C424.33,495.00 425.00,495.45 425.00,496.00 C425.00,496.55 425.67,497.00 426.50,497.00 C427.33,497.00 428.00,497.45 428.00,498.00 C428.00,498.55 428.67,499.00 429.50,499.00 C430.33,499.00 431.00,499.45 431.00,500.00 C431.00,500.55 431.67,501.00 432.50,501.00 C433.33,501.00 434.00,501.45 434.00,502.00 C434.00,502.55 434.67,503.00 435.50,503.00 C436.33,503.00 437.00,503.45 437.00,504.00 C437.00,504.55 437.67,505.00 438.50,505.00 C439.33,505.00 440.00,505.45 440.00,506.00 C440.00,506.55 440.67,507.00 441.50,507.00 C442.33,507.00 443.00,507.45 443.00,508.00 C443.00,508.55 443.67,509.00 444.50,509.00 C445.33,509.00 446.00,509.45 446.00,510.00 C446.00,510.55 446.67,511.00 447.50,511.00 C448.33,511.00 449.00,511.45 449.00,512.00 C449.00,512.55 449.67,513.00 450.50,513.00 C451.33,513.00 452.00,513.45 452.00,514.00 C452.00,514.55 452.67,515.00 453.50,515.00 C454.33,515.00 455.00,515.48 455.00,516.06 C455.00,516.64 455.45,516.84 456.00,516.50 C456.55,516.16 457.00,516.36 457.00,516.94 C457.00,517.52 457.67,518.00 458.50,518.00 C459.33,518.00 460.00,518.45 460.00,519.00 C460.00,519.55 460.71,520.00 461.58,520.00 C463.22,520.00 463.10,522.21 461.44,522.59 C460.92,522.71 456.67,521.96 452.00,520.91 Z" fill="rgba(139,166,179,1)"/>
<path d="M 357.88 745.25 C357.46,742.51 357.58,741.35 358.38,740.23 C358.88,739.53 359.00,738.67 358.65,738.32 C358.30,737.97 358.52,737.08 359.13,736.34 C359.74,735.60 359.91,735.00 359.50,735.00 C359.09,735.00 359.32,734.31 360.02,733.48 C360.72,732.64 361.00,731.67 360.65,731.32 C360.30,730.97 360.52,730.08 361.13,729.34 C361.74,728.60 361.91,728.00 361.50,728.00 C361.09,728.00 361.32,727.31 362.02,726.48 C362.72,725.64 363.00,724.67 362.65,724.32 C362.30,723.97 362.49,723.11 363.07,722.41 C363.65,721.71 364.17,719.76 364.22,718.07 C364.27,716.38 364.73,715.00 365.26,715.00 C365.78,715.00 365.96,714.34 365.65,713.53 C365.34,712.72 365.50,711.81 366.00,711.50 C366.50,711.19 366.66,710.28 366.35,709.47 C366.04,708.66 366.33,708.00 367.00,708.00 C367.67,708.00 367.96,707.34 367.65,706.53 C367.34,705.72 367.50,704.81 368.00,704.50 C368.50,704.19 368.66,703.28 368.35,702.47 C368.04,701.66 368.30,701.00 368.94,701.00 C369.57,701.00 370.00,700.44 369.88,699.75 C369.77,699.06 370.20,697.22 370.85,695.67 C371.49,694.11 371.78,692.45 371.49,691.99 C371.20,691.52 371.46,690.84 372.05,690.47 C372.65,690.10 372.89,689.17 372.60,688.40 C372.30,687.63 372.55,687.00 373.14,687.00 C373.73,687.00 373.96,686.34 373.65,685.53 C373.34,684.72 373.53,683.79 374.07,683.46 C374.61,683.12 374.97,682.32 374.87,681.67 C374.76,681.03 375.20,679.25 375.83,677.72 C376.46,676.18 376.91,674.61 376.83,674.22 C376.74,673.82 377.19,672.27 377.81,670.76 C378.43,669.25 378.68,667.34 378.36,666.51 C378.04,665.67 378.33,665.00 379.00,665.00 C379.67,665.00 379.96,664.34 379.65,663.53 C379.34,662.72 379.55,661.78 380.11,661.43 C380.68,661.08 380.89,660.17 380.60,659.40 C380.30,658.63 380.52,658.00 381.08,658.00 C381.63,658.00 382.00,657.44 381.88,656.75 C381.77,656.06 382.19,654.27 382.81,652.76 C383.43,651.25 383.68,649.34 383.36,648.51 C383.04,647.67 383.33,647.00 384.00,647.00 C384.67,647.00 384.96,646.34 384.65,645.53 C384.34,644.72 384.50,643.81 385.00,643.50 C386.22,642.74 385.51,613.81 383.03,564.00 C381.01,523.29 380.57,517.96 382.02,517.38 C382.39,517.23 382.88,517.39 383.50,517.36 C384.88,517.28 386.00,517.64 386.00,518.17 C386.00,518.70 386.90,518.85 388.00,518.50 C389.16,518.13 390.00,518.32 390.00,518.95 C390.00,519.61 390.98,519.79 392.50,519.41 C394.10,519.01 395.00,519.20 395.00,519.96 C395.00,520.68 395.77,520.89 397.00,520.50 C398.20,520.12 399.00,520.32 399.00,521.00 C399.00,521.68 399.80,521.88 401.00,521.50 C402.16,521.13 403.00,521.32 403.00,521.95 C403.00,522.61 403.98,522.79 405.50,522.41 C407.10,522.01 408.00,522.20 408.00,522.96 C408.00,523.68 408.77,523.89 410.00,523.50 C411.16,523.13 412.00,523.32 412.00,523.95 C412.00,524.61 412.98,524.79 414.50,524.41 C416.14,524.00 417.00,524.20 417.00,525.00 C417.00,525.72 417.67,525.96 418.67,525.57 C419.59,525.22 420.64,525.42 421.01,526.01 C421.38,526.61 423.55,527.17 425.84,527.26 C428.13,527.35 430.00,527.81 430.00,528.28 C430.00,528.75 430.90,528.85 432.00,528.50 C433.23,528.11 434.00,528.32 434.00,529.04 C434.00,529.80 434.90,529.99 436.50,529.59 C437.96,529.22 439.00,529.39 439.00,530.00 C439.00,530.61 440.04,530.78 441.50,530.41 C443.10,530.01 444.00,530.20 444.00,530.96 C444.00,531.68 444.77,531.89 446.00,531.50 C447.16,531.13 448.00,531.32 448.00,531.95 C448.00,532.61 448.98,532.79 450.50,532.41 C452.06,532.02 453.00,532.21 453.00,532.91 C453.00,533.61 453.94,533.80 455.50,533.41 C457.06,533.02 458.00,533.21 458.00,533.91 C458.00,534.61 458.94,534.80 460.50,534.41 C462.10,534.01 463.00,534.20 463.00,534.96 C463.00,535.68 463.77,535.89 465.00,535.50 C466.23,535.11 467.00,535.32 467.00,536.04 C467.00,536.80 467.90,536.99 469.50,536.59 C471.06,536.20 472.00,536.39 472.00,537.09 C472.00,537.79 472.94,537.98 474.50,537.59 C475.96,537.22 477.00,537.39 477.00,538.00 C477.00,538.61 478.04,538.78 479.50,538.41 C481.10,538.01 482.00,538.20 482.00,538.96 C482.00,539.68 482.77,539.89 484.00,539.50 C485.23,539.11 486.00,539.32 486.00,540.04 C486.00,540.79 486.89,540.99 488.43,540.61 C490.58,540.07 491.13,540.59 493.30,545.25 C494.65,548.14 496.29,552.30 496.96,554.50 C497.63,556.70 498.98,560.30 499.96,562.50 C500.94,564.70 502.06,567.62 502.45,569.00 C502.84,570.38 503.76,572.85 504.49,574.50 C505.22,576.15 508.82,585.60 512.49,595.50 C516.16,605.40 520.99,618.18 523.22,623.91 L 527.27 634.31 L 526.02 688.91 C525.32,719.42 524.36,743.94 523.84,744.50 C523.29,745.09 516.05,745.50 506.20,745.50 L 489.50 745.50 L 488.15 694.00 C487.40,665.50 486.40,642.35 485.89,642.16 C485.40,641.98 485.24,641.42 485.55,640.91 C485.86,640.41 485.61,640.00 485.00,640.00 C484.39,640.00 484.16,639.55 484.50,639.00 C484.84,638.45 484.61,638.00 484.00,638.00 C483.39,638.00 483.16,637.55 483.50,637.00 C483.84,636.45 483.61,636.00 483.00,636.00 C482.39,636.00 482.16,635.55 482.50,635.00 C482.84,634.45 482.61,634.00 482.00,634.00 C481.39,634.00 481.16,633.55 481.50,633.00 C481.84,632.45 481.61,632.00 481.00,632.00 C480.39,632.00 480.16,631.55 480.50,631.00 C480.84,630.45 480.61,630.00 480.00,630.00 C479.39,630.00 479.16,629.55 479.50,629.00 C479.84,628.45 479.61,628.00 479.00,628.00 C478.39,628.00 478.16,627.55 478.50,627.00 C478.84,626.45 478.61,626.00 478.00,626.00 C477.39,626.00 477.16,625.55 477.50,625.00 C477.84,624.45 477.61,624.00 477.00,624.00 C476.39,624.00 476.16,623.55 476.50,623.00 C476.84,622.45 476.61,622.00 476.00,622.00 C475.39,622.00 475.16,621.55 475.50,621.00 C475.84,620.45 475.61,620.00 475.00,620.00 C474.39,620.00 474.16,619.55 474.50,619.00 C474.84,618.45 474.61,618.00 474.00,618.00 C473.39,618.00 473.16,617.55 473.50,617.00 C473.84,616.45 473.61,616.00 473.00,616.00 C472.39,616.00 472.16,615.55 472.50,615.00 C472.84,614.45 472.57,614.00 471.89,614.00 C471.22,614.00 470.97,613.70 471.33,613.34 C471.70,612.97 470.24,609.41 468.08,605.42 C465.93,601.43 464.43,597.90 464.75,597.58 C465.07,597.26 464.78,597.00 464.11,597.00 C463.43,597.00 463.16,596.55 463.50,596.00 C463.84,595.45 463.61,595.00 463.00,595.00 C462.39,595.00 462.16,594.55 462.50,594.00 C462.84,593.45 462.61,593.00 462.00,593.00 C461.39,593.00 461.16,592.55 461.50,592.00 C461.84,591.45 461.61,591.00 461.00,591.00 C460.39,591.00 460.16,590.55 460.50,590.00 C460.84,589.45 460.61,589.00 460.00,589.00 C459.39,589.00 459.16,588.55 459.50,588.00 C459.84,587.45 459.61,587.00 459.00,587.00 C458.39,587.00 458.16,586.55 458.50,586.00 C458.84,585.45 458.61,585.00 458.00,585.00 C457.39,585.00 457.16,584.55 457.50,584.00 C457.84,583.45 457.57,583.00 456.89,583.00 C456.22,583.00 455.95,582.72 456.29,582.38 C456.63,582.03 455.94,579.90 454.76,577.63 C453.57,575.36 452.69,573.16 452.80,572.75 C452.91,572.34 452.52,572.00 451.94,572.00 C451.36,572.00 451.16,571.55 451.50,571.00 C451.84,570.45 451.61,570.00 451.00,570.00 C450.39,570.00 450.16,569.55 450.50,569.00 C450.84,568.45 450.61,568.00 450.00,568.00 C449.39,568.00 449.16,567.55 449.50,567.00 C449.84,566.45 449.57,566.00 448.89,566.00 C448.22,566.00 447.95,565.72 448.29,565.37 C448.64,565.03 448.26,563.47 447.46,561.92 C445.70,558.52 439.72,556.85 437.44,559.13 C435.80,560.77 434.68,573.18 432.51,613.50 C431.69,628.90 430.64,642.40 430.18,643.50 C429.72,644.60 426.68,653.53 423.43,663.34 C420.17,673.15 417.16,681.39 416.75,681.65 C416.34,681.91 415.98,683.10 415.97,684.31 C415.95,685.51 415.06,688.30 414.00,690.50 C412.94,692.70 412.05,695.16 412.03,695.98 C412.02,696.79 408.52,707.92 404.27,720.71 C396.96,742.70 396.39,744.02 393.62,744.98 C390.28,746.15 358.06,746.39 357.88,745.25 ZM 570.50 265.83 C562.80,261.90 556.00,258.01 555.40,257.19 C554.52,255.98 555.20,254.82 558.83,251.34 C561.32,248.95 563.73,247.00 564.18,247.00 C564.63,247.00 565.00,246.59 565.00,246.08 C565.00,245.57 566.35,244.86 568.00,244.50 C569.65,244.14 571.00,243.38 571.00,242.81 C571.00,242.25 571.63,242.03 572.40,242.32 C573.17,242.62 574.07,242.60 574.40,242.27 C575.32,241.35 587.00,241.40 587.00,242.32 C587.00,242.77 587.90,242.85 589.00,242.50 C590.19,242.12 591.00,242.32 591.00,242.99 C591.00,243.61 591.45,243.84 592.01,243.50 C592.56,243.15 593.72,243.58 594.58,244.44 C595.44,245.30 596.79,246.00 597.57,246.00 C598.36,246.00 599.00,246.45 599.00,247.00 C599.00,247.55 599.39,248.00 599.87,248.00 C601.19,248.00 609.99,257.09 611.50,260.00 C612.23,261.41 613.14,264.24 613.53,266.28 L 614.22 270.00 L 607.86 270.00 C604.36,270.00 598.35,270.67 594.50,271.48 C590.65,272.30 586.83,272.97 586.00,272.97 C585.17,272.98 578.20,269.77 570.50,265.83 ZM 542.55 285.08 C542.24,284.58 542.44,282.97 543.00,281.50 C543.56,280.03 543.76,278.42 543.45,277.92 C543.14,277.41 543.41,277.00 544.05,277.00 C544.69,277.00 544.95,276.33 544.64,275.50 C544.32,274.67 544.53,274.00 545.09,274.00 C545.66,274.00 545.86,273.58 545.54,273.07 C545.23,272.56 545.43,271.85 546.00,271.50 C546.57,271.15 546.77,270.44 546.46,269.93 C546.14,269.42 546.39,269.00 547.00,269.00 C547.61,269.00 547.84,268.55 547.50,268.00 C546.45,266.29 548.52,266.90 550.71,268.94 C551.85,270.01 553.06,270.61 553.39,270.27 C553.73,269.94 554.00,270.22 554.00,270.89 C554.00,271.57 554.45,271.84 555.00,271.50 C555.55,271.16 556.00,271.39 556.00,272.00 C556.00,272.61 556.45,272.84 557.00,272.50 C557.55,272.16 558.00,272.39 558.00,273.00 C558.00,273.61 558.45,273.84 559.00,273.50 C559.55,273.16 560.00,273.39 560.00,274.00 C560.00,274.61 560.41,274.86 560.91,274.55 C562.55,273.55 562.73,276.44 561.19,278.81 C558.12,283.55 544.45,288.15 542.55,285.08 ZM 616.55 290.10 C611.63,287.46 607.42,284.77 607.21,284.13 C606.94,283.31 608.51,283.03 612.41,283.20 C615.48,283.32 618.00,283.78 618.00,284.21 C618.00,284.65 618.67,285.00 619.50,285.00 C620.33,285.00 621.00,285.42 621.00,285.93 C621.00,286.45 621.80,287.12 622.78,287.43 C624.36,287.93 628.00,292.80 628.00,294.40 C628.00,295.76 625.03,294.64 616.55,290.10 Z" fill="rgba(147,113,71,1)"/>
<path d="M 592.16 739.88 C594.53,736.52 597.14,733.50 597.98,733.19 C598.82,732.87 600.08,732.04 600.79,731.33 C602.87,729.28 610.09,727.75 615.33,728.26 C619.39,728.65 620.64,728.33 623.03,726.32 C624.61,724.99 626.20,722.92 626.58,721.71 C626.96,720.49 627.56,719.28 627.91,719.00 C628.26,718.72 629.29,717.32 630.21,715.89 C633.87,710.13 646.66,707.24 655.26,710.24 C657.75,711.11 658.51,710.89 660.87,708.62 C662.38,707.18 664.15,706.00 664.80,706.00 C665.46,706.00 666.00,705.62 666.00,705.16 C666.00,704.02 670.93,701.84 672.01,702.50 C672.48,702.79 673.15,702.56 673.50,701.99 C674.26,700.77 686.00,701.03 686.00,702.27 C686.00,702.74 686.44,702.85 686.98,702.51 C688.70,701.45 692.33,704.02 699.01,711.05 L 705.51 717.89 L 717.76 717.49 C725.66,717.22 730.00,717.44 730.00,718.10 C730.00,718.66 730.49,718.82 731.09,718.45 C732.92,717.32 739.11,724.16 742.06,730.58 C744.26,735.34 745.96,737.40 749.90,740.08 C752.66,741.96 755.15,744.06 755.43,744.75 C755.83,745.74 738.73,746.00 671.90,746.00 L 587.87 746.00 Z" fill="rgba(183,145,93,1)"/>
<path d="M 535.52 581.87 L 524.96 574.75 L 525.57 571.12 C526.84,563.55 526.07,563.49 539.80,572.21 C546.78,576.64 552.88,580.61 553.34,581.03 C554.95,582.48 550.15,589.00 547.47,589.00 C546.70,589.00 541.33,585.79 535.52,581.87 ZM 555.58 569.13 C555.28,568.65 549.64,564.71 543.05,560.38 C531.70,552.92 531.05,552.32 531.03,549.14 C531.01,546.85 531.40,545.94 532.26,546.27 C532.95,546.53 538.34,547.34 544.23,548.06 L 554.94 549.37 L 556.97 555.38 C559.40,562.58 559.70,570.00 557.56,570.00 C556.77,570.00 555.88,569.61 555.58,569.13 ZM 349.53 458.43 C338.75,452.28 338.71,452.23 339.28,447.92 C339.81,444.03 347.77,424.98 348.86,425.02 C349.21,425.03 354.90,426.76 361.50,428.85 L 373.50 432.65 L 373.80 438.39 C374.23,446.52 371.77,454.10 367.13,458.98 C362.12,464.25 359.58,464.17 349.53,458.43 ZM 533.50 358.33 C523.90,353.26 521.31,344.25 525.92,331.94 C529.61,322.09 530.05,321.92 534.32,328.84 C538.19,335.10 542.19,338.78 550.25,343.44 C555.94,346.73 556.21,348.55 551.77,353.61 C546.38,359.75 539.53,361.52 533.50,358.33 ZM 563.93 336.63 C549.31,332.69 540.38,321.30 539.28,305.20 L 538.75 297.50 L 546.62 297.47 C553.49,297.45 555.29,297.04 560.62,294.27 C564.07,292.48 568.56,289.04 570.92,286.36 L 575.10 281.61 L 582.80 285.41 C594.59,291.24 604.00,296.96 604.00,298.29 C603.99,298.96 601.32,305.00 598.06,311.72 C593.45,321.22 590.84,325.26 586.32,329.87 C578.60,337.75 573.63,339.25 563.93,336.63 Z" fill="rgba(229,226,201,1)"/>
</g>
</svg>