<svg xmlns="http://www.w3.org/2000/svg" width="1464" height="716" viewBox="0 0 1464 716">
<g>
<path d="M 761.00 624.90 C720.08,628.80 682.13,624.43 645.31,611.57 C595.14,594.05 549.89,560.78 517.38,517.50 C491.76,483.39 476.02,445.90 467.86,399.50 C465.85,388.11 465.57,383.10 465.54,359.00 C465.51,337.15 465.87,329.14 467.32,320.00 C469.82,304.26 474.05,286.82 478.99,271.96 C484.22,256.22 498.55,226.84 508.00,212.50 C563.11,128.82 660.02,82.44 758.74,92.49 C821.31,98.85 875.21,124.01 920.18,167.83 C975.31,221.56 1004.02,295.45 999.91,373.01 C997.56,417.35 983.90,461.15 960.76,498.50 C917.51,568.32 839.98,617.39 761.00,624.90 ZM 703.29 610.53 C716.76,612.34 755.54,611.77 769.50,609.54 C806.00,603.73 842.78,589.32 872.99,569.00 C907.57,545.76 937.83,512.03 957.35,475.00 C969.39,452.16 979.31,421.35 983.61,393.50 C986.21,376.62 986.24,338.15 983.66,322.50 C977.04,282.25 964.70,250.19 943.45,218.00 C918.98,180.94 882.85,149.59 842.63,130.52 C815.69,117.74 791.55,110.71 761.50,106.88 C747.51,105.10 713.18,105.37 699.69,107.37 C659.97,113.25 625.55,125.97 594.00,146.42 C563.64,166.10 534.28,196.22 516.12,226.29 C498.78,255.01 486.68,289.24 481.34,324.69 C479.02,340.07 479.01,375.51 481.31,391.50 C485.17,418.21 493.78,446.53 505.08,469.65 C528.82,518.22 570.49,560.17 619.28,584.64 C647.06,598.56 672.30,606.34 703.29,610.53 ZM 875.93 519.58 C874.93,520.79 854.14,521.00 732.54,521.00 C654.33,521.00 590.03,520.70 589.67,520.33 C589.30,519.97 589.00,519.08 589.00,518.37 C589.00,517.44 591.32,517.00 597.25,516.79 L 605.50 516.50 L 605.58 502.00 C605.66,488.88 605.92,486.79 608.37,480.00 C609.86,475.88 612.16,468.23 613.50,463.00 C616.86,449.87 619.88,441.34 625.76,428.50 L 630.78 417.50 L 631.26 381.50 C631.76,343.52 632.12,340.31 637.06,329.13 C638.86,325.07 638.90,324.47 637.51,323.08 C636.25,321.82 635.61,321.76 634.00,322.77 C631.15,324.55 628.57,324.28 626.50,322.00 C625.50,320.90 624.18,320.00 623.56,320.00 C622.94,320.00 620.08,317.62 617.22,314.72 C612.43,309.87 612.00,309.05 612.00,304.77 C612.00,301.76 611.49,299.81 610.57,299.30 C609.79,298.86 605.74,295.22 601.57,291.20 C593.55,283.47 592.13,280.01 595.57,276.57 C598.81,273.34 602.75,274.60 609.42,281.00 C612.86,284.30 615.97,287.00 616.33,287.00 C616.70,287.00 617.00,285.03 617.00,282.62 C617.00,279.92 617.58,277.76 618.53,276.98 C619.75,275.96 620.01,273.54 619.83,264.61 C619.70,258.50 619.83,248.64 620.12,242.70 C620.62,232.33 620.76,231.78 623.66,228.88 C625.32,227.22 628.21,225.46 630.09,224.97 L 630.66 224.82 C639.69,222.46 642.04,221.85 644.14,222.32 C644.93,222.50 645.68,222.83 646.73,223.27 C648.83,224.16 654.94,225.13 660.50,225.47 C687.44,227.08 696.44,228.77 709.95,234.74 C714.70,236.84 716.31,237.07 722.14,236.49 L 728.86 235.81 L 729.54 229.44 C729.92,225.94 730.82,222.27 731.54,221.29 C732.67,219.76 732.55,219.17 730.71,217.21 C728.25,214.57 729.03,212.32 733.09,210.31 C734.42,209.65 737.24,207.27 739.38,205.01 C744.53,199.56 750.15,196.84 757.47,196.26 C769.27,195.32 778.35,200.20 783.32,210.15 C786.56,216.62 787.12,223.56 785.05,231.52 C783.79,236.34 783.84,236.68 786.41,240.46 C787.87,242.62 788.94,245.09 788.78,245.94 C788.36,248.13 783.56,248.44 778.89,246.57 C776.73,245.71 774.52,245.00 773.98,245.00 C773.44,245.00 773.00,247.25 773.00,250.00 C773.00,255.18 770.16,259.83 767.87,258.42 C767.29,258.06 764.57,260.11 761.83,262.98 C757.23,267.81 756.60,268.15 753.40,267.55 L 749.94 266.90 L 754.16 274.95 C759.49,285.14 760.06,290.84 757.13,304.64 C753.40,322.18 751.84,334.10 753.06,335.57 C754.89,337.78 753.54,349.78 751.09,353.09 C749.80,354.84 749.00,357.43 749.00,359.89 C749.00,362.07 748.51,367.36 747.92,371.65 C746.88,379.12 746.92,379.52 749.02,381.22 C751.04,382.85 751.12,383.34 750.08,387.74 C749.10,391.86 749.23,393.29 751.02,398.36 C752.36,402.14 752.99,406.03 752.80,409.36 L 752.50 414.50 L 766.32 427.50 C773.92,434.65 780.67,440.67 781.32,440.87 C781.97,441.07 785.03,443.70 788.13,446.72 C794.70,453.11 795.26,453.05 801.98,445.03 C804.29,442.26 806.98,440.00 807.96,440.00 C810.50,440.00 830.97,461.56 834.28,467.71 C836.06,471.03 837.50,475.88 838.28,481.20 L 839.50 489.50 L 844.21 489.56 C849.60,489.63 852.16,491.44 855.13,497.25 C856.35,499.64 857.75,501.00 858.99,501.00 C861.54,501.00 867.33,506.15 871.24,511.91 C872.96,514.43 874.98,516.87 875.74,517.33 C876.80,517.98 876.85,518.48 875.93,519.58 ZM 609.05 491.23 L 608.27 496.18 L 610.89 495.58 C623.83,492.60 625.81,492.57 634.43,495.22 C635.43,495.52 636.48,492.39 638.04,484.50 C638.58,481.75 643.78,469.51 649.60,457.30 C655.41,445.08 660.28,434.51 660.43,433.80 C660.58,433.08 661.63,430.48 662.76,428.00 C663.94,425.40 666.14,415.29 667.97,404.00 C672.48,376.17 673.98,371.24 678.60,369.14 C682.63,367.30 683.70,367.89 680.86,370.39 C679.41,371.66 677.68,373.72 677.02,374.96 C676.71,375.53 676.44,375.92 676.35,376.34 C676.08,377.63 677.63,379.29 685.70,387.98 C686.43,388.76 687.21,389.60 688.04,390.50 C701.99,405.54 710.58,415.30 712.40,418.17 C714.23,421.06 714.24,421.52 712.66,430.83 C711.73,436.34 710.81,448.90 710.53,460.00 C710.26,470.73 709.74,483.28 709.38,487.91 L 708.72 496.32 L 717.11 495.65 C724.64,495.06 735.48,492.85 736.66,491.68 C736.90,491.43 737.09,485.44 737.07,478.37 C737.04,465.72 738.40,453.56 741.91,435.23 C743.59,426.47 743.59,425.99 741.96,426.51 C739.25,427.37 731.12,422.48 725.84,416.82 C720.29,410.88 719.44,408.92 721.07,405.87 C721.32,405.40 721.63,405.14 721.75,404.82 C722.22,403.54 719.74,401.19 698.94,381.50 C696.40,379.11 693.60,376.45 690.49,373.51 C649.95,335.11 641.35,327.29 640.56,328.13 C640.37,328.33 639.24,331.65 638.05,335.50 C635.06,345.17 634.04,359.70 634.02,392.89 C634.00,415.26 633.72,421.51 632.67,422.39 C630.37,424.32 622.18,445.14 618.45,458.58 C616.47,465.69 613.73,474.83 612.35,478.89 C610.97,482.95 609.48,488.51 609.05,491.23 ZM 646.00 512.95 L 646.00 517.03 L 706.50 516.50 L 706.70 484.00 C706.87,454.89 707.36,445.11 709.59,425.92 C710.21,420.62 710.08,420.15 706.88,416.42 C698.69,406.86 676.72,383.00 676.10,383.00 C675.73,383.00 675.36,383.79 675.28,384.75 C674.77,390.86 668.81,423.52 667.46,427.58 C666.57,430.29 660.67,443.23 654.36,456.35 C647.39,470.85 642.50,482.34 641.89,485.64 C641.34,488.63 640.22,492.97 639.40,495.28 C637.93,499.46 637.93,499.50 640.86,501.99 C644.73,505.30 646.00,508.00 646.00,512.95 ZM 679.28 334.55 C681.60,335.27 683.82,335.90 684.20,335.93 C685.92,336.10 694.00,322.35 694.00,319.26 C694.00,318.25 697.67,312.49 702.15,306.46 C718.63,284.30 718.15,285.50 720.45,260.63 C721.42,250.20 722.45,243.96 723.46,242.41 C724.31,241.13 725.00,239.88 725.00,239.64 C725.00,239.18 718.02,240.61 717.57,241.16 C716.18,242.88 710.09,254.95 709.83,256.50 C709.56,258.15 710.18,258.59 713.45,259.00 L 717.40 259.50 L 717.71 267.31 C718.06,276.43 716.53,276.91 715.50,268.00 C714.81,262.06 714.77,262.00 711.59,262.00 C709.83,262.00 707.59,261.42 706.62,260.71 C704.95,259.49 704.96,259.18 706.84,254.46 C707.93,251.73 709.98,247.43 711.41,244.91 L 714.00 240.31 L 707.25 237.69 C703.54,236.25 699.71,234.78 698.75,234.43 C697.30,233.90 697.00,234.37 696.99,237.14 C696.97,241.42 696.02,245.00 694.90,245.00 C694.42,245.00 694.31,242.37 694.64,239.16 C694.67,238.90 694.70,238.65 694.72,238.40 C694.96,236.17 695.12,234.75 694.52,233.79 C693.44,232.03 689.84,231.81 679.65,230.89 C657.32,228.89 650.50,228.33 650.27,228.47 C650.15,228.55 651.01,231.07 652.19,234.06 C653.70,237.88 654.36,241.81 654.41,247.25 C654.44,251.51 654.58,255.00 654.72,255.00 C654.85,255.00 659.76,256.39 665.63,258.08 C676.15,261.12 676.36,261.14 680.16,259.43 C684.45,257.49 686.28,258.15 683.72,260.71 C682.67,261.76 679.82,262.53 675.95,262.81 L 669.83 263.25 L 660.87 281.38 C655.94,291.34 650.84,301.27 649.53,303.43 C648.23,305.59 646.85,308.96 646.49,310.92 C645.86,314.27 646.13,314.76 651.16,319.29 C656.42,324.04 671.04,331.97 679.28,334.55 ZM 765.67 516.33 C766.03,516.70 767.93,517.00 769.87,517.00 C772.54,517.00 774.29,516.16 776.96,513.60 C778.91,511.73 782.92,508.95 785.88,507.43 C790.75,504.92 791.64,504.76 795.38,505.77 C798.61,506.64 799.79,506.60 800.83,505.58 C801.92,504.50 801.23,503.75 796.83,501.24 C790.11,497.41 771.00,480.12 771.00,477.88 C771.00,476.96 773.59,473.85 776.75,470.97 C779.91,468.09 782.86,465.13 783.29,464.39 C783.85,463.44 778.83,457.81 766.47,445.52 C756.79,435.88 748.49,428.00 748.04,428.00 C745.69,428.00 740.41,468.22 740.81,483.06 L 741.11 494.63 L 745.26 497.31 C747.54,498.79 750.43,500.00 751.68,500.00 C752.93,500.00 755.79,500.73 758.02,501.62 C762.60,503.46 765.00,507.12 765.00,512.28 C765.00,514.14 765.30,515.97 765.67,516.33 ZM 798.43 497.44 C801.74,499.40 804.62,501.00 804.83,501.00 C805.04,501.00 806.63,499.81 808.36,498.35 C813.20,494.27 816.82,493.16 824.11,493.56 C827.75,493.75 831.33,494.04 832.06,494.20 C834.30,494.70 835.49,486.72 834.20,479.82 C832.46,470.43 829.83,466.28 818.53,455.02 L 808.01 444.55 L 801.76 450.74 C798.41,454.05 796.73,455.83 794.93,455.96 C792.97,456.09 790.87,454.26 786.32,450.28 C786.06,450.05 785.80,449.82 785.52,449.58 L 779.89 444.66 L 777.78 446.77 L 775.67 448.88 L 781.34 455.00 C784.45,458.36 787.00,461.79 787.00,462.62 C787.00,465.14 785.00,468.26 780.13,473.34 L 775.50 478.18 L 783.95 486.03 C788.60,490.34 795.12,495.48 798.43,497.44 ZM 690.26 337.30 C692.04,337.53 696.42,337.67 700.00,337.61 L 706.50 337.50 L 708.08 332.73 C708.95,330.10 710.86,326.72 712.31,325.20 L 714.95 322.44 L 711.97 319.64 C710.34,318.09 709.00,315.84 709.00,314.64 C709.00,312.40 720.31,294.00 721.68,294.00 C722.09,294.00 725.92,295.81 730.18,298.03 L 737.93 302.06 L 740.63 299.03 C743.62,295.68 745.00,295.21 745.00,297.54 C745.00,298.39 740.88,303.34 735.85,308.55 L 726.71 318.00 L 726.09 324.75 L 725.47 331.50 L 748.74 331.50 L 750.44 320.00 C751.37,313.67 752.82,305.82 753.65,302.54 C756.18,292.56 755.83,287.45 752.05,279.25 C748.95,272.54 747.01,270.23 746.99,273.25 C746.99,275.14 745.12,281.31 744.04,282.98 C743.25,284.23 742.64,284.03 740.24,281.73 L 737.38 278.99 L 729.17 281.69 C721.41,284.24 720.79,284.66 717.79,289.44 C713.22,296.70 703.03,311.05 700.25,314.11 C698.95,315.55 697.24,318.89 696.44,321.52 C695.65,324.16 693.21,328.69 691.01,331.60 L 687.03 336.88 ZM 788.75 516.20 C804.35,517.01 867.40,516.31 867.73,515.32 C868.36,513.43 861.61,505.67 858.64,504.88 C854.96,503.89 852.25,501.40 849.94,496.87 C848.92,494.88 847.36,492.97 846.46,492.62 C843.70,491.56 839.61,493.09 836.98,496.17 C834.72,498.81 834.15,499.01 831.66,498.06 C827.14,496.34 818.36,496.77 814.21,498.92 C812.17,499.97 808.47,502.92 806.00,505.48 L 801.50 510.12 L 795.85 509.47 C790.12,508.82 787.65,509.49 784.58,512.56 C781.95,515.19 782.74,515.89 788.75,516.20 ZM 730.20 265.39 C734.53,267.97 736.32,268.00 735.35,265.47 C735.02,264.60 735.37,264.00 736.22,264.00 C737.01,264.00 738.68,262.90 739.94,261.56 L 742.24 259.12 L 740.12 256.42 C737.48,253.07 737.13,246.00 739.61,246.00 C740.83,246.00 741.06,246.61 740.58,248.53 C740.06,250.62 740.81,251.98 744.94,256.35 C747.69,259.25 751.09,262.24 752.49,263.00 C754.89,264.28 755.28,264.13 759.02,260.48 C761.21,258.34 763.00,255.98 763.00,255.23 C763.00,254.32 763.93,253.97 765.74,254.18 C768.38,254.49 768.51,254.28 769.32,248.50 C770.16,242.53 770.15,242.49 766.83,239.64 C763.14,236.48 757.89,233.01 756.78,233.00 C756.39,233.00 754.47,234.40 752.52,236.11 C749.61,238.67 748.71,239.01 747.49,237.99 C746.67,237.31 746.00,235.24 746.00,233.38 C746.00,230.32 745.73,230.00 743.11,230.00 C738.88,230.00 737.23,235.98 740.75,238.57 C742.13,239.60 742.24,240.13 741.27,241.11 C740.30,242.10 739.67,242.01 738.19,240.68 C735.62,238.35 731.59,238.58 728.51,241.25 C726.31,243.15 725.82,244.60 725.32,250.64 C724.52,260.32 725.21,262.42 730.20,265.39 ZM 770.50 230.52 C778.57,234.47 779.59,234.64 780.87,232.25 C784.37,225.70 782.44,212.82 777.10,207.11 C773.09,202.82 771.29,203.12 774.07,207.62 C776.60,211.71 778.14,218.38 777.33,221.75 C776.57,224.90 775.00,224.56 774.99,221.25 C774.97,211.57 768.91,203.95 759.72,202.05 C756.55,201.39 752.57,201.16 750.87,201.53 C747.59,202.25 740.00,208.44 740.00,210.39 C740.00,211.03 743.68,213.81 748.18,216.57 C756.00,221.37 758.71,224.00 755.83,224.00 C755.10,224.00 750.72,221.75 746.10,219.00 C738.57,214.52 732.98,212.54 734.41,214.86 C734.98,215.77 749.65,224.35 756.75,227.91 C760.28,229.68 761.00,229.78 761.00,228.52 C761.00,226.32 762.64,226.67 770.50,230.52 ZM 701.37 294.12 C696.13,301.92 694.40,304.63 692.18,305.09 C691.02,305.34 689.72,304.97 687.70,304.38 C687.54,304.34 687.38,304.29 687.21,304.24 C681.46,302.59 675.40,297.47 674.75,293.71 C674.29,291.06 682.31,275.00 685.67,271.84 L 688.01 269.64 L 695.76 274.98 C705.36,281.59 707.00,282.99 707.00,284.53 C707.00,285.20 704.47,289.52 701.37,294.12 ZM 629.25 319.28 C631.19,319.98 631.72,319.31 632.46,315.26 C633.44,309.88 635.73,306.70 638.15,307.33 C641.14,308.11 641.39,305.77 638.91,300.00 C636.86,295.25 636.78,294.38 637.94,289.84 C638.64,287.12 638.96,284.63 638.65,284.32 C637.81,283.47 626.87,281.03 623.84,281.02 C621.34,281.00 621.19,281.27 621.36,285.25 C621.47,287.98 620.55,291.83 618.80,296.00 C614.93,305.16 615.13,307.21 620.40,312.56 C623.33,315.53 625.33,316.81 626.40,316.40 C627.44,316.00 628.00,316.32 628.00,317.31 C628.00,318.15 628.56,319.04 629.25,319.28 ZM 642.69 298.47 C643.61,300.41 644.72,302.00 645.14,302.00 C646.75,302.00 652.51,292.24 657.16,281.64 C659.82,275.57 663.16,268.85 664.57,266.71 C665.99,264.57 667.00,262.70 666.82,262.55 C665.03,261.07 651.60,258.13 649.02,258.65 C645.39,259.37 645.56,259.06 642.48,270.76 C640.21,279.39 640.21,279.52 642.13,281.03 C643.96,282.47 643.98,282.80 642.53,286.91 C640.59,292.43 640.61,294.11 642.69,298.47 ZM 702.41 379.71 C723.20,399.49 724.50,400.54 727.72,400.16 C729.58,399.95 730.97,399.67 730.80,399.55 C730.17,399.10 671.74,343.91 655.29,328.23 C645.83,319.21 637.61,312.12 637.04,312.47 C634.15,314.26 637.26,317.99 658.25,337.83 C670.49,349.40 690.36,368.25 702.41,379.71 ZM 702.71 368.36 C714.70,379.70 724.72,388.99 725.00,388.99 C725.28,389.00 725.50,386.80 725.50,384.11 C725.50,379.89 724.82,378.22 720.57,371.99 C717.85,368.02 713.91,362.69 711.82,360.15 C709.72,357.61 708.00,354.59 708.00,353.42 C708.00,349.46 704.66,347.65 698.66,348.35 C695.70,348.70 690.70,348.51 687.54,347.92 C684.39,347.34 681.61,347.06 681.36,347.30 C681.12,347.55 690.73,357.02 702.71,368.36 ZM 629.38 277.83 C632.20,278.34 634.82,278.82 635.22,278.88 C635.62,278.95 636.66,276.41 637.54,273.25 C638.42,270.09 639.96,264.97 640.96,261.88 C643.03,255.50 642.49,253.48 636.95,246.76 C633.82,242.96 627.51,240.09 625.88,241.72 C623.59,244.01 622.33,260.80 623.64,271.69 L 624.27 276.89 ZM 731.50 510.94 C733.70,511.40 741.24,511.82 748.25,511.89 C761.82,512.01 762.58,511.70 759.51,507.31 C758.59,506.00 756.38,504.90 753.80,504.47 C748.46,503.56 742.11,500.80 739.39,498.20 C737.39,496.29 736.89,496.25 730.39,497.48 C726.60,498.19 720.69,499.09 717.25,499.49 L 711.00 500.20 L 711.00 504.47 C711.00,508.46 711.21,508.79 714.12,509.38 C715.84,509.72 719.56,510.03 722.38,510.06 C725.19,510.09 729.30,510.49 731.50,510.94 ZM 731.00 379.82 C731.00,380.06 732.69,379.98 734.75,379.64 C736.81,379.30 739.65,379.02 741.05,379.01 C743.35,379.00 743.63,378.58 743.84,374.75 C743.97,372.41 744.50,366.67 745.03,362.00 C745.55,357.33 745.99,352.98 745.99,352.35 C746.01,349.54 735.87,348.10 730.15,350.10 C726.27,351.45 726.17,353.08 729.00,368.50 C730.10,374.49 731.00,379.58 731.00,379.82 ZM 720.10 364.49 C722.52,368.05 724.75,370.96 725.06,370.98 C726.35,371.03 722.40,353.24 720.75,351.60 C718.53,349.39 718.26,337.51 720.37,335.08 C721.93,333.28 723.51,323.00 722.23,323.00 C721.77,323.00 719.85,324.14 717.97,325.53 C714.34,328.20 712.09,331.45 712.04,334.11 C712.02,335.00 710.86,337.41 709.46,339.46 L 706.92 343.21 L 709.46 346.54 C710.86,348.37 712.00,350.95 712.00,352.28 C712.00,353.60 712.83,355.44 713.85,356.36 C714.87,357.28 717.68,360.94 720.10,364.49 ZM 646.99 248.75 C647.00,251.64 647.39,254.00 647.88,254.00 C654.74,254.00 648.85,227.00 641.82,226.19 C640.34,226.02 637.78,226.58 636.12,227.44 C634.46,228.30 632.09,229.00 630.86,229.00 C628.50,229.00 624.00,232.58 624.00,234.47 C624.00,235.08 626.01,236.12 628.47,236.78 C631.66,237.64 634.49,239.54 638.44,243.49 C641.48,246.52 644.19,249.00 644.48,249.00 C646.22,249.00 642.80,240.47 638.78,234.80 C637.45,232.93 638.23,231.40 639.95,232.47 C640.55,232.84 642.38,235.47 644.01,238.32 C646.26,242.25 646.98,244.77 646.99,248.75 ZM 609.52 511.03 C609.86,511.59 616.87,512.00 626.06,512.00 C643.62,512.00 644.26,511.73 639.58,506.31 C637.25,503.61 636.83,503.51 628.51,503.65 C620.14,503.80 619.92,503.74 621.56,501.93 C622.49,500.91 625.10,499.65 627.37,499.14 C631.47,498.22 631.45,498.21 625.19,498.11 C621.72,498.05 616.94,498.49 614.56,499.09 C610.33,500.15 610.22,500.29 609.58,505.12 C609.22,507.84 609.19,510.50 609.52,511.03 ZM 722.51 347.72 C722.82,348.66 723.88,348.60 727.08,347.47 C732.51,345.56 742.68,345.58 746.40,347.52 C747.99,348.36 749.40,348.92 749.52,348.77 C749.64,348.62 749.97,346.34 750.25,343.70 C750.71,339.42 750.50,338.72 748.34,337.30 C747.01,336.43 744.02,335.35 741.71,334.91 C736.46,333.90 725.55,335.63 723.79,337.75 C722.51,339.29 721.73,345.37 722.51,347.72 ZM 743.51 409.74 C742.77,415.68 743.74,416.42 746.93,412.37 C749.54,409.04 749.55,405.46 746.96,398.90 C745.43,395.01 745.09,392.60 745.59,389.25 C746.42,383.70 745.55,383.03 737.50,383.03 C729.72,383.03 728.55,383.79 729.61,388.13 C730.07,389.98 730.46,392.02 730.48,392.66 C730.57,394.91 734.29,398.04 736.17,397.45 C737.18,397.13 738.00,397.34 738.00,397.92 C738.00,398.51 739.39,400.22 741.09,401.73 C744.01,404.34 744.14,404.76 743.51,409.74 ZM 686.00 301.41 C687.92,302.24 690.05,302.94 690.71,302.96 C691.38,302.98 693.72,300.35 695.92,297.12 L 699.91 291.24 L 695.43 289.53 C692.96,288.58 689.33,286.29 687.35,284.42 C685.37,282.56 683.40,281.25 682.96,281.53 C681.59,282.37 677.00,291.16 677.00,292.94 C677.00,295.16 681.62,299.51 686.00,301.41 ZM 713.57 317.88 C715.06,319.05 716.79,320.00 717.43,320.00 C718.64,320.00 733.99,306.70 735.17,304.63 C735.61,303.87 733.41,302.46 728.83,300.57 C723.19,298.25 721.65,297.95 720.98,299.03 C720.02,300.58 723.28,305.14 726.75,307.08 C727.99,307.77 729.00,308.71 729.00,309.17 C729.00,310.87 726.58,309.90 722.49,306.55 L 718.28 303.09 L 715.17 307.89 C710.63,314.89 710.54,315.49 713.57,317.88 ZM 759.02 432.97 C766.43,440.08 772.75,445.92 773.05,445.95 C773.81,446.02 776.00,443.76 776.00,442.91 C776.00,442.52 769.90,436.46 762.45,429.44 C749.75,417.46 748.80,416.77 747.22,418.35 C745.64,419.93 746.37,420.84 759.02,432.97 ZM 681.41 343.59 C684.21,344.27 690.21,344.87 694.75,344.91 C702.36,344.99 703.00,344.85 703.00,343.00 C703.00,341.27 702.33,341.00 698.07,341.00 C690.83,341.00 679.38,338.35 672.25,335.02 C665.75,331.99 664.98,332.10 667.50,335.70 C669.70,338.83 675.60,342.18 681.41,343.59 ZM 812.12 479.75 C811.95,481.50 807.99,481.18 804.97,479.18 C794.41,472.18 788.71,467.49 790.38,467.16 C792.30,466.80 805.91,475.61 806.73,477.74 C807.22,479.02 809.00,478.51 809.00,477.10 C809.00,476.68 806.08,472.61 802.50,468.08 C798.92,463.54 796.00,459.41 796.00,458.91 C796.00,456.22 799.22,459.01 805.17,466.85 C811.51,475.22 812.39,476.86 812.12,479.75 ZM 695.50 286.40 C700.50,288.82 702.28,288.59 703.18,285.37 C703.46,284.38 688.12,272.47 687.51,273.21 C687.38,273.37 686.80,274.41 686.22,275.52 C684.77,278.32 688.95,283.23 695.50,286.40 ZM 604.98 289.05 C613.24,296.72 613.50,296.87 614.69,294.71 C615.80,292.72 615.50,292.12 611.71,288.57 C609.39,286.41 605.81,283.05 603.74,281.11 C600.14,277.73 599.92,277.66 598.24,279.38 C596.58,281.10 596.87,281.52 604.98,289.05 ZM 731.00 277.54 C731.00,277.69 732.61,277.32 734.58,276.71 C737.31,275.88 738.64,275.92 740.18,276.88 C741.29,277.57 742.32,277.99 742.47,277.82 C742.95,277.28 746.00,266.26 746.00,265.10 C746.00,262.70 743.53,264.30 737.41,270.63 C733.88,274.28 731.00,277.39 731.00,277.54 ZM 723.00 272.56 L 723.00 279.12 L 727.55 275.86 C733.56,271.54 734.82,270.01 732.37,269.98 C731.34,269.97 729.38,269.08 728.00,268.00 C723.75,264.67 723.00,265.36 723.00,272.56 ZM 776.50 241.30 C781.44,243.80 783.81,243.55 782.69,240.64 C782.07,239.02 765.25,230.75 763.66,231.28 C762.23,231.76 770.69,238.35 776.50,241.30 ZM 710.00 514.37 C710.00,515.44 712.39,515.76 721.00,515.84 C732.27,515.94 735.65,514.77 727.36,513.64 C718.90,512.48 710.00,512.85 710.00,514.37 ZM 648.81 351.29 C645.24,353.98 638.22,356.07 639.44,354.09 C639.82,353.48 641.90,352.07 644.07,350.97 C646.23,349.86 649.24,347.09 650.75,344.80 C652.47,342.21 653.61,341.21 653.79,342.15 C654.31,344.86 652.19,348.75 648.81,351.29 ZM 743.97 340.32 C743.71,340.55 740.24,340.96 736.25,341.24 C730.83,341.61 729.00,341.42 729.00,340.47 C729.00,338.73 731.34,338.00 736.83,338.02 C741.13,338.03 745.09,339.31 743.97,340.32 ZM 620.50 515.96 C624.45,517.02 642.00,517.22 642.00,516.21 C642.00,515.77 636.49,515.36 629.75,515.29 C621.97,515.20 618.60,515.45 620.50,515.96 ZM 732.19 232.75 C731.77,237.08 734.40,237.15 735.90,232.85 L 735.98 232.62 C736.74,230.44 737.07,229.51 736.75,229.18 C736.52,228.93 735.93,229.01 734.90,229.16 L 734.75 229.18 C733.03,229.43 732.43,230.26 732.19,232.75 ZM 737.00 516.00 C743.16,516.96 749.55,516.97 755.50,516.05 C759.16,515.48 756.75,515.27 746.50,515.28 C737.49,515.29 734.11,515.55 737.00,516.00 ZM 729.00 414.03 C729.00,414.57 729.37,415.00 729.81,415.00 C730.48,415.00 732.27,412.04 734.81,406.75 C735.00,406.34 734.54,406.00 733.77,406.00 C732.47,406.00 729.00,411.85 729.00,414.03 ZM 734.74 225.40 C735.52,226.19 738.01,226.05 740.48,225.09 C742.41,224.33 742.41,224.29 740.29,223.16 C739.10,222.52 737.48,222.00 736.67,222.00 C735.11,222.00 733.74,224.41 734.74,225.40 ZM 733.00 418.03 C733.00,419.64 734.87,419.12 735.83,417.25 C737.27,414.44 738.11,410.00 737.20,410.00 C736.33,410.00 733.00,416.36 733.00,418.03 ZM 724.02 408.83 C724.01,409.57 724.49,410.00 725.08,409.81 C726.74,409.25 729.51,404.18 728.64,403.31 C727.75,402.41 724.06,406.83 724.02,408.83 ZM 822.80 511.80 C821.29,513.31 820.32,513.32 819.41,511.85 C818.73,510.76 821.45,508.00 823.19,508.00 C824.41,508.00 824.16,510.44 822.80,511.80 ZM 847.00 503.54 C847.00,505.33 846.05,505.35 843.75,503.61 C842.10,502.36 841.33,500.00 842.57,500.00 C844.17,500.00 847.00,502.26 847.00,503.54 ZM 748.56 232.29 C749.07,233.61 749.52,233.69 751.09,232.71 C753.44,231.24 753.50,230.41 751.33,229.57 C749.21,228.76 747.75,230.18 748.56,232.29 ZM 739.64 422.31 C740.57,423.24 742.00,422.11 742.00,420.44 C742.00,419.65 741.33,419.00 740.50,419.00 C738.99,419.00 738.44,421.11 739.64,422.31 Z" fill="rgb(7,7,7)"/>
<path d="M 680.86 370.39 C682.63,368.83 682.88,368.02 681.85,368.06 C682.77,368.00 683.04,368.47 682.66,369.45 C682.31,370.36 683.91,372.41 686.98,374.99 C691.76,378.98 710.04,399.75 715.00,406.80 C716.38,408.76 718.48,411.44 719.69,412.76 C722.74,416.10 723.31,419.78 722.10,428.22 C721.53,432.22 720.57,444.93 719.97,456.45 C719.37,467.97 718.65,477.76 718.38,478.20 C718.11,478.64 718.34,479.00 718.89,479.00 C719.44,479.00 721.07,477.46 722.50,475.59 C725.15,472.12 728.00,470.27 728.00,472.03 C728.00,472.56 726.51,474.68 724.68,476.75 C720.80,481.14 718.70,485.85 719.17,489.16 C719.48,491.37 719.85,491.49 726.00,491.23 C730.66,491.04 732.08,491.25 731.00,491.98 C729.91,492.72 730.46,492.82 733.00,492.35 C734.74,492.04 736.30,491.68 736.71,491.52 C736.69,491.60 736.67,491.66 736.66,491.68 C735.48,492.85 724.64,495.06 717.11,495.65 L 708.72 496.32 L 709.38 487.91 C709.74,483.28 710.26,470.73 710.53,460.00 C710.81,448.90 711.73,436.34 712.66,430.83 C714.24,421.52 714.23,421.06 712.40,418.17 C710.58,415.30 701.99,405.54 688.04,390.50 C687.21,389.60 686.43,388.76 685.70,387.98 C677.63,379.29 676.08,377.63 676.35,376.34 C676.44,375.92 676.71,375.53 677.02,374.96 C677.68,373.72 679.41,371.66 680.86,370.39 ZM 609.05 491.23 C609.48,488.51 610.97,482.95 612.35,478.89 C613.73,474.83 616.47,465.69 618.45,458.58 C622.18,445.14 630.37,424.32 632.67,422.39 C633.72,421.51 634.00,415.26 634.02,392.89 C634.04,359.70 635.06,345.17 638.05,335.50 C639.24,331.65 640.37,328.33 640.56,328.13 C641.10,327.56 645.19,330.94 660.28,345.03 C656.06,341.21 655.41,341.14 655.18,342.79 C655.03,343.78 653.90,345.56 652.40,347.41 C653.54,345.58 654.08,343.68 653.79,342.15 C653.61,341.21 652.47,342.21 650.75,344.80 C649.24,347.09 646.23,349.86 644.07,350.97 C641.90,352.07 639.82,353.48 639.44,354.09 C638.24,356.04 644.98,354.05 648.61,351.44 C647.53,352.43 646.48,353.24 645.61,353.71 C643.95,354.61 643.62,356.58 642.87,370.12 C640.64,410.46 640.00,418.74 638.92,421.82 C637.88,424.79 637.98,425.30 639.88,426.63 C642.74,428.63 642.60,431.00 639.62,431.00 C636.44,431.00 636.08,431.57 630.23,446.00 C623.90,461.60 620.60,471.39 618.02,482.13 C617.94,482.47 617.86,482.81 617.78,483.13 C616.21,489.69 615.56,492.36 616.56,493.31 C617.25,493.96 618.72,493.80 621.20,493.51 C621.38,493.49 621.57,493.47 621.76,493.45 C625.68,493.00 628.32,493.21 630.71,494.15 C624.89,492.66 621.75,493.08 610.89,495.58 L 608.27 496.18 ZM 679.28 334.55 C671.04,331.97 656.42,324.04 651.16,319.29 C646.13,314.76 645.86,314.27 646.49,310.92 C646.85,308.96 648.23,305.59 649.53,303.43 C650.84,301.27 655.94,291.34 660.87,281.38 L 669.83 263.25 L 675.95 262.81 C679.82,262.53 682.67,261.76 683.72,260.71 C686.28,258.15 684.45,257.49 680.16,259.43 C676.36,261.14 676.15,261.12 665.63,258.08 C659.76,256.39 654.85,255.00 654.72,255.00 C654.58,255.00 654.44,251.51 654.41,247.25 C654.38,244.27 654.17,241.75 653.74,239.45 C654.06,240.69 654.32,241.85 654.47,242.75 C654.88,245.19 655.73,247.00 656.47,247.00 C657.17,247.00 658.30,247.66 658.97,248.46 C660.45,250.24 669.08,253.57 678.46,255.97 C686.07,257.92 687.51,259.35 683.63,261.12 C681.29,262.19 678.00,268.18 678.00,271.38 C678.00,272.25 677.17,272.56 675.65,272.27 C673.53,271.87 672.98,272.61 670.06,279.86 C666.81,287.92 665.09,297.06 665.03,306.67 C665.01,309.51 664.56,311.98 664.01,312.17 C663.39,312.38 663.48,314.32 664.26,317.50 C665.42,322.18 665.85,322.67 671.00,325.17 C674.03,326.64 677.62,328.16 679.00,328.55 L 681.50 329.25 L 679.39 326.87 C676.26,323.35 672.00,316.70 672.00,315.35 C672.00,314.70 675.55,317.78 679.90,322.20 C684.45,326.83 688.27,329.95 688.91,329.55 C689.22,329.37 689.59,328.95 690.00,328.38 C687.70,332.36 685.10,336.02 684.20,335.93 C683.82,335.90 681.60,335.27 679.28,334.55 ZM 681.41 343.59 C675.60,342.18 669.70,338.83 667.50,335.70 C664.98,332.10 665.75,331.99 672.25,335.02 C679.38,338.35 690.83,341.00 698.07,341.00 C702.33,341.00 703.00,341.27 703.00,343.00 C703.00,344.85 702.36,344.99 694.75,344.91 C690.21,344.87 684.21,344.27 681.41,343.59 ZM 744.24 298.94 C743.75,299.93 743.00,301.13 742.00,302.50 C737.23,309.00 734.90,314.45 733.59,322.20 L 732.36 329.50 L 738.93 330.67 C740.68,330.98 742.45,331.28 743.90,331.50 L 725.47 331.50 L 726.09 324.75 L 726.71 318.00 L 735.85 308.55 C739.60,304.68 742.83,300.95 744.24,298.94 ZM 690.26 337.30 L 687.03 336.88 L 691.01 331.60 C693.05,328.90 695.31,324.79 696.25,322.11 C695.74,323.89 694.77,326.17 693.89,327.62 C691.45,331.63 691.48,331.79 694.75,332.28 C702.77,333.50 708.00,332.83 708.00,330.59 C708.00,329.93 709.57,327.87 711.49,326.01 L 712.15 325.37 C710.72,326.95 708.92,330.20 708.08,332.73 L 706.50 337.50 L 700.00 337.61 C696.42,337.67 692.04,337.53 690.26,337.30 ZM 710.00 514.37 C710.00,512.85 718.90,512.48 727.36,513.64 C735.65,514.77 732.27,515.94 721.00,515.84 C712.39,515.76 710.00,515.44 710.00,514.37 ZM 722.51 347.72 C721.73,345.37 722.51,339.29 723.79,337.75 C724.51,336.88 726.77,336.08 729.54,335.50 C728.75,335.73 728.05,336.00 727.47,336.31 C725.84,337.20 725.09,337.94 725.81,337.96 C726.55,337.98 726.80,338.51 726.39,339.17 C725.88,340.00 726.23,340.10 727.59,339.52 C728.34,339.20 729.30,338.95 730.39,338.76 C729.44,339.15 729.00,339.72 729.00,340.47 C729.00,340.96 729.49,341.25 730.74,341.36 C726.32,341.61 726.00,342.03 726.00,343.70 C726.00,344.91 725.21,346.41 724.25,347.03 C722.68,348.03 722.71,348.08 724.50,347.47 C725.20,347.23 727.35,346.94 730.01,346.70 C728.95,346.91 727.95,347.16 727.08,347.47 C723.88,348.60 722.82,348.66 722.51,347.72 ZM 646.37 344.62 L 645.81 349.50 L 648.88 346.50 C650.56,344.85 652.07,342.38 652.22,341.00 C652.46,338.88 652.13,338.54 650.06,338.77 C646.90,339.12 647.02,338.94 646.37,344.62 ZM 646.99 248.75 C646.98,244.77 646.26,242.25 644.01,238.32 C643.45,237.34 642.86,236.38 642.31,235.53 C643.55,237.28 644.83,239.52 645.75,241.75 C646.71,244.08 648.03,245.99 648.67,246.00 C649.31,246.00 650.10,246.56 650.43,247.25 C650.75,247.94 650.81,246.15 650.56,243.28 C650.55,243.12 650.53,242.97 650.51,242.81 C651.45,248.75 650.90,254.00 647.88,254.00 C647.39,254.00 647.00,251.64 646.99,248.75 ZM 620.50 515.96 C618.60,515.45 621.97,515.20 629.75,515.29 C636.49,515.36 642.00,515.77 642.00,516.21 C642.00,517.22 624.45,517.02 620.50,515.96 ZM 732.19 232.75 C732.43,230.26 733.03,229.43 734.75,229.18 L 734.90 229.16 C735.93,229.01 736.52,228.93 736.75,229.18 C737.07,229.51 736.74,230.44 735.98,232.62 L 735.90 232.85 C734.40,237.15 731.77,237.08 732.19,232.75 ZM 737.00 516.00 C734.11,515.55 737.49,515.29 746.50,515.28 C756.75,515.27 759.16,515.48 755.50,516.05 C749.55,516.97 743.16,516.96 737.00,516.00 ZM 630.60 237.53 C629.89,237.22 629.19,236.97 628.47,236.78 C626.01,236.12 624.00,235.08 624.00,234.47 C624.00,232.58 628.50,229.00 630.86,229.00 C631.88,229.00 633.66,228.52 635.18,227.88 C633.47,228.75 632.36,229.76 632.97,230.37 C633.54,230.94 634.00,231.75 634.00,232.17 C634.00,233.17 630.70,231.95 629.81,230.61 C629.08,229.52 625.00,232.56 625.00,234.19 C625.00,234.67 627.05,235.95 629.56,237.03 C629.88,237.16 630.23,237.33 630.60,237.53 ZM 748.56 232.29 C747.75,230.18 749.21,228.76 751.33,229.57 C753.50,230.41 753.44,231.24 751.09,232.71 C749.52,233.69 749.07,233.61 748.56,232.29 ZM 718.14 279.58 C718.25,278.92 718.33,278.23 718.40,277.50 C718.76,273.99 718.67,272.30 718.18,273.43 C717.44,275.15 716.88,275.11 716.34,272.97 C717.18,276.11 717.97,274.14 717.71,267.34 C718.56,270.78 719.60,267.95 720.52,259.89 C720.50,260.13 720.48,260.38 720.45,260.63 C719.63,269.53 719.16,275.09 718.14,279.58 ZM 747.90 331.50 C748.70,330.48 749.34,327.42 750.40,320.25 L 748.74 331.50 ZM 638.23 483.74 C638.32,483.33 638.41,482.92 638.49,482.50 C638.73,481.29 641.51,474.82 645.27,466.62 C641.79,474.36 639.04,481.01 638.23,483.74 ZM 701.22 307.72 C701.94,306.71 702.69,305.68 703.46,304.64 C709.14,296.93 712.59,292.12 714.73,288.50 C712.28,292.91 708.46,297.97 702.15,306.46 C701.84,306.88 701.53,307.30 701.22,307.72 ZM 643.81 227.11 C645.64,228.57 647.30,231.60 648.55,235.11 C647.23,231.65 645.45,228.60 643.81,227.11 ZM 743.63 335.38 C741.43,334.87 738.78,334.63 736.21,334.66 C738.27,334.56 740.22,334.62 741.71,334.91 C742.32,335.03 742.97,335.19 743.63,335.38 ZM 750.22 339.27 C749.79,338.54 748.61,337.52 747.20,336.69 C747.65,336.90 748.04,337.11 748.34,337.30 C749.35,337.97 749.94,338.47 750.22,339.27 ZM 721.10 403.11 C721.78,404.01 721.89,404.46 721.75,404.82 C721.63,405.14 721.32,405.40 721.07,405.87 C721.60,404.88 721.76,404.20 721.10,403.11 ZM 750.17 344.39 C750.25,342.52 750.34,340.67 750.39,339.95 C750.51,340.79 750.44,341.95 750.25,343.70 C750.22,343.93 750.20,344.16 750.17,344.39 ZM 635.63 493.97 C636.17,492.45 636.93,489.61 637.67,486.32 C636.88,490.14 636.22,492.62 635.63,493.97 ZM 638.78 234.80 C640.64,237.42 642.37,240.66 643.52,243.38 C642.19,240.48 640.22,236.84 638.78,234.80 ZM 741.18 346.25 C743.40,346.36 744.82,346.69 745.90,347.29 C744.72,346.79 743.06,346.44 741.18,346.25 ZM 714.88 322.51 L 711.99 319.69 C711.67,319.37 711.35,319.02 711.05,318.66 C711.34,319.00 711.65,319.33 711.97,319.64 L 714.95 322.44 ZM 720.95 255.70 C721.40,250.97 722.04,246.94 722.69,244.51 C722.10,246.76 721.52,250.52 720.95,255.70 ZM 743.71 296.25 C744.71,295.68 745.15,296.01 744.97,297.01 C744.86,296.15 744.45,295.89 743.71,296.25 ZM 699.10 315.70 C699.50,315.06 699.89,314.52 700.25,314.11 C700.85,313.46 701.79,312.27 702.94,310.75 C701.68,312.44 700.62,313.81 699.88,314.68 C699.62,314.99 699.36,315.33 699.10,315.70 ZM 743.97 340.32 C744.39,339.94 744.09,339.52 743.33,339.14 C744.14,339.48 744.44,339.90 743.94,340.39 C743.79,340.54 742.45,340.72 740.46,340.88 C742.43,340.67 743.81,340.46 743.97,340.32 ZM 644.94 248.21 C644.94,248.71 644.80,249.00 644.48,249.00 C644.42,249.00 644.27,248.90 644.04,248.72 C644.57,248.95 644.84,248.76 644.94,248.21 ZM 636.17 227.41 C637.18,226.90 638.51,226.50 639.73,226.30 C638.56,226.52 637.30,226.93 636.17,227.41 ZM 709.00 314.62 L 709.00 314.60 C709.00,313.47 711.97,308.10 715.04,303.12 C711.98,308.09 709.02,313.45 709.00,314.62 ZM 715.26 265.97 C714.73,262.13 714.35,262.00 711.69,262.00 C714.37,262.00 714.75,262.09 715.26,265.97 ZM 701.41 383.84 C705.72,387.93 709.16,391.18 711.88,393.78 C708.70,390.77 705.13,387.38 701.41,383.84 ZM 749.06 348.71 C749.29,348.70 749.47,348.62 749.61,348.45 C749.57,348.63 749.54,348.74 749.52,348.77 C749.48,348.81 749.31,348.79 749.06,348.71 ZM 714.35 259.11 L 713.45 259.00 C711.20,258.72 710.21,258.42 709.89,257.73 C710.21,258.42 711.22,258.71 713.50,259.00 C713.80,259.04 714.09,259.08 714.35,259.11 ZM 638.64 232.16 C638.45,232.23 638.30,232.37 638.21,232.56 C638.25,232.46 638.30,232.37 638.38,232.30 C638.45,232.22 638.54,232.18 638.64,232.16 Z" fill="rgb(80,93,94)"/>
<path d="M 648.81 351.29 C650.28,350.19 651.52,348.82 652.40,347.41 C653.90,345.56 655.03,343.78 655.18,342.79 C655.41,341.14 656.06,341.21 660.28,345.02 L 660.28 345.03 C667.53,351.80 677.33,361.04 690.49,373.51 C693.60,376.45 696.40,379.11 698.94,381.50 L 701.41 383.85 C705.14,387.38 708.70,390.77 711.88,393.78 C717.40,399.06 720.00,401.67 721.10,403.11 C721.76,404.20 721.60,404.88 721.07,405.87 C719.44,408.92 720.29,410.88 725.84,416.82 C731.12,422.48 739.25,427.37 741.96,426.51 C743.59,425.99 743.59,426.47 741.91,435.23 C738.40,453.56 737.04,465.72 737.07,478.37 C737.09,484.89 736.93,490.49 736.71,491.52 C736.30,491.68 734.74,492.04 733.00,492.35 C730.46,492.82 729.91,492.72 731.00,491.98 C732.08,491.25 730.66,491.04 726.00,491.23 C719.85,491.49 719.48,491.37 719.17,489.16 C718.70,485.85 720.80,481.14 724.68,476.75 C726.51,474.68 728.00,472.56 728.00,472.03 C728.00,470.27 725.15,472.12 722.50,475.59 C721.07,477.46 719.44,479.00 718.89,479.00 C718.34,479.00 718.11,478.64 718.38,478.20 C718.65,477.76 719.37,467.97 719.97,456.45 C720.57,444.93 721.53,432.22 722.10,428.22 C723.31,419.78 722.74,416.10 719.69,412.76 C718.48,411.44 716.38,408.76 715.00,406.80 C710.04,399.75 691.76,378.98 686.98,374.99 C683.91,372.41 682.31,370.36 682.66,369.45 C683.04,368.47 682.77,368.00 681.85,368.06 C681.23,368.09 680.13,368.44 678.60,369.14 C673.98,371.24 672.48,376.17 667.97,404.00 C666.14,415.29 663.94,425.40 662.76,428.00 C661.63,430.48 660.58,433.08 660.43,433.80 C660.28,434.51 655.41,445.08 649.60,457.30 C648.09,460.46 646.63,463.62 645.27,466.62 C641.51,474.82 638.73,481.29 638.49,482.50 C638.41,482.92 638.32,483.33 638.23,483.74 C638.15,484.05 638.08,484.30 638.04,484.50 C637.92,485.14 637.79,485.75 637.67,486.32 C636.93,489.61 636.17,492.45 635.63,493.97 C635.21,494.94 634.81,495.33 634.43,495.22 C633.04,494.79 631.83,494.43 630.71,494.15 C628.32,493.21 625.68,493.00 621.76,493.45 C621.57,493.47 621.38,493.49 621.20,493.51 C618.72,493.80 617.25,493.96 616.56,493.31 C615.56,492.36 616.21,489.69 617.78,483.13 C617.86,482.81 617.94,482.47 618.02,482.13 C620.60,471.39 623.90,461.60 630.23,446.00 C636.08,431.57 636.44,431.00 639.62,431.00 C642.60,431.00 642.74,428.63 639.88,426.63 C637.98,425.30 637.88,424.79 638.92,421.82 C640.00,418.74 640.64,410.46 642.87,370.12 C643.62,356.58 643.95,354.61 645.61,353.71 C646.48,353.24 647.53,352.43 648.61,351.44 C648.68,351.39 648.75,351.34 648.81,351.29 ZM 718.14 279.58 C717.41,282.83 716.38,285.52 714.73,288.50 C712.59,292.12 709.14,296.93 703.46,304.64 C702.69,305.68 701.94,306.71 701.22,307.72 C697.17,313.27 694.00,318.32 694.00,319.26 C694.00,320.75 692.13,324.70 690.00,328.38 C689.59,328.95 689.22,329.37 688.91,329.55 C688.27,329.95 684.45,326.83 679.90,322.20 C675.55,317.78 672.00,314.70 672.00,315.35 C672.00,316.70 676.26,323.35 679.39,326.87 L 681.50 329.25 L 679.00 328.55 C677.62,328.16 674.03,326.64 671.00,325.17 C665.85,322.67 665.42,322.18 664.26,317.50 C663.48,314.32 663.39,312.38 664.01,312.17 C664.56,311.98 665.01,309.51 665.03,306.67 C665.09,297.06 666.81,287.92 670.06,279.86 C672.98,272.61 673.53,271.87 675.65,272.27 C677.17,272.56 678.00,272.25 678.00,271.38 C678.00,268.18 681.29,262.19 683.63,261.12 C687.51,259.35 686.07,257.92 678.46,255.97 C669.08,253.57 660.45,250.24 658.97,248.46 C658.30,247.66 657.17,247.00 656.47,247.00 C655.73,247.00 654.88,245.19 654.47,242.75 C654.32,241.85 654.06,240.69 653.74,239.45 C653.38,237.54 652.87,235.79 652.19,234.06 C651.01,231.07 650.15,228.55 650.27,228.47 C650.50,228.33 657.32,228.89 679.65,230.89 C689.84,231.81 693.44,232.03 694.52,233.79 C695.12,234.75 694.96,236.17 694.72,238.40 C694.70,238.65 694.67,238.90 694.64,239.16 C694.31,242.37 694.42,245.00 694.90,245.00 C696.02,245.00 696.97,241.42 696.99,237.14 C697.00,234.37 697.30,233.90 698.75,234.43 C699.71,234.78 703.54,236.25 707.25,237.69 L 714.00 240.31 L 711.41 244.91 C709.98,247.43 707.93,251.73 706.84,254.46 C704.96,259.18 704.95,259.49 706.62,260.71 C707.59,261.42 709.81,262.00 711.58,262.00 L 711.59 262.00 L 711.69 262.00 C714.35,262.00 714.73,262.13 715.26,265.97 L 715.26 265.97 C715.33,266.56 715.41,267.23 715.50,268.00 C715.76,270.25 716.05,271.90 716.34,272.97 C716.88,275.11 717.44,275.15 718.18,273.43 C718.67,272.30 718.76,273.99 718.40,277.50 C718.33,278.23 718.25,278.92 718.14,279.58 ZM 798.43 497.44 C795.12,495.48 788.60,490.34 783.95,486.03 L 775.50 478.18 L 780.13 473.34 C785.00,468.26 787.00,465.14 787.00,462.62 C787.00,461.79 784.45,458.36 781.34,455.00 L 775.67 448.88 L 777.78 446.77 L 779.89 444.66 L 785.52 449.58 C785.80,449.82 786.06,450.05 786.32,450.28 C790.87,454.26 792.97,456.09 794.93,455.96 C796.73,455.83 798.41,454.05 801.76,450.74 L 804.70 447.83 L 803.26 449.27 C797.90,454.62 798.08,455.63 803.53,450.84 L 807.13 447.67 L 818.82 459.62 C825.24,466.19 830.84,471.41 831.27,471.21 C831.39,471.16 831.48,471.07 831.52,470.95 C832.80,473.61 833.56,476.36 834.20,479.82 C835.49,486.72 834.30,494.70 832.06,494.20 C831.33,494.04 827.75,493.75 824.11,493.56 C816.82,493.16 813.20,494.27 808.36,498.35 C806.63,499.81 805.04,501.00 804.83,501.00 C804.62,501.00 801.74,499.40 798.43,497.44 ZM 744.24 298.94 C744.73,298.25 745.00,297.76 745.00,297.54 C745.00,297.35 744.99,297.17 744.97,297.01 C745.15,296.01 744.71,295.68 743.71,296.25 C743.00,296.59 741.98,297.52 740.63,299.03 L 737.93 302.06 L 730.18 298.03 C725.92,295.81 722.09,294.00 721.68,294.00 L 721.67 294.00 C721.00,294.02 717.97,298.39 715.04,303.12 C711.97,308.10 709.00,313.47 709.00,314.60 C709.00,314.61 709.00,314.61 709.00,314.62 L 709.00 314.62 L 709.00 314.64 C709.00,315.61 709.86,317.25 711.05,318.66 C711.35,319.02 711.67,319.37 711.99,319.69 L 714.88 322.51 L 712.31 325.20 C712.26,325.25 712.21,325.31 712.15,325.37 L 711.49 326.01 C709.57,327.87 708.00,329.93 708.00,330.59 C708.00,332.83 702.77,333.50 694.75,332.28 C691.48,331.79 691.45,331.63 693.89,327.62 C694.77,326.17 695.74,323.89 696.25,322.11 C696.32,321.90 696.39,321.71 696.44,321.52 C697.02,319.62 698.07,317.36 699.10,315.70 C699.36,315.33 699.62,314.99 699.88,314.68 C700.62,313.81 701.68,312.44 702.94,310.76 L 702.94 310.75 C707.15,305.21 714.20,295.14 717.79,289.44 C720.79,284.66 721.41,284.24 729.17,281.69 L 737.38 278.99 L 740.24 281.73 C742.64,284.03 743.25,284.23 744.04,282.98 C745.12,281.31 746.99,275.14 746.99,273.25 C747.01,270.23 748.95,272.54 752.05,279.25 C755.83,287.45 756.18,292.56 753.65,302.54 C752.82,305.82 751.37,313.67 750.44,320.00 L 750.40 320.25 L 750.39 320.31 C749.34,327.44 748.70,330.48 747.90,331.50 L 743.90 331.50 C742.45,331.28 740.68,330.98 738.93,330.67 L 732.36 329.50 L 733.59 322.20 C734.90,314.45 737.23,309.00 742.00,302.50 C743.00,301.13 743.75,299.93 744.24,298.94 ZM 701.37 294.12 C704.47,289.52 707.00,285.20 707.00,284.53 C707.00,282.99 705.36,281.59 695.76,274.98 L 688.01 269.64 L 685.67 271.84 C682.31,275.00 674.29,291.06 674.75,293.71 C675.40,297.47 681.46,302.59 687.21,304.24 C687.38,304.29 687.54,304.34 687.70,304.38 C689.72,304.97 691.02,305.34 692.18,305.09 C694.40,304.63 696.13,301.92 701.37,294.12 ZM 702.71 368.36 C690.73,357.02 681.12,347.55 681.36,347.30 C681.61,347.06 684.39,347.34 687.54,347.92 C690.70,348.51 695.70,348.70 698.66,348.35 C704.66,347.65 708.00,349.46 708.00,353.42 C708.00,354.59 709.72,357.61 711.82,360.15 C713.91,362.69 717.85,368.02 720.57,371.99 C724.82,378.22 725.50,379.89 725.50,384.11 C725.50,386.80 725.28,389.00 725.00,388.99 C724.72,388.99 714.70,379.70 702.71,368.36 ZM 686.00 301.41 C681.62,299.51 677.00,295.16 677.00,292.94 C677.00,291.16 681.59,282.37 682.96,281.53 C683.40,281.25 685.37,282.56 687.35,284.42 C689.33,286.29 692.96,288.58 695.43,289.53 L 699.91 291.24 L 695.92 297.12 C693.72,300.35 691.38,302.98 690.71,302.96 C690.05,302.94 687.92,302.24 686.00,301.41 ZM 630.60 237.53 C630.23,237.33 629.88,237.16 629.56,237.03 C627.05,235.95 625.00,234.67 625.00,234.19 C625.00,232.56 629.08,229.52 629.81,230.61 C630.70,231.95 634.00,233.17 634.00,232.17 C634.00,231.75 633.54,230.94 632.97,230.37 C632.36,229.76 633.47,228.75 635.18,227.88 C635.51,227.74 635.82,227.59 636.12,227.44 C636.13,227.43 636.15,227.42 636.17,227.41 C637.30,226.93 638.56,226.52 639.73,226.30 C640.51,226.17 641.25,226.12 641.82,226.19 C642.49,226.27 643.16,226.59 643.81,227.11 C645.45,228.60 647.23,231.65 648.55,235.11 C649.43,237.56 650.11,240.25 650.51,242.81 C650.53,242.97 650.55,243.12 650.56,243.28 C650.81,246.15 650.75,247.94 650.43,247.25 C650.10,246.56 649.31,246.00 648.67,246.00 C648.03,245.99 646.71,244.08 645.75,241.75 C644.83,239.52 643.55,237.28 642.31,235.53 C641.26,233.92 640.35,232.71 639.95,232.47 C639.41,232.14 638.96,232.06 638.64,232.16 C638.54,232.18 638.45,232.22 638.38,232.30 C638.30,232.37 638.25,232.46 638.21,232.56 C637.98,233.05 638.13,233.88 638.78,234.80 C640.64,237.42 642.37,240.66 643.52,243.38 C644.40,245.46 644.94,247.24 644.94,248.21 C644.84,248.76 644.57,248.95 644.04,248.72 C643.10,248.00 640.88,245.92 638.44,243.49 C635.39,240.43 633.00,238.60 630.60,237.53 ZM 713.57 317.88 C710.54,315.49 710.63,314.89 715.17,307.89 L 718.28 303.09 L 722.49 306.55 C726.58,309.90 729.00,310.87 729.00,309.17 C729.00,308.71 727.99,307.77 726.75,307.08 C723.28,305.14 720.02,300.58 720.98,299.03 C721.65,297.95 723.19,298.25 728.83,300.57 C733.41,302.46 735.61,303.87 735.17,304.63 C733.99,306.70 718.64,320.00 717.43,320.00 C716.79,320.00 715.06,319.05 713.57,317.88 ZM 743.63 335.38 C744.91,335.74 746.20,336.22 747.20,336.69 C748.61,337.52 749.79,338.54 750.22,339.27 C750.30,339.47 750.35,339.69 750.39,339.95 C750.34,340.67 750.25,342.52 750.17,344.39 C749.97,346.22 749.75,347.79 749.61,348.45 C749.47,348.62 749.29,348.70 749.06,348.71 C748.49,348.54 747.49,348.09 746.40,347.52 C746.24,347.44 746.08,347.37 745.90,347.29 C744.82,346.69 743.40,346.36 741.18,346.25 C737.70,345.88 733.46,346.03 730.01,346.70 C727.35,346.94 725.20,347.23 724.50,347.47 C722.71,348.08 722.68,348.03 724.25,347.03 C725.21,346.41 726.00,344.91 726.00,343.70 C726.00,342.03 726.32,341.61 730.74,341.36 C731.88,341.46 733.65,341.42 736.25,341.24 C737.78,341.13 739.23,341.01 740.46,340.88 C742.45,340.72 743.79,340.54 743.94,340.39 C744.44,339.90 744.14,339.48 743.33,339.14 C742.06,338.52 739.51,338.02 736.83,338.02 C733.72,338.01 731.62,338.24 730.39,338.76 C729.30,338.95 728.34,339.20 727.59,339.52 C726.23,340.10 725.88,340.00 726.39,339.17 C726.80,338.51 726.55,337.98 725.81,337.96 C725.09,337.94 725.84,337.20 727.47,336.31 C728.05,336.00 728.75,335.73 729.54,335.50 C731.61,335.07 733.98,334.77 736.21,334.66 C738.78,334.63 741.43,334.87 743.63,335.38 ZM 714.35 259.11 C714.09,259.08 713.80,259.04 713.50,259.00 C711.22,258.71 710.21,258.42 709.89,257.73 C709.75,257.41 709.74,257.02 709.83,256.50 C710.09,254.95 716.18,242.88 717.57,241.16 C718.02,240.61 725.00,239.18 725.00,239.64 C725.00,239.88 724.31,241.13 723.46,242.41 C723.21,242.81 722.95,243.51 722.69,244.51 C722.68,244.52 722.68,244.53 722.68,244.54 C722.03,246.97 721.40,250.98 720.95,255.69 L 720.95 255.70 C720.81,257.00 720.67,258.40 720.52,259.89 L 720.52 259.89 C719.60,267.95 718.56,270.78 717.71,267.34 L 717.71 267.31 L 717.40 259.50 ZM 812.12 479.75 C812.39,476.86 811.51,475.22 805.17,466.85 C799.22,459.01 796.00,456.22 796.00,458.91 C796.00,459.41 798.92,463.54 802.50,468.08 C806.08,472.61 809.00,476.68 809.00,477.10 C809.00,478.51 807.22,479.02 806.73,477.74 C805.91,475.61 792.30,466.80 790.38,467.16 C788.71,467.49 794.41,472.18 804.97,479.18 C807.99,481.18 811.95,481.50 812.12,479.75 ZM 695.50 286.40 C688.95,283.23 684.77,278.32 686.22,275.52 C686.80,274.41 687.38,273.37 687.51,273.21 C688.12,272.47 703.46,284.38 703.18,285.37 C702.28,288.59 700.50,288.82 695.50,286.40 ZM 731.00 277.54 C731.00,277.39 733.88,274.28 737.41,270.63 C743.53,264.30 746.00,262.70 746.00,265.10 C746.00,266.26 742.95,277.28 742.47,277.82 C742.32,277.99 741.29,277.57 740.18,276.88 C738.64,275.92 737.31,275.88 734.58,276.71 C732.61,277.32 731.00,277.69 731.00,277.54 ZM 795.57 462.75 C799.66,467.49 799.92,467.67 799.59,465.42 C799.25,463.07 788.27,451.32 783.25,447.94 C777.89,444.32 778.53,445.56 785.24,451.79 C788.03,454.38 790.68,456.95 791.11,457.50 C791.54,458.05 793.55,460.41 795.57,462.75 ZM 646.37 344.62 C647.02,338.94 646.90,339.12 650.06,338.77 C652.13,338.54 652.46,338.88 652.22,341.00 C652.07,342.38 650.56,344.85 648.88,346.50 L 645.81 349.50 ZM 808.01 444.55 L 818.53 455.02 C820.36,456.84 821.96,458.47 823.36,459.97 C821.87,458.40 820.19,456.68 818.31,454.81 Z" fill="rgb(121,138,139)"/>
<path d="M 788.75 516.20 C782.74,515.89 781.95,515.19 784.58,512.56 C787.65,509.49 790.12,508.82 795.85,509.47 L 801.50 510.12 L 806.00 505.48 C808.47,502.92 812.17,499.97 814.21,498.92 C818.36,496.77 827.14,496.34 831.66,498.06 C834.15,499.01 834.72,498.81 836.98,496.17 C839.61,493.09 843.70,491.56 846.46,492.62 C847.36,492.97 848.92,494.88 849.94,496.87 C852.25,501.40 854.96,503.89 858.64,504.88 C861.61,505.67 868.36,513.43 867.73,515.32 C867.40,516.31 804.35,517.01 788.75,516.20 ZM 731.50 510.94 C729.30,510.49 725.19,510.09 722.38,510.06 C719.56,510.03 715.84,509.72 714.12,509.38 C711.21,508.79 711.00,508.46 711.00,504.47 L 711.00 500.20 L 717.25 499.49 C720.69,499.09 726.60,498.19 730.39,497.48 C736.89,496.25 737.39,496.29 739.39,498.20 C742.11,500.80 748.46,503.56 753.80,504.47 C756.38,504.90 758.59,506.00 759.51,507.31 C762.58,511.70 761.82,512.01 748.25,511.89 C741.24,511.82 733.70,511.40 731.50,510.94 ZM 609.52 511.03 C609.19,510.50 609.22,507.84 609.58,505.12 C610.22,500.29 610.33,500.15 614.56,499.09 C616.94,498.49 621.72,498.05 625.19,498.11 C631.45,498.21 631.47,498.22 627.37,499.14 C625.10,499.65 622.49,500.91 621.56,501.93 C619.92,503.74 620.14,503.80 628.51,503.65 C636.83,503.51 637.25,503.61 639.58,506.31 C644.26,511.73 643.62,512.00 626.06,512.00 C616.87,512.00 609.86,511.59 609.52,511.03 ZM 822.80 511.80 C824.16,510.44 824.41,508.00 823.19,508.00 C821.45,508.00 818.73,510.76 819.41,511.85 C820.32,513.32 821.29,513.31 822.80,511.80 ZM 847.00 503.54 C847.00,502.26 844.17,500.00 842.57,500.00 C841.33,500.00 842.10,502.36 843.75,503.61 C846.05,505.35 847.00,505.33 847.00,503.54 Z" fill="rgb(138,112,90)"/>
<path d="M 730.20 265.39 C725.21,262.42 724.52,260.32 725.32,250.64 C725.82,244.60 726.31,243.15 728.51,241.25 C731.59,238.58 735.62,238.35 738.19,240.68 C739.67,242.01 740.30,242.10 741.27,241.11 C742.24,240.13 742.13,239.60 740.75,238.57 C737.23,235.98 738.88,230.00 743.11,230.00 C745.73,230.00 746.00,230.32 746.00,233.38 C746.00,235.24 746.67,237.31 747.49,237.99 C748.71,239.01 749.61,238.67 752.52,236.11 C754.47,234.40 756.39,233.00 756.78,233.00 C757.24,233.01 758.38,233.58 759.82,234.48 C758.98,234.11 758.47,234.21 757.91,234.56 C757.23,234.98 758.46,236.91 761.11,239.62 C765.61,244.19 767.42,244.95 768.32,242.61 C768.63,241.79 767.34,240.02 765.18,238.29 C764.92,238.09 764.67,237.89 764.43,237.70 C765.26,238.34 766.08,239.00 766.83,239.64 C770.15,242.49 770.16,242.53 769.32,248.50 C768.51,254.28 768.38,254.49 765.74,254.18 C763.93,253.97 763.00,254.32 763.00,255.23 C763.00,255.98 761.21,258.34 759.02,260.48 C755.28,264.13 754.89,264.28 752.49,263.00 C751.09,262.24 747.69,259.25 744.94,256.35 C740.81,251.98 740.06,250.62 740.58,248.53 C741.06,246.61 740.83,246.00 739.61,246.00 C737.13,246.00 737.48,253.07 740.12,256.42 L 742.24 259.12 L 739.94 261.56 C738.68,262.90 737.01,264.00 736.22,264.00 C735.37,264.00 735.02,264.60 735.35,265.47 C736.32,268.00 734.53,267.97 730.20,265.39 ZM 731.00 379.82 C731.00,379.58 730.10,374.49 729.00,368.50 C726.17,353.08 726.27,351.45 730.15,350.10 C735.87,348.10 746.01,349.54 745.99,352.35 C745.99,352.98 745.55,357.33 745.03,362.00 C744.50,366.67 743.97,372.41 743.84,374.75 C743.63,378.58 743.35,379.00 741.05,379.01 C739.65,379.02 736.81,379.30 734.75,379.64 C732.69,379.98 731.00,380.06 731.00,379.82 ZM 629.38 277.83 L 624.27 276.89 L 623.64 271.69 C623.56,270.98 623.48,270.25 623.42,269.49 C623.53,269.67 623.68,269.70 623.85,269.60 C624.63,269.11 625.02,269.96 625.07,272.19 C625.19,277.86 626.85,272.33 626.93,266.00 C626.96,262.98 627.74,256.86 628.67,252.42 C630.02,245.90 630.15,242.64 628.94,241.50 C631.50,242.19 634.91,244.28 636.95,246.76 C642.49,253.48 643.03,255.50 640.96,261.88 C639.96,264.97 638.42,270.09 637.54,273.25 C636.66,276.41 635.62,278.95 635.22,278.88 C634.82,278.82 632.20,278.34 629.38,277.83 ZM 808.01 444.55 L 818.31 454.81 C820.19,456.68 821.87,458.40 823.36,459.97 C827.45,464.33 829.90,467.57 831.52,470.95 C831.48,471.07 831.39,471.16 831.27,471.21 C830.84,471.41 825.24,466.19 818.82,459.62 L 807.13 447.67 L 803.53 450.84 C798.08,455.63 797.90,454.62 803.26,449.27 L 804.69 447.83 L 804.70 447.83 ZM 728.25 363.79 C728.89,368.25 729.71,370.93 730.38,370.71 C730.99,370.50 731.34,368.74 731.17,366.77 C731.00,364.81 731.34,362.90 731.93,362.54 C733.50,361.57 733.24,358.87 731.18,354.96 C727.53,348.01 726.47,351.20 728.25,363.79 ZM 795.57 462.75 C793.55,460.41 791.54,458.05 791.11,457.50 C790.68,456.95 788.03,454.38 785.24,451.79 C778.53,445.56 777.89,444.32 783.25,447.94 C788.27,451.32 799.25,463.07 799.59,465.42 C799.92,467.67 799.66,467.49 795.57,462.75 ZM 733.63 260.47 C734.52,262.80 737.30,261.92 737.50,259.25 C737.59,258.01 737.95,256.72 738.30,256.37 C738.90,255.77 734.84,252.00 733.59,252.00 C732.81,252.00 732.83,258.40 733.63,260.47 ZM 734.74 225.40 C733.74,224.41 735.11,222.00 736.67,222.00 C737.48,222.00 739.10,222.52 740.29,223.16 C742.41,224.29 742.41,224.33 740.48,225.09 C738.01,226.05 735.52,226.19 734.74,225.40 ZM 623.11 261.85 C623.10,252.70 624.22,243.38 625.88,241.72 C626.02,241.58 626.18,241.48 626.36,241.41 C624.64,242.79 623.76,247.82 623.26,258.40 C623.20,259.67 623.15,260.82 623.11,261.85 Z" fill="rgb(198,193,189)"/>
<path d="M 702.41 379.71 C690.36,368.25 670.49,349.40 658.25,337.83 C637.26,317.99 634.15,314.26 637.04,312.47 C637.61,312.12 645.83,319.21 655.29,328.23 C671.74,343.91 730.17,399.10 730.80,399.55 C730.97,399.67 729.58,399.95 727.72,400.16 C724.50,400.54 723.20,399.49 702.41,379.71 ZM 759.02 432.97 C746.37,420.84 745.64,419.93 747.22,418.35 C748.80,416.77 749.75,417.46 762.45,429.44 C769.90,436.46 776.00,442.52 776.00,442.91 C776.00,443.76 773.81,446.02 773.05,445.95 C772.75,445.92 766.43,440.08 759.02,432.97 ZM 604.98 289.05 C596.87,281.52 596.58,281.10 598.24,279.38 C599.92,277.66 600.14,277.73 603.74,281.11 C605.81,283.05 609.39,286.41 611.71,288.57 C615.50,292.12 615.80,292.72 614.69,294.71 C613.50,296.87 613.24,296.72 604.98,289.05 ZM 760.18 202.15 C759.51,202.05 758.84,202.00 758.15,202.00 C755.85,202.00 754.23,203.19 750.37,207.71 C747.69,210.85 746.17,213.01 747.00,212.52 C748.28,211.75 748.31,211.86 747.16,213.26 C745.98,214.72 746.49,215.34 751.41,218.49 C755.66,221.20 757.57,223.08 756.86,223.74 C757.54,222.96 754.57,220.49 748.18,216.57 C743.68,213.81 740.00,211.03 740.00,210.39 C740.00,208.44 747.59,202.25 750.87,201.53 C752.57,201.16 756.55,201.39 759.72,202.05 C759.87,202.08 760.02,202.11 760.18,202.15 ZM 623.11 261.85 C623.15,260.82 623.20,259.67 623.26,258.40 C623.55,252.23 623.97,247.94 624.61,245.17 C624.25,246.93 624.08,249.18 624.14,251.82 C624.28,257.32 624.31,257.37 625.00,253.50 C625.53,250.55 625.80,252.53 626.04,261.00 C626.22,267.33 626.51,270.02 626.67,267.00 C626.75,265.68 626.96,263.73 627.25,261.56 C627.06,263.31 626.94,264.87 626.93,266.00 C626.85,272.33 625.19,277.86 625.07,272.19 C625.02,269.96 624.63,269.11 623.85,269.60 C623.68,269.70 623.53,269.67 623.42,269.49 C623.21,267.08 623.12,264.47 623.11,261.85 ZM 759.82 234.48 C761.19,235.34 762.84,236.49 764.43,237.70 C764.67,237.89 764.92,238.09 765.18,238.29 C767.34,240.02 768.63,241.79 768.32,242.61 C767.42,244.95 765.61,244.19 761.11,239.62 C758.46,236.91 757.23,234.98 757.91,234.56 C758.47,234.21 758.98,234.11 759.82,234.48 ZM 632.80 282.52 C628.28,281.77 622.80,281.87 623.45,282.91 C623.76,283.42 623.48,284.01 622.83,284.22 C622.17,284.44 621.53,285.94 621.40,287.56 C621.26,289.18 619.99,293.30 618.58,296.73 C617.50,299.34 616.57,302.26 616.19,304.13 C616.39,302.09 617.28,299.59 618.80,296.00 C620.55,291.83 621.47,287.98 621.36,285.25 C621.19,281.27 621.34,281.00 623.84,281.02 C625.47,281.03 629.40,281.74 632.80,282.52 ZM 727.44 355.94 C727.19,350.23 728.47,349.80 731.18,354.96 C731.30,355.19 731.41,355.41 731.52,355.63 C730.42,354.17 730.00,354.03 729.98,355.06 C729.97,356.25 729.82,356.26 729.11,355.14 C728.15,353.62 727.57,354.05 727.44,355.94 ZM 724.02 408.83 C724.04,407.83 724.97,406.23 726.01,404.99 C725.99,405.02 725.97,405.05 725.95,405.09 C724.99,406.88 725.10,407.13 726.66,406.83 C727.23,406.72 727.79,406.36 728.20,405.90 C727.42,407.59 726.06,409.48 725.08,409.81 C724.49,410.00 724.01,409.57 724.02,408.83 ZM 771.25 209.33 C773.64,212.59 774.98,216.69 774.99,221.25 C774.98,216.79 773.57,212.64 771.25,209.33 ZM 619.10 311.19 C617.96,309.93 617.17,308.83 616.69,307.71 C617.25,308.79 618.11,310.01 619.10,311.19 ZM 638.77 285.02 C638.65,284.51 638.33,284.17 637.79,283.90 C638.24,284.06 638.54,284.20 638.65,284.32 C638.74,284.40 638.78,284.65 638.77,285.02 ZM 732.93 360.03 C733.01,361.22 732.68,362.08 731.93,362.54 C732.60,362.13 732.92,361.17 732.93,360.03 ZM 755.82 224.00 C755.79,224.00 755.77,224.00 755.75,224.00 C755.06,224.00 750.72,221.75 746.10,219.00 C750.68,221.73 755.03,223.96 755.82,224.00 ZM 637.35 295.67 C637.04,294.21 637.16,293.01 637.62,291.17 C637.18,293.07 637.06,294.27 637.35,295.67 ZM 628.94 241.49 C629.70,242.21 629.93,243.76 629.66,246.43 C629.91,243.74 629.68,242.21 628.94,241.49 ZM 624.00 315.69 C625.00,316.31 625.85,316.61 626.40,316.40 C625.85,316.61 625.05,316.37 624.00,315.69 ZM 625.57 242.42 C625.81,241.97 626.08,241.64 626.36,241.41 C626.38,241.40 626.40,241.40 626.41,241.39 C626.10,241.63 625.82,241.97 625.57,242.42 ZM 729.75 370.17 C729.98,370.58 730.19,370.77 730.38,370.71 C730.18,370.77 729.97,370.58 729.75,370.17 Z" fill="rgb(184,147,103)"/>
<path d="M 770.50 230.52 C762.64,226.67 761.00,226.32 761.00,228.52 C761.00,229.78 760.28,229.68 756.75,227.91 C749.65,224.35 734.98,215.77 734.41,214.86 C732.98,212.54 738.57,214.52 746.10,219.00 C750.72,221.75 755.06,224.00 755.75,224.00 C755.77,224.00 755.79,224.00 755.82,224.00 C755.82,224.00 755.83,224.00 755.83,224.00 C756.36,224.00 756.70,223.91 756.86,223.74 C757.57,223.08 755.66,221.20 751.41,218.49 C746.49,215.34 745.98,214.72 747.16,213.26 C748.31,211.86 748.28,211.75 747.00,212.52 C746.17,213.01 747.69,210.85 750.37,207.71 C754.23,203.19 755.85,202.00 758.15,202.00 C758.84,202.00 759.51,202.05 760.18,202.15 C764.83,203.22 768.66,205.78 771.25,209.33 C773.57,212.64 774.98,216.79 774.99,221.25 L 774.99 221.25 C775.00,224.56 776.57,224.90 777.33,221.75 C778.14,218.38 776.60,211.71 774.07,207.62 C771.29,203.12 773.09,202.82 777.10,207.11 C782.44,212.82 784.37,225.70 780.87,232.25 C779.59,234.64 778.57,234.47 770.50,230.52 ZM 629.25 319.28 C628.56,319.04 628.00,318.15 628.00,317.31 C628.00,316.32 627.44,316.00 626.40,316.40 C625.85,316.61 625.05,316.37 624.00,315.69 C623.02,315.04 621.82,314.00 620.40,312.56 C619.92,312.07 619.49,311.62 619.10,311.19 C618.11,310.01 617.25,308.79 616.69,307.71 C616.21,306.60 616.05,305.46 616.19,304.13 C616.57,302.26 617.50,299.34 618.58,296.73 C619.99,293.30 621.26,289.18 621.40,287.56 C621.53,285.94 622.17,284.44 622.83,284.22 C623.48,284.01 623.76,283.42 623.45,282.91 C622.80,281.87 628.28,281.77 632.80,282.52 C634.86,283.00 636.73,283.50 637.79,283.90 C638.33,284.17 638.65,284.51 638.77,285.02 C638.76,286.00 638.45,287.86 637.94,289.84 C637.82,290.33 637.71,290.76 637.62,291.17 C637.16,293.01 637.04,294.21 637.35,295.67 C637.57,296.75 638.03,297.94 638.76,299.66 C638.79,299.73 638.82,299.80 638.85,299.88 L 638.89 299.98 L 638.91 300.00 C639.00,300.23 639.10,300.45 639.18,300.66 C640.32,303.41 640.77,305.30 640.54,306.39 C640.50,306.57 640.44,306.74 640.36,306.88 C640.01,307.48 639.27,307.62 638.15,307.33 C635.73,306.70 633.44,309.88 632.46,315.26 C631.72,319.31 631.19,319.98 629.25,319.28 ZM 743.51 409.74 C744.14,404.76 744.01,404.34 741.09,401.73 C739.39,400.22 738.00,398.51 738.00,397.92 C738.00,397.34 737.18,397.13 736.17,397.45 C734.29,398.04 730.57,394.91 730.48,392.66 C730.46,392.02 730.07,389.98 729.61,388.13 C728.55,383.79 729.72,383.03 737.50,383.03 C745.55,383.03 746.42,383.70 745.59,389.25 C745.09,392.60 745.43,395.01 746.96,398.90 C749.55,405.46 749.54,409.04 746.93,412.37 C743.74,416.42 742.77,415.68 743.51,409.74 ZM 625.57 242.42 C625.82,241.97 626.10,241.63 626.41,241.39 C627.03,241.16 627.92,241.22 628.94,241.50 C629.68,242.21 629.91,243.74 629.66,246.43 C629.50,248.01 629.17,249.99 628.67,252.42 C628.09,255.20 627.57,258.64 627.25,261.56 C626.96,263.73 626.75,265.68 626.67,267.00 C626.51,270.02 626.22,267.33 626.04,261.00 C625.80,252.53 625.53,250.55 625.00,253.50 C624.31,257.37 624.28,257.32 624.14,251.82 C624.08,249.18 624.25,246.93 624.61,245.17 C624.89,243.99 625.20,243.08 625.57,242.42 ZM 776.50 241.30 C770.69,238.35 762.23,231.76 763.66,231.28 C765.25,230.75 782.07,239.02 782.69,240.64 C783.81,243.55 781.44,243.80 776.50,241.30 ZM 728.25 363.79 C727.79,360.54 727.52,357.92 727.44,355.94 C727.57,354.05 728.15,353.62 729.11,355.14 C729.82,356.26 729.97,356.25 729.98,355.06 C730.00,354.03 730.42,354.17 731.47,355.56 C732.38,357.38 732.85,358.87 732.93,360.03 C732.92,361.17 732.60,362.13 731.93,362.54 C731.34,362.90 731.00,364.81 731.17,366.77 C731.34,368.74 730.99,370.50 730.38,370.71 C730.18,370.77 729.97,370.58 729.75,370.17 C729.24,369.18 728.70,366.93 728.25,363.79 ZM 733.63 260.47 C732.83,258.40 732.81,252.00 733.59,252.00 C734.84,252.00 738.90,255.77 738.30,256.37 C737.95,256.72 737.59,258.01 737.50,259.25 C737.30,261.92 734.52,262.80 733.63,260.47 ZM 729.00 414.03 C729.00,411.85 732.47,406.00 733.77,406.00 C734.54,406.00 735.00,406.34 734.81,406.75 C732.27,412.04 730.48,415.00 729.81,415.00 C729.37,415.00 729.00,414.57 729.00,414.03 ZM 733.00 418.03 C733.00,416.36 736.33,410.00 737.20,410.00 C738.11,410.00 737.27,414.44 735.83,417.25 C734.87,419.12 733.00,419.64 733.00,418.03 ZM 739.64 422.31 C738.44,421.11 738.99,419.00 740.50,419.00 C741.33,419.00 742.00,419.65 742.00,420.44 C742.00,422.11 740.57,423.24 739.64,422.31 ZM 728.64 403.31 C729.00,403.66 728.74,404.73 728.20,405.90 C727.79,406.36 727.23,406.72 726.66,406.83 C725.10,407.13 724.99,406.88 725.95,405.09 C725.97,405.05 725.99,405.02 726.01,404.99 C727.05,403.74 728.19,402.86 728.64,403.31 Z" fill="rgb(236,175,105)"/>
<path d="M 0.00 358.00 L 0.00 0.00 L 732.00 0.00 L 1464.00 0.00 L 1464.00 358.00 L 1464.00 716.00 L 732.00 716.00 L 0.00 716.00 L 0.00 358.00 ZM 761.00 624.90 C839.98,617.39 917.51,568.32 960.76,498.50 C983.90,461.15 997.56,417.35 999.91,373.01 C1004.02,295.45 975.31,221.56 920.18,167.83 C875.21,124.01 821.31,98.85 758.74,92.49 C660.02,82.44 563.11,128.82 508.00,212.50 C498.55,226.84 484.22,256.22 478.99,271.96 C474.05,286.82 469.82,304.26 467.32,320.00 C465.87,329.14 465.51,337.15 465.54,359.00 C465.57,383.10 465.85,388.11 467.86,399.50 C476.02,445.90 491.76,483.39 517.38,517.50 C549.89,560.78 595.14,594.05 645.31,611.57 C682.13,624.43 720.08,628.80 761.00,624.90 ZM 703.29 610.53 C672.30,606.34 647.06,598.56 619.28,584.64 C570.49,560.17 528.82,518.22 505.08,469.65 C493.78,446.53 485.17,418.21 481.31,391.50 C479.01,375.51 479.02,340.07 481.34,324.69 C486.68,289.24 498.78,255.01 516.12,226.29 C534.28,196.22 563.64,166.10 594.00,146.42 C625.55,125.97 659.97,113.25 699.69,107.37 C713.18,105.37 747.51,105.10 761.50,106.88 C791.55,110.71 815.69,117.74 842.63,130.52 C882.85,149.59 918.98,180.94 943.45,218.00 C964.70,250.19 977.04,282.25 983.66,322.50 C986.24,338.15 986.21,376.62 983.61,393.50 C979.31,421.35 969.39,452.16 957.35,475.00 C937.83,512.03 907.57,545.76 872.99,569.00 C842.78,589.32 806.00,603.73 769.50,609.54 C755.54,611.77 716.76,612.34 703.29,610.53 ZM 875.93 519.58 C876.85,518.48 876.80,517.98 875.74,517.33 C874.98,516.87 872.96,514.43 871.24,511.91 C867.33,506.15 861.54,501.00 858.99,501.00 C857.75,501.00 856.35,499.64 855.13,497.25 C852.16,491.44 849.60,489.63 844.21,489.56 L 839.50 489.50 L 838.28 481.20 C837.50,475.88 836.06,471.03 834.28,467.71 C830.97,461.56 810.50,440.00 807.96,440.00 C806.98,440.00 804.29,442.26 801.98,445.03 C795.26,453.05 794.70,453.11 788.13,446.72 C785.03,443.70 781.97,441.07 781.32,440.87 C780.67,440.67 773.92,434.65 766.32,427.50 L 752.50 414.50 L 752.80 409.36 C752.99,406.03 752.36,402.14 751.02,398.36 C749.23,393.29 749.10,391.86 750.08,387.74 C751.12,383.34 751.04,382.85 749.02,381.22 C746.92,379.52 746.88,379.12 747.92,371.65 C748.51,367.36 749.00,362.07 749.00,359.89 C749.00,357.43 749.80,354.84 751.09,353.09 C753.54,349.78 754.89,337.78 753.06,335.57 C751.84,334.10 753.40,322.18 757.13,304.64 C760.06,290.84 759.49,285.14 754.16,274.95 L 749.94 266.90 L 753.40 267.55 C756.60,268.15 757.23,267.81 761.83,262.98 C764.57,260.11 767.29,258.06 767.87,258.42 C770.16,259.83 773.00,255.18 773.00,250.00 C773.00,247.25 773.44,245.00 773.98,245.00 C774.52,245.00 776.73,245.71 778.89,246.57 C783.56,248.44 788.36,248.13 788.78,245.94 C788.94,245.09 787.87,242.62 786.41,240.46 C783.84,236.68 783.79,236.34 785.05,231.52 C787.12,223.56 786.56,216.62 783.32,210.15 C778.35,200.20 769.27,195.32 757.47,196.26 C750.15,196.84 744.53,199.56 739.38,205.01 C737.24,207.27 734.42,209.65 733.09,210.31 C729.03,212.32 728.25,214.57 730.71,217.21 C732.55,219.17 732.67,219.76 731.54,221.29 C730.82,222.27 729.92,225.94 729.54,229.44 L 728.86 235.81 L 722.14 236.49 C716.31,237.07 714.70,236.84 709.95,234.74 C696.44,228.77 687.44,227.08 660.50,225.47 C654.94,225.13 648.83,224.16 646.73,223.27 C642.80,221.61 643.06,221.58 630.09,224.97 C628.21,225.46 625.32,227.22 623.66,228.88 C620.76,231.78 620.62,232.33 620.12,242.70 C619.83,248.64 619.70,258.50 619.83,264.61 C620.01,273.54 619.75,275.96 618.53,276.98 C617.58,277.76 617.00,279.92 617.00,282.62 C617.00,285.03 616.70,287.00 616.33,287.00 C615.97,287.00 612.86,284.30 609.42,281.00 C602.75,274.60 598.81,273.34 595.57,276.57 C592.13,280.01 593.55,283.47 601.57,291.20 C605.74,295.22 609.79,298.86 610.57,299.30 C611.49,299.81 612.00,301.76 612.00,304.77 C612.00,309.05 612.43,309.87 617.22,314.72 C620.08,317.62 622.94,320.00 623.56,320.00 C624.18,320.00 625.50,320.90 626.50,322.00 C628.57,324.28 631.15,324.55 634.00,322.77 C635.61,321.76 636.25,321.82 637.51,323.08 C638.90,324.47 638.86,325.07 637.06,329.13 C632.12,340.31 631.76,343.52 631.26,381.50 L 630.78 417.50 L 625.76 428.50 C619.88,441.34 616.86,449.87 613.50,463.00 C612.16,468.23 609.86,475.88 608.37,480.00 C605.92,486.79 605.66,488.88 605.58,502.00 L 605.50 516.50 L 597.25 516.79 C591.32,517.00 589.00,517.44 589.00,518.37 C589.00,519.08 589.30,519.97 589.67,520.33 C590.03,520.70 654.33,521.00 732.54,521.00 C854.14,521.00 874.93,520.79 875.93,519.58 ZM 646.00 512.95 C646.00,508.00 644.73,505.30 640.86,501.99 C637.93,499.50 637.93,499.46 639.40,495.28 C640.22,492.97 641.34,488.63 641.89,485.64 C642.50,482.34 647.39,470.85 654.36,456.35 C660.67,443.23 666.57,430.29 667.46,427.58 C668.81,423.52 674.77,390.86 675.28,384.75 C675.36,383.79 675.73,383.00 676.10,383.00 C676.72,383.00 698.69,406.86 706.88,416.42 C710.08,420.15 710.21,420.62 709.59,425.92 C707.36,445.11 706.87,454.89 706.70,484.00 L 706.50 516.50 L 676.25 516.76 L 646.00 517.03 L 646.00 512.95 ZM 765.67 516.33 C765.30,515.97 765.00,514.14 765.00,512.28 C765.00,507.12 762.60,503.46 758.02,501.62 C755.79,500.73 752.93,500.00 751.68,500.00 C750.43,500.00 747.54,498.79 745.26,497.31 L 741.11 494.63 L 740.81 483.06 C740.41,468.22 745.69,428.00 748.04,428.00 C748.49,428.00 756.79,435.88 766.47,445.52 C778.83,457.81 783.85,463.44 783.29,464.39 C782.86,465.13 779.91,468.09 776.75,470.97 C773.59,473.85 771.00,476.96 771.00,477.88 C771.00,480.12 790.11,497.41 796.83,501.24 C801.23,503.75 801.92,504.50 800.83,505.58 C799.79,506.60 798.61,506.64 795.38,505.77 C791.64,504.76 790.75,504.92 785.88,507.43 C782.92,508.95 778.91,511.73 776.96,513.60 C774.29,516.16 772.54,517.00 769.87,517.00 C767.93,517.00 766.03,516.70 765.67,516.33 ZM 720.10 364.49 C717.68,360.94 714.87,357.28 713.85,356.36 C712.83,355.44 712.00,353.60 712.00,352.28 C712.00,350.95 710.86,348.37 709.46,346.54 L 706.92 343.21 L 709.46 339.46 C710.86,337.41 712.02,335.00 712.04,334.11 C712.09,331.45 714.34,328.20 717.97,325.53 C719.85,324.14 721.77,323.00 722.23,323.00 C723.51,323.00 721.93,333.28 720.37,335.08 C718.26,337.51 718.53,349.39 720.75,351.60 C722.40,353.24 726.35,371.03 725.06,370.98 C724.75,370.96 722.52,368.05 720.10,364.49 ZM 642.69 298.47 C640.61,294.11 640.59,292.43 642.53,286.91 C643.98,282.80 643.96,282.47 642.13,281.03 C640.21,279.52 640.21,279.39 642.48,270.76 C645.56,259.06 645.39,259.37 649.02,258.65 C651.60,258.13 665.03,261.07 666.82,262.55 C667.00,262.70 665.99,264.57 664.57,266.71 C663.16,268.85 659.82,275.57 657.16,281.64 C652.51,292.24 646.75,302.00 645.14,302.00 C644.72,302.00 643.61,300.41 642.69,298.47 ZM 723.00 272.56 C723.00,265.36 723.75,264.67 728.00,268.00 C729.38,269.08 731.34,269.97 732.37,269.98 C734.82,270.01 733.56,271.54 727.55,275.86 L 723.00 279.12 L 723.00 272.56 Z" fill="rgb(254,254,254)"/>
</g>
</svg>