<svg xmlns="http://www.w3.org/2000/svg" width="1024" height="1024" viewBox="0 0 1024 1024">
<g>
<path d="M 483.00 904.35 C479.98,904.14 470.08,903.04 461.00,901.91 C348.78,887.98 247.93,824.72 184.25,728.31 C153.34,681.52 132.59,625.74 125.06,569.17 C117.80,514.66 121.67,460.80 136.53,409.44 C151.59,357.37 177.90,308.43 213.84,265.61 C224.57,252.83 246.66,231.06 261.31,218.84 C335.17,157.20 426.19,125.71 522.97,128.30 C554.03,129.13 579.46,132.61 609.50,140.13 C700.33,162.89 782.64,221.01 835.92,300.00 C865.81,344.33 884.99,390.10 895.42,442.00 C904.85,488.98 904.70,544.01 895.01,592.00 C877.76,677.36 836.57,748.97 771.14,807.36 C712.49,859.71 639.03,892.75 559.50,902.58 C547.00,904.12 496.13,905.30 483.00,904.35 ZM 479.50 859.91 C493.14,861.32 532.39,861.10 547.15,859.53 C606.81,853.20 657.94,834.56 706.89,801.30 C757.00,767.24 795.88,722.59 822.53,668.50 C836.52,640.11 845.39,614.29 851.49,584.25 C856.72,558.52 857.48,549.72 857.45,515.50 C857.42,487.30 857.15,481.78 855.16,469.00 C848.84,428.42 838.92,396.62 822.40,363.92 C805.14,329.74 784.94,301.99 756.52,273.39 C704.33,220.89 637.31,187.23 563.67,176.54 C467.51,162.57 370.22,188.73 295.50,248.63 C259.10,277.81 226.30,317.59 204.91,358.50 C150.16,463.23 153.61,588.44 214.10,691.63 C220.75,702.98 233.16,720.74 243.35,733.50 C253.61,746.34 280.56,773.20 293.74,783.71 C348.28,827.25 410.57,852.79 479.50,859.91 ZM 767.32 671.60 C766.86,672.80 730.02,673.00 514.56,673.00 C375.84,673.00 262.03,672.70 261.67,672.33 C260.17,670.83 261.27,670.20 266.50,669.54 C271.43,668.93 271.89,668.67 271.01,667.02 C268.64,662.60 270.12,647.94 275.23,625.00 L 280.25 602.50 L 279.39 576.00 C278.92,561.42 278.60,546.46 278.69,542.75 C278.82,536.54 278.05,534.50 276.50,537.00 C274.72,539.88 263.20,536.11 260.95,531.91 C260.27,530.64 260.05,527.22 260.38,523.16 C260.68,519.50 260.91,515.83 260.90,515.00 C260.88,514.17 260.66,506.08 260.41,497.00 C259.98,481.20 260.06,480.33 262.25,476.52 C265.08,471.61 270.46,468.74 289.00,462.27 C301.68,457.84 303.13,457.56 312.83,457.53 L 323.17 457.50 L 324.65 454.00 C325.62,451.71 325.90,449.29 325.44,447.00 C324.28,441.15 324.48,427.75 325.81,423.30 C327.36,418.04 331.41,413.14 335.67,411.36 C341.31,409.01 349.71,409.63 356.66,412.91 C361.99,415.44 363.61,415.75 368.76,415.29 C374.18,414.80 374.86,414.96 376.36,417.10 C378.39,420.00 378.47,425.19 376.54,428.91 C375.24,431.43 369.78,435.00 367.22,435.00 C366.68,435.00 365.49,438.00 364.57,441.68 C361.12,455.40 354.73,464.21 347.21,465.62 L 343.86 466.25 L 348.81 470.87 C351.67,473.55 353.60,475.35 354.88,477.53 C357.51,481.98 357.44,488.03 357.24,506.50 C357.03,525.69 357.36,533.23 358.87,544.13 C359.92,551.63 360.55,558.91 360.28,560.31 C360.01,561.71 360.49,565.03 361.35,567.68 C362.21,570.33 363.04,574.03 363.21,575.89 C363.47,578.91 364.43,579.92 372.00,585.11 C376.67,588.32 380.97,590.95 381.54,590.97 C382.11,590.99 383.89,588.75 385.50,586.00 C387.38,582.78 389.10,581.00 390.32,581.00 C392.28,581.00 409.29,592.22 414.38,596.87 C418.84,600.96 420.95,606.53 420.98,614.32 C420.99,618.06 420.53,622.00 419.96,623.07 C418.71,625.40 410.69,629.61 405.08,630.87 C402.56,631.44 399.37,631.42 396.76,630.84 C390.80,629.50 369.00,616.03 369.00,613.68 C369.00,612.68 370.35,609.90 372.00,607.50 C373.65,605.10 375.00,602.73 375.00,602.24 C375.00,601.07 352.19,585.47 351.50,586.16 C351.21,586.45 351.76,588.67 352.71,591.09 C354.15,594.78 354.52,600.30 354.97,625.00 L 355.50 654.50 L 360.50 657.19 C366.20,660.27 370.00,664.21 370.00,667.06 C370.00,668.66 370.70,669.00 374.00,669.00 C377.14,669.00 378.00,668.62 378.00,667.25 C378.02,661.54 385.41,656.03 393.15,655.96 C397.04,655.93 397.78,655.52 400.11,652.14 C403.40,647.38 408.35,645.00 414.95,645.00 C420.66,645.00 424.29,646.51 427.92,650.40 C429.26,651.83 431.19,653.00 432.22,653.00 C436.12,653.00 439.80,655.92 441.49,660.35 C442.42,662.76 443.02,665.81 442.84,667.12 C442.53,669.31 442.88,669.52 447.32,669.81 C451.91,670.10 452.33,669.91 455.99,665.75 C459.38,661.90 463.29,659.50 469.25,657.62 C470.47,657.23 471.00,656.02 471.00,653.64 C471.00,650.49 470.71,650.17 467.30,649.53 C458.81,647.94 452.01,642.29 450.04,635.22 C448.14,628.36 448.37,628.00 454.55,628.00 C460.44,628.00 464.31,629.47 467.41,632.90 C470.27,636.06 471.00,635.49 471.00,630.12 C471.00,625.46 470.86,625.22 467.86,624.62 C460.09,623.07 454.00,616.01 454.00,608.54 C454.00,605.03 454.04,605.00 458.35,605.00 C463.56,605.00 468.51,607.99 471.35,612.87 C472.82,615.37 473.44,618.74 473.79,626.11 C474.05,631.55 474.55,636.00 474.89,636.00 C475.24,636.00 476.07,635.11 476.75,634.02 C478.67,630.96 485.40,628.00 490.46,628.00 C494.99,628.00 495.00,628.01 495.00,631.53 C495.00,640.97 485.63,649.96 475.75,649.99 C474.42,650.00 474.00,650.83 474.00,653.48 C474.00,656.45 474.40,657.06 476.75,657.62 C481.73,658.82 486.87,661.94 489.71,665.50 C492.01,668.38 493.16,669.00 496.25,669.00 C499.51,669.00 500.00,668.70 500.00,666.67 C500.00,663.76 503.00,660.97 509.75,657.59 L 515.00 654.97 L 515.00 614.25 L 512.00 613.65 L 509.00 613.05 L 509.00 592.00 L 505.35 593.95 C501.25,596.15 498.60,595.46 497.47,591.91 C496.72,589.53 495.05,588.75 478.62,583.08 L 466.78 579.00 L 461.91 583.07 C459.17,585.37 456.55,586.84 455.90,586.44 C454.70,585.69 455.07,579.43 457.17,565.25 C458.49,556.34 459.85,555.99 464.09,563.50 C465.79,566.52 467.52,569.20 467.93,569.46 C469.19,570.23 487.03,572.30 487.60,571.73 C487.89,571.44 486.98,568.92 485.57,566.13 C484.16,563.35 483.00,559.96 483.00,558.62 C483.00,554.49 481.96,553.08 477.48,551.09 C475.11,550.05 472.68,548.28 472.09,547.16 C470.89,544.93 470.65,540.07 471.62,537.55 C471.96,536.66 477.70,531.39 484.37,525.84 C491.04,520.29 496.91,515.36 497.42,514.90 C497.93,514.44 498.40,507.18 498.48,498.78 C498.65,480.90 499.75,477.15 506.59,471.13 L 510.94 467.30 L 506.96 466.11 C502.40,464.74 496.88,459.64 494.11,454.22 C493.06,452.18 490.81,449.48 489.11,448.23 C482.81,443.60 480.41,434.73 483.47,427.42 C485.72,422.02 495.70,412.66 500.80,411.16 C503.57,410.34 505.39,409.12 505.94,407.70 C506.41,406.49 508.18,404.19 509.88,402.58 C512.29,400.29 514.09,399.58 518.23,399.28 C525.36,398.75 529.79,401.10 532.75,406.96 C535.55,412.51 535.60,416.42 532.93,421.39 C530.21,426.47 531.49,429.72 538.13,434.59 C543.56,438.58 544.83,441.58 542.98,446.05 C541.73,449.07 533.59,457.00 531.74,457.00 C531.17,457.00 531.24,457.58 531.89,458.37 C532.61,459.23 535.93,459.92 540.77,460.21 C554.69,461.04 560.97,466.39 570.88,485.87 C580.58,504.95 580.90,508.74 573.55,518.37 C570.19,522.77 570.17,522.84 572.11,524.60 C577.04,529.06 584.36,549.02 582.68,553.40 C581.59,556.22 580.34,554.42 579.12,548.27 C577.28,539.05 575.80,538.26 576.72,547.00 C577.58,555.30 577.47,578.30 576.51,587.25 C575.93,592.76 576.00,593.00 578.20,593.00 C579.92,593.00 581.13,591.82 582.97,588.35 C585.68,583.25 590.03,580.01 594.18,580.00 C595.89,580.00 597.07,579.34 597.44,578.19 C597.76,577.19 599.61,574.83 601.56,572.94 C604.88,569.72 605.55,569.49 612.09,569.40 C617.59,569.31 619.53,568.87 621.28,567.27 C624.76,564.11 627.53,563.00 632.00,563.00 C636.48,563.00 639.24,564.11 642.77,567.32 C644.97,569.33 645.17,569.34 649.77,567.69 C655.66,565.57 657.88,565.57 663.08,567.65 C667.16,569.28 667.21,569.27 669.35,566.75 C670.53,565.35 672.68,563.46 674.13,562.56 C676.31,561.21 676.86,559.96 677.37,555.21 C678.68,542.88 677.94,515.74 675.95,503.50 C674.88,496.90 674.00,489.02 674.01,486.00 C674.02,479.08 677.33,471.68 682.39,467.23 C686.13,463.95 686.39,462.00 683.09,462.00 C679.92,462.00 673.14,456.18 670.01,450.76 C668.34,447.87 666.03,442.46 664.89,438.75 C663.58,434.50 662.27,432.00 661.36,432.00 C658.91,432.00 652.12,428.10 651.03,426.06 C648.41,421.16 650.93,417.59 657.60,416.75 C660.40,416.39 663.57,414.80 667.60,411.74 C677.14,404.48 684.85,403.11 693.03,407.25 C698.91,410.23 702.60,416.35 704.74,426.71 C706.32,434.35 706.31,434.98 704.62,438.73 C702.83,442.71 702.90,443.81 705.59,453.13 C705.97,454.45 707.86,454.85 715.28,455.20 C731.16,455.96 737.36,460.22 751.88,480.34 C763.67,496.67 764.24,499.32 761.39,524.50 C760.52,532.20 759.48,542.39 759.09,547.15 C758.62,552.76 757.74,556.75 756.57,558.54 C754.95,561.01 754.82,563.22 755.24,580.89 C755.67,598.83 756.07,602.33 759.94,622.00 C766.24,654.02 766.39,668.00 760.43,668.00 C759.64,668.00 759.00,668.51 759.00,669.13 C759.00,669.88 760.29,670.05 762.85,669.64 C767.05,668.97 768.15,669.45 767.32,671.60 ZM 342.84 558.52 C343.52,559.20 351.86,558.37 354.51,557.36 C356.38,556.64 356.38,551.32 354.51,540.50 C353.47,534.54 353.29,527.91 353.78,514.50 C354.68,490.16 354.47,485.83 352.13,481.26 C349.20,475.52 343.97,470.74 341.51,471.56 C333.74,474.14 327.37,471.93 324.36,465.63 C322.97,462.71 322.11,462.15 318.23,461.62 C307.91,460.20 303.41,461.04 283.61,468.08 C264.49,474.88 262.33,478.11 263.23,498.57 C263.51,504.89 264.01,510.34 264.33,510.67 C264.66,510.99 268.05,511.49 271.86,511.76 L 278.80 512.25 L 279.41 503.88 C279.75,499.27 280.13,493.70 280.26,491.50 C280.47,487.99 280.78,487.53 282.78,487.74 C284.04,487.88 288.30,487.09 292.24,486.00 C300.35,483.75 302.71,484.50 299.31,488.24 C297.29,490.46 294.74,497.55 289.52,515.50 C288.08,520.45 286.72,525.04 286.50,525.70 C286.28,526.38 294.05,532.24 304.05,538.95 C320.99,550.31 322.29,551.00 326.97,551.00 C331.85,551.00 331.94,550.95 332.92,547.25 C333.46,545.19 336.00,535.40 338.57,525.50 C341.13,515.60 343.99,504.58 344.93,501.00 C346.08,496.59 347.17,494.40 348.31,494.18 C349.24,494.00 350.00,494.44 350.00,495.16 C350.00,495.88 347.46,506.15 344.36,517.98 L 338.73 539.49 L 340.45 548.67 C341.41,553.72 342.48,558.15 342.84,558.52 ZM 282.25 650.76 C290.17,651.68 293.04,652.24 294.50,651.06 C295.56,650.20 295.88,648.44 296.84,645.25 C306.67,612.67 307.78,607.76 308.98,591.50 C310.77,567.18 311.18,564.59 313.36,564.17 C315.00,563.85 315.17,564.33 314.78,568.15 C314.39,571.85 315.35,574.91 321.22,588.70 L 328.12 604.89 L 329.02 624.20 C329.52,634.81 329.94,645.19 329.96,647.25 L 330.00 651.00 L 340.75 651.00 L 351.50 651.00 L 351.20 624.75 C350.91,599.70 350.77,598.13 348.31,590.50 C346.89,586.10 345.31,581.97 344.80,581.32 C344.29,580.67 335.01,574.17 324.19,566.88 L 304.50 553.62 L 293.50 551.92 C287.45,550.98 282.36,550.34 282.20,550.49 C282.03,550.65 282.42,562.19 283.05,576.14 L 284.21 601.50 L 279.11 624.25 C276.30,636.76 274.00,647.62 274.00,648.40 C274.00,649.41 276.29,650.07 282.25,650.76 ZM 684.37 629.79 L 683.68 651.00 L 705.88 651.00 L 706.40 646.75 C706.68,644.41 707.40,634.32 707.98,624.33 C708.92,608.43 709.50,604.56 712.66,593.33 C714.64,586.27 716.75,578.36 717.33,575.75 C718.12,572.23 718.86,571.00 720.20,571.00 C721.19,571.00 722.01,571.34 722.01,571.75 C722.02,572.16 723.14,579.92 724.50,589.00 C726.68,603.57 737.81,647.82 739.89,650.19 C740.49,650.87 759.80,648.54 760.64,647.69 C760.88,647.45 759.05,636.73 756.58,623.86 C752.68,603.52 751.99,597.99 751.39,581.68 L 750.69 562.91 L 747.95 563.51 C743.94,564.39 738.21,561.70 737.43,558.57 C737.07,557.15 736.65,556.00 736.50,556.00 C734.54,556.00 722.03,560.61 720.63,561.85 C717.77,564.36 700.76,586.65 686.51,606.54 C685.40,608.09 684.88,613.64 684.37,629.79 ZM 686.00 598.59 C686.00,600.94 686.71,600.27 691.64,593.25 C694.25,589.54 701.36,580.07 707.44,572.22 L 718.50 557.94 L 726.77 555.34 C733.38,553.27 734.82,552.49 733.94,551.42 C732.65,549.87 733.48,546.61 736.13,542.85 C737.69,540.63 738.00,538.31 738.00,528.79 L 738.00 517.39 L 733.55 514.25 C727.96,510.31 724.40,504.76 720.81,494.38 C717.42,484.61 714.04,469.10 714.02,463.25 C714.00,459.58 713.71,459.00 711.86,459.00 C709.79,459.00 709.74,459.29 710.36,466.75 C710.72,471.01 711.92,478.29 713.03,482.92 C714.14,487.56 714.70,491.69 714.28,492.11 C713.64,492.73 692.46,498.00 690.60,498.00 C689.67,498.00 687.15,487.88 685.93,479.21 C685.18,473.88 684.35,471.06 683.63,471.31 C680.93,472.27 683.62,491.85 691.09,525.75 C693.79,537.98 696.00,548.90 696.00,550.00 C696.00,551.11 693.75,562.18 691.00,574.60 C688.25,587.02 686.00,597.81 686.00,598.59 ZM 619.50 629.82 C621.70,630.85 623.95,631.56 624.50,631.39 C625.05,631.22 633.38,628.78 643.00,625.98 C669.68,618.21 675.75,616.08 676.52,614.20 C676.90,613.26 678.90,606.06 680.98,598.20 L 684.74 583.90 L 682.12 584.45 C680.68,584.75 666.22,586.58 650.00,588.51 C633.78,590.44 615.10,592.68 608.50,593.48 C601.90,594.28 591.55,595.47 585.50,596.11 C579.45,596.75 574.36,597.39 574.19,597.53 C573.87,597.80 586.69,610.24 599.60,622.21 C606.45,628.56 606.85,628.77 611.10,628.37 C614.06,628.08 616.81,628.56 619.50,629.82 ZM 512.58 609.13 C512.87,609.61 524.79,610.00 539.06,610.00 L 565.00 610.00 L 564.99 599.25 C564.97,580.77 562.97,533.57 562.17,532.77 C561.75,532.35 559.65,533.80 557.50,536.00 C555.35,538.20 553.09,540.00 552.46,540.00 C551.84,540.00 549.88,541.82 548.09,544.03 C546.31,546.25 543.08,549.18 540.92,550.55 C538.77,551.91 537.00,553.58 536.99,554.26 C536.98,554.94 535.88,557.87 534.53,560.76 L 532.08 566.02 L 534.11 569.46 C535.60,571.99 535.87,573.36 535.15,574.69 C534.60,575.69 529.46,579.40 523.72,582.94 L 513.28 589.38 L 512.66 598.82 C512.32,604.01 512.28,608.64 512.58,609.13 ZM 748.83 537.10 C751.95,537.43 754.83,537.77 755.23,537.85 C756.78,538.16 758.98,520.27 758.99,507.21 C759.00,497.56 757.94,494.96 748.92,482.41 C737.13,466.03 731.07,460.83 722.09,459.40 L 718.00 458.74 L 718.01 463.62 C718.02,471.52 723.79,493.54 728.10,502.13 C730.28,506.47 735.59,512.00 737.58,512.00 C740.99,512.00 738.93,506.25 732.03,496.54 C728.19,491.14 725.29,486.33 725.59,485.86 C726.95,483.65 729.20,485.79 735.91,495.72 C742.63,505.64 743.12,506.73 742.61,510.47 C741.72,517.04 741.56,534.89 742.39,535.72 C742.81,536.14 745.71,536.76 748.83,537.10 ZM 318.44 669.27 C322.87,669.46 327.17,669.58 328.00,669.54 C329.22,669.48 329.43,668.16 329.15,662.49 C328.96,658.64 328.32,654.91 327.73,654.19 C327.09,653.41 326.27,643.36 325.73,629.69 L 324.81 606.50 L 319.65 594.25 C316.82,587.52 314.24,582.00 313.92,582.00 C313.59,582.00 312.87,588.19 312.30,595.75 C311.38,608.12 310.61,611.78 304.64,632.24 C300.99,644.74 298.00,655.16 298.00,655.40 C298.00,655.64 300.21,657.19 302.91,658.85 C306.37,660.98 308.20,662.92 309.10,665.40 L 310.37 668.93 ZM 706.46 668.41 C705.72,670.18 706.01,670.27 710.47,669.66 C713.12,669.30 717.69,669.00 720.64,669.00 C725.89,669.00 726.00,668.94 726.00,666.10 C726.00,663.30 728.36,660.65 735.00,656.00 L 737.14 654.50 L 730.60 631.49 C727.01,618.84 723.35,603.77 722.48,597.99 C720.17,582.66 719.70,582.05 717.05,590.88 C713.31,603.35 712.24,610.70 710.98,632.50 C710.32,644.05 709.43,653.95 709.01,654.50 C708.59,655.05 708.02,657.97 707.75,661.00 C707.48,664.03 706.90,667.36 706.46,668.41 ZM 547.05 530.55 C549.45,533.00 551.94,535.00 552.59,535.00 C554.06,535.00 570.00,517.70 572.86,513.00 C576.37,507.24 575.69,503.52 568.57,489.29 C559.38,470.94 552.65,464.00 544.03,464.00 L 541.00 464.00 L 541.01 472.75 C541.04,486.77 544.56,498.47 550.40,503.92 C554.89,508.11 554.65,505.16 549.74,496.04 C544.72,486.70 544.19,485.00 546.32,485.00 C547.78,485.00 558.00,502.78 558.00,505.31 C558.00,506.17 555.19,510.32 551.75,514.53 C545.52,522.16 543.28,524.53 543.64,526.41 C543.86,527.60 545.12,528.58 547.05,530.55 ZM 525.50 527.46 C531.65,530.34 534.76,530.26 536.88,527.18 C537.77,525.87 540.77,522.04 543.55,518.65 C547.91,513.34 549.54,511.46 549.35,509.78 C549.23,508.73 548.39,507.76 547.05,506.07 C540.31,497.55 537.02,486.14 537.01,471.17 C537.00,465.74 536.67,463.94 535.75,464.26 C534.84,464.57 534.51,467.89 534.53,476.32 C534.54,483.38 534.15,488.11 533.53,488.35 C530.33,489.56 512.78,492.13 511.38,491.59 C509.95,491.05 509.80,489.76 510.25,482.48 C510.54,477.82 510.43,474.00 510.01,474.00 C508.70,474.00 508.03,478.03 507.36,490.05 C506.66,502.65 506.76,503.04 512.57,510.66 C514.88,513.69 516.15,516.63 516.60,520.04 C517.08,523.64 517.70,525.02 518.88,525.06 C519.77,525.10 522.75,526.17 525.50,527.46 ZM 624.00 669.29 C624.00,669.81 625.01,669.96 626.25,669.63 C627.49,669.30 637.16,669.02 647.75,669.01 L 667.00 669.00 L 667.00 666.17 C667.00,662.78 669.89,659.85 675.87,657.17 L 680.25 655.21 L 680.75 635.61 C681.02,624.82 680.99,616.00 680.67,616.00 C680.35,616.00 678.95,617.15 677.55,618.55 C675.05,621.05 675.00,621.36 675.00,636.00 C675.00,652.01 674.31,655.08 670.29,656.91 C666.79,658.51 663.79,656.40 650.52,643.05 C642.89,635.37 638.83,632.00 637.23,632.00 C635.15,632.00 627.99,634.48 628.00,635.20 C628.01,635.36 629.13,637.71 630.50,640.42 C634.84,648.97 633.19,659.89 626.63,665.92 C625.18,667.26 624.00,668.77 624.00,669.29 ZM 586.48 589.03 C584.97,591.95 584.99,592.00 587.54,592.00 C590.24,592.00 653.08,584.69 665.36,582.95 C669.22,582.40 672.60,581.73 672.88,581.46 C673.61,580.72 665.92,573.05 662.80,571.42 C659.33,569.60 653.20,569.63 650.00,571.48 C648.62,572.27 646.93,573.21 646.24,573.57 C645.53,573.94 643.26,572.66 641.02,570.64 C634.32,564.58 629.12,564.59 622.85,570.68 C619.34,574.07 619.04,574.17 615.59,573.03 C610.50,571.35 606.58,572.54 603.06,576.82 C597.48,583.61 597.01,584.00 594.43,584.00 C590.79,584.00 588.26,585.60 586.48,589.03 ZM 498.02 584.25 C499.76,587.96 501.67,591.00 502.26,591.00 C502.85,591.00 509.81,587.12 517.73,582.38 C528.08,576.18 531.97,573.35 531.56,572.30 C530.77,570.24 514.45,547.62 512.71,546.18 C511.56,545.22 508.96,546.38 499.39,552.10 C492.85,556.00 487.32,559.37 487.10,559.59 C486.73,559.94 488.68,564.34 498.02,584.25 ZM 396.99 627.10 C400.44,628.19 405.54,627.30 411.64,624.54 C416.62,622.28 416.81,622.05 417.47,617.24 C418.25,611.52 416.89,605.40 414.01,601.74 C412.00,599.18 392.55,585.00 391.05,585.00 C390.37,585.00 383.00,596.43 383.00,597.50 C383.00,597.69 387.05,600.42 392.00,603.55 C396.95,606.69 401.00,609.88 401.00,610.63 C401.00,612.94 399.10,612.21 389.86,606.36 C384.96,603.25 380.81,600.89 380.63,601.11 C379.25,602.75 373.00,612.61 373.00,613.13 C373.00,614.50 391.82,625.46 396.99,627.10 ZM 577.48 667.25 L 577.05 670.00 L 587.47 670.00 C593.19,670.00 598.12,669.62 598.41,669.15 C598.70,668.68 597.77,667.21 596.34,665.90 C587.23,657.50 588.17,640.00 598.11,633.14 C600.21,631.69 601.94,630.25 601.96,629.95 C602.03,628.90 577.90,606.76 577.32,607.35 C577.00,607.67 577.26,616.92 577.90,627.89 C578.93,645.62 578.79,658.83 577.48,667.25 ZM 556.51 648.75 C557.01,650.88 557.53,651.00 566.02,651.00 L 575.00 651.00 L 575.00 643.28 C575.00,639.03 574.50,628.12 573.90,619.03 C573.04,606.25 572.42,602.08 571.15,600.63 C569.59,598.87 569.47,599.15 569.00,605.63 L 568.50 612.50 L 560.00 613.36 C555.33,613.83 551.37,614.34 551.22,614.47 C550.93,614.73 555.55,644.62 556.51,648.75 ZM 606.73 667.67 C612.22,669.38 613.09,669.28 619.07,666.25 C625.93,662.78 628.96,657.87 628.98,650.20 C628.99,647.28 628.29,643.52 627.41,641.83 L 625.83 638.76 L 622.11 642.39 C618.97,645.46 618.46,646.54 618.80,649.45 C619.37,654.32 615.24,658.50 610.75,657.60 C606.21,656.69 604.00,654.26 604.00,650.17 C604.00,645.32 606.37,643.00 611.36,643.00 C614.56,643.00 616.10,642.33 618.70,639.80 C620.52,638.05 622.00,636.30 622.00,635.92 C622.00,634.57 615.15,632.00 611.57,632.00 C606.32,632.00 602.02,634.12 597.82,638.77 C588.95,648.61 593.56,663.58 606.73,667.67 ZM 338.97 460.75 C341.78,462.17 343.07,462.85 344.34,462.83 C345.52,462.80 346.68,462.18 349.03,460.99 C351.69,459.63 353.90,457.35 355.84,453.96 C359.11,448.22 362.52,437.78 361.75,435.82 C361.47,435.10 357.73,433.17 353.45,431.55 L 345.67 428.61 L 342.02 432.85 C339.44,435.84 337.88,436.89 336.69,436.43 C335.76,436.08 335.00,435.38 335.00,434.89 C335.00,433.38 330.76,433.90 328.83,435.65 C326.62,437.66 326.50,439.95 328.47,442.56 C329.28,443.63 329.95,446.12 329.97,448.10 C330.01,453.00 333.59,458.03 338.97,460.75 ZM 681.18 457.37 C686.00,459.81 690.79,458.84 694.69,454.62 C697.86,451.19 700.64,443.85 699.49,441.98 C699.16,441.44 699.59,440.00 700.44,438.78 C702.30,436.12 702.46,432.86 700.80,431.20 C699.34,429.74 695.35,429.62 694.50,431.00 C693.36,432.84 690.83,432.03 687.89,428.89 C684.52,425.27 682.89,425.33 673.50,429.36 C668.03,431.72 667.51,432.20 667.64,434.89 C667.80,438.41 672.13,448.18 675.47,452.55 C676.78,454.27 679.35,456.44 681.18,457.37 ZM 381.00 667.65 C381.00,668.80 385.84,668.99 409.75,668.77 L 438.50 668.50 L 438.81 665.24 C439.23,660.93 434.59,656.00 430.11,656.00 C428.07,656.00 426.71,655.33 425.97,653.95 C424.26,650.75 418.93,648.01 414.40,648.00 C409.24,648.00 404.20,651.25 401.50,656.32 C399.61,659.86 399.30,660.03 395.77,659.45 C389.19,658.36 381.00,662.91 381.00,667.65 ZM 518.67 650.33 C519.03,650.70 523.26,651.00 528.07,651.00 L 536.80 651.00 L 537.37 645.25 C537.68,642.09 538.19,635.45 538.50,630.50 C538.81,625.55 539.32,619.81 539.62,617.75 L 540.18 614.00 L 518.00 614.00 L 518.00 631.83 C518.00,641.64 518.30,649.97 518.67,650.33 ZM 503.57 459.80 C510.42,465.45 517.64,463.55 522.03,454.95 C523.11,452.82 524.00,449.51 524.00,447.60 C524.00,445.68 524.45,443.84 525.00,443.50 C526.11,442.81 526.33,439.02 525.39,436.58 C524.60,434.52 520.62,434.55 518.90,436.62 C516.89,439.04 506.39,437.95 499.72,434.63 C494.83,432.19 494.42,432.14 493.19,433.76 C490.31,437.60 497.00,454.38 503.57,459.80 ZM 528.40 450.46 C529.26,453.89 531.02,453.66 535.27,449.53 C541.09,443.87 541.07,442.36 535.07,437.19 C532.13,434.66 528.79,430.52 527.34,427.62 C522.38,417.68 517.27,414.00 508.45,414.00 C502.10,414.00 497.52,415.80 493.68,419.81 L 491.08 422.53 L 493.63 425.79 C498.73,432.30 512.05,436.18 517.12,432.63 C520.25,430.44 524.17,430.57 526.73,432.97 C529.77,435.80 530.37,438.61 528.98,443.56 C528.31,445.96 528.05,449.06 528.40,450.46 ZM 335.00 430.99 C337.16,432.40 337.40,432.31 339.75,429.12 C342.95,424.79 345.74,424.58 355.00,428.00 C359.47,429.65 364.43,431.00 366.01,431.00 C370.18,431.00 374.33,427.07 374.33,423.12 C374.33,418.31 372.85,417.36 367.56,418.77 C363.35,419.90 362.73,419.77 355.53,416.36 C349.07,413.29 347.20,412.82 342.92,413.23 C335.64,413.93 330.25,419.45 328.65,427.83 C328.04,431.03 328.12,431.13 330.76,430.58 C332.27,430.26 334.17,430.45 335.00,430.99 ZM 656.87 426.55 C660.51,428.62 668.18,427.79 675.00,424.60 C682.65,421.01 686.21,421.17 689.39,425.24 C691.40,427.81 692.18,428.22 693.16,427.24 C693.84,426.56 695.66,426.00 697.20,426.00 C699.21,426.00 699.99,425.51 699.98,424.25 C699.94,420.97 696.29,414.43 692.94,411.61 C689.88,409.03 689.06,408.83 682.94,409.17 C676.67,409.53 675.87,409.86 669.50,414.77 C665.78,417.65 661.70,420.00 660.43,420.00 C653.44,420.00 651.53,423.52 656.87,426.55 ZM 712.58 524.10 C710.33,525.12 707.83,525.95 707.00,525.94 C704.13,525.91 699.38,523.24 696.86,520.25 C694.18,517.06 691.42,508.96 692.26,506.77 C692.65,505.75 713.26,499.90 716.18,499.98 C716.56,499.99 717.61,503.34 718.52,507.42 C720.07,514.42 720.07,515.06 718.41,518.55 C717.19,521.11 715.40,522.82 712.58,524.10 ZM 655.01 642.02 C661.88,648.56 667.78,653.93 668.13,653.95 C670.04,654.09 670.82,650.03 671.46,636.75 C671.97,626.21 671.85,622.00 671.06,622.00 C670.13,622.00 648.66,628.05 644.01,629.62 C642.99,629.96 646.46,633.88 655.01,642.02 ZM 692.63 493.21 C692.77,493.44 692.84,493.62 692.97,493.74 C693.41,494.14 694.52,493.81 701.28,492.12 C710.28,489.87 711.33,489.30 710.50,487.15 C709.69,485.05 707.33,472.98 706.48,466.60 L 705.83 461.70 L 703.27 464.46 C700.01,467.98 695.27,469.97 691.75,469.29 C689.27,468.82 689.00,469.05 689.00,471.63 C689.01,474.89 691.88,492.00 692.63,493.21 ZM 538.15 659.91 C538.39,664.03 539.33,665.19 540.32,662.61 C540.61,661.84 543.82,659.81 547.45,658.10 C553.15,655.40 553.97,654.69 553.53,652.74 C553.26,651.51 551.87,643.08 550.46,634.00 C547.89,617.62 547.43,614.65 546.04,614.12 C545.73,614.00 545.37,614.00 544.93,614.00 C543.43,614.00 542.98,614.73 542.93,617.25 C542.68,629.13 540.26,652.98 539.18,654.29 C538.48,655.13 538.02,657.66 538.15,659.91 ZM 331.80 567.67 C341.87,574.45 350.53,580.00 351.05,580.00 C352.66,580.00 352.10,576.40 350.25,574.79 C349.29,573.95 333.74,563.27 315.70,551.05 C288.45,532.60 282.65,529.05 281.42,530.07 C280.60,530.75 280.06,531.67 280.22,532.11 C280.49,532.90 294.08,542.27 331.80,567.67 ZM 671.33 666.42 C671.95,668.04 673.17,668.13 686.25,667.47 C694.09,667.08 701.29,666.34 702.25,665.84 C703.56,665.16 704.00,663.68 704.00,659.96 L 704.00 655.00 L 695.12 655.00 C686.80,655.00 685.87,655.22 680.37,658.44 C671.39,663.71 670.57,664.44 671.33,666.42 ZM 729.00 666.57 C729.00,668.45 733.27,668.42 746.81,666.43 C761.67,664.25 761.95,664.11 761.29,658.81 C760.99,656.44 760.39,654.11 759.96,653.64 C759.53,653.16 755.49,653.10 750.98,653.50 C744.64,654.06 742.41,654.67 741.14,656.19 C740.24,657.28 737.86,659.01 735.85,660.05 C731.44,662.33 729.00,664.65 729.00,666.57 ZM 340.21 667.11 C350.70,668.14 365.28,667.66 365.74,666.28 C365.97,665.60 363.98,663.73 361.32,662.11 C358.67,660.49 354.98,658.21 353.12,657.05 C350.24,655.23 348.49,654.97 341.12,655.21 L 332.50 655.50 L 332.24 659.50 C331.86,665.31 333.01,666.41 340.21,667.11 ZM 543.34 667.45 C543.75,668.51 546.52,668.70 556.68,668.34 C568.37,667.92 572.19,667.95 573.43,666.17 C574.13,665.16 574.00,663.57 574.00,660.98 L 574.00 655.00 L 566.12 655.00 C560.16,655.00 557.93,655.38 556.93,656.58 C556.21,657.45 553.04,659.47 549.88,661.06 C543.72,664.17 542.53,665.33 543.34,667.45 ZM 288.50 667.50 C290.67,668.24 304.91,667.95 305.41,667.15 C306.25,665.79 303.93,663.51 297.80,659.67 C293.18,656.76 290.47,655.87 283.48,654.94 C278.75,654.31 274.74,653.95 274.57,654.15 C274.41,654.34 274.03,656.42 273.73,658.77 C273.02,664.32 274.43,665.68 281.75,666.50 C284.91,666.86 287.95,667.31 288.50,667.50 ZM 504.18 666.25 C503.88,667.85 505.06,668.00 517.86,668.00 C534.26,668.00 535.00,667.65 535.00,659.93 L 535.00 655.00 L 527.33 655.00 C521.43,655.00 519.21,655.40 517.72,656.75 C516.66,657.71 513.25,659.85 510.15,661.50 C507.05,663.15 504.36,665.29 504.18,666.25 ZM 568.58 592.82 C568.81,593.55 569.78,594.00 570.75,593.81 C572.22,593.53 572.63,591.81 573.31,582.99 C574.30,570.12 573.59,546.83 572.05,541.75 C571.23,539.06 570.35,538.00 568.92,538.00 C566.97,538.00 566.94,538.51 567.55,564.75 C567.89,579.46 568.35,592.10 568.58,592.82 ZM 681.66 543.33 C682.88,544.55 691.00,544.08 691.00,542.78 C691.00,542.12 689.20,533.60 687.00,523.86 C684.79,514.13 682.09,500.87 680.98,494.40 C679.88,487.93 678.75,482.42 678.49,482.15 C677.22,480.89 678.22,495.99 680.10,506.62 C681.81,516.28 682.09,520.76 681.59,530.58 C681.26,537.22 681.29,542.96 681.66,543.33 ZM 742.26 558.75 C743.98,560.93 749.85,560.24 752.55,557.55 C754.69,555.40 755.00,554.19 755.00,548.05 C755.00,541.84 754.78,541.00 753.14,541.00 C752.12,541.00 749.30,540.73 746.88,540.40 C742.54,539.80 742.45,539.85 740.11,544.01 C738.42,547.02 738.08,548.43 738.91,548.94 C739.55,549.34 740.34,551.43 740.67,553.58 C741.01,555.74 741.72,558.06 742.26,558.75 ZM 488.04 529.54 C488.86,530.54 490.32,530.18 494.87,527.83 C498.65,525.88 502.81,524.65 506.83,524.28 C512.71,523.75 513.00,523.60 513.00,521.06 C513.00,519.59 511.54,516.22 509.75,513.56 C503.59,504.41 503.00,502.85 503.00,495.69 C503.00,490.98 502.66,489.09 501.90,489.56 C501.12,490.04 501.00,494.06 501.50,502.97 L 502.21 515.69 L 494.60 521.99 C488.86,526.73 487.25,528.59 488.04,529.54 ZM 514.00 479.95 C514.00,484.33 513.85,486.52 514.85,487.39 C515.95,488.35 518.42,487.73 524.00,486.69 L 530.50 485.47 L 530.50 475.74 C530.50,465.96 529.97,464.32 528.01,467.99 C526.34,471.10 521.28,473.27 517.38,472.54 L 514.00 471.91 ZM 703.05 520.73 C704.40,521.41 706.55,521.98 707.83,521.99 C710.83,522.00 716.00,516.84 715.99,513.83 C715.98,509.75 713.92,503.82 712.68,504.28 C712.03,504.53 707.99,505.55 703.69,506.56 C696.13,508.33 695.90,508.48 696.51,510.95 C697.52,515.07 700.42,519.40 703.05,520.73 ZM 268.22 533.24 C270.02,534.14 272.03,534.90 272.68,534.94 C273.99,535.01 278.00,530.31 278.00,528.69 C278.00,528.12 278.67,526.92 279.49,526.01 C280.81,524.55 280.80,523.90 279.38,520.30 C277.82,516.32 277.66,516.22 272.14,515.73 C269.04,515.45 266.15,515.55 265.72,515.94 C264.61,516.96 263.63,526.39 264.34,529.22 C264.68,530.57 266.37,532.32 268.22,533.24 ZM 532.23 547.77 C533.48,548.37 535.37,548.90 536.43,548.93 C538.59,549.01 548.00,539.80 548.00,537.61 C548.00,536.84 546.44,534.84 544.53,533.16 L 541.06 530.11 L 535.51 533.71 C529.81,537.41 528.29,540.04 529.37,544.34 C529.69,545.62 530.98,547.17 532.23,547.77 ZM 525.80 417.62 C528.25,420.70 528.62,420.86 529.75,419.32 C532.47,415.62 530.36,407.77 525.78,404.56 C522.56,402.30 515.83,402.56 512.63,405.07 C509.43,407.60 509.21,410.00 512.18,410.00 C515.78,410.00 522.91,413.99 525.80,417.62 ZM 674.10 576.49 C677.07,580.62 677.69,581.00 681.60,581.00 C683.53,581.00 684.62,581.01 685.36,580.49 C686.33,579.81 686.66,578.22 687.45,574.50 C687.81,572.85 688.32,570.74 688.60,569.80 C689.02,568.37 688.56,568.20 685.66,568.67 C683.00,569.10 681.74,568.74 680.10,567.10 C678.11,565.11 677.77,565.07 675.05,566.47 C670.60,568.77 670.36,571.29 674.10,576.49 ZM 485.67 554.33 C487.21,555.87 487.78,554.68 488.19,549.09 C488.49,544.85 489.38,542.03 491.31,539.11 C497.32,530.02 507.25,528.70 525.75,534.53 C527.40,535.04 528.00,534.83 528.00,533.74 C528.00,530.95 518.88,528.00 510.31,528.02 C498.64,528.05 491.13,531.96 486.90,540.21 C485.06,543.81 484.26,552.93 485.67,554.33 ZM 282.76 519.32 C283.00,519.77 283.39,519.94 283.62,519.71 C284.77,518.56 293.73,490.00 292.94,490.00 C292.44,490.00 290.05,490.53 287.63,491.18 L 283.23 492.35 L 282.77 505.43 C282.52,512.62 282.52,518.87 282.76,519.32 ZM 459.60 666.89 L 457.69 669.00 L 472.35 669.00 C480.41,669.00 487.00,668.62 487.00,668.15 C487.00,666.96 484.05,664.52 480.30,662.62 C474.04,659.45 464.56,661.41 459.60,666.89 ZM 461.97 643.75 C468.21,646.90 469.40,646.73 468.61,642.80 C468.26,641.04 467.28,638.55 466.43,637.25 C462.97,631.98 453.00,628.71 453.00,632.85 C453.00,636.11 457.38,641.43 461.97,643.75 ZM 520.15 549.70 C524.06,555.00 524.38,555.21 525.71,553.41 C526.61,552.20 526.90,550.40 526.51,548.50 C526.17,546.85 525.65,543.88 525.35,541.89 C524.92,538.99 524.13,537.96 521.34,536.62 C516.94,534.53 516.00,535.14 516.00,540.10 C516.00,543.20 516.92,545.33 520.15,549.70 ZM 476.39 642.80 C475.62,646.63 476.60,646.82 482.73,644.04 C487.22,642.00 490.99,637.08 491.00,633.25 C491.00,630.44 489.14,630.38 483.97,633.01 C479.53,635.28 477.33,638.12 476.39,642.80 ZM 491.00 550.15 C491.00,552.93 492.46,552.48 501.88,546.81 C511.55,540.99 513.00,539.62 513.00,536.31 C513.00,533.07 511.48,533.41 506.14,537.86 C503.59,539.99 499.92,542.51 498.00,543.48 C493.17,545.91 491.00,547.98 491.00,550.15 ZM 356.03 576.87 C356.06,580.28 356.15,580.38 357.53,578.56 C358.34,577.49 359.00,575.83 359.00,574.86 C359.00,573.05 356.29,561.96 355.71,561.37 C355.53,561.19 353.05,561.33 350.19,561.66 C345.74,562.19 345.00,562.58 345.00,564.43 C345.00,565.96 346.57,567.53 350.50,569.91 C355.53,572.96 356.00,573.56 356.03,576.87 ZM 479.55 579.53 C486.12,581.84 492.07,583.79 492.77,583.86 C493.66,583.96 493.45,582.84 492.08,580.16 C490.13,576.33 490.09,576.32 481.35,575.09 C476.53,574.42 471.27,573.60 469.66,573.28 C467.51,572.85 466.85,573.04 467.17,574.01 C467.41,574.73 472.98,577.22 479.55,579.53 ZM 485.78 477.44 C484.56,478.30 483.21,479.00 482.78,479.00 C481.31,479.00 478.00,475.00 478.02,473.25 C478.06,470.28 481.82,463.00 483.32,463.00 C484.85,463.00 488.00,470.22 488.00,473.73 C488.00,474.91 487.00,476.59 485.78,477.44 ZM 367.44 591.91 C372.35,595.26 376.69,598.00 377.07,598.00 C377.95,598.00 380.41,595.06 379.89,594.62 C379.68,594.44 375.29,591.48 370.14,588.05 C361.61,582.35 360.63,581.94 359.20,583.37 C358.61,583.96 358.14,584.29 358.08,584.68 C357.94,585.56 359.90,586.77 367.44,591.91 ZM 478.32 547.74 C480.79,548.86 481.96,547.79 481.98,544.40 C481.99,543.24 483.12,540.19 484.49,537.61 C486.55,533.74 486.73,532.83 485.52,532.37 C483.65,531.65 477.38,535.50 475.33,538.62 C474.04,540.58 473.97,541.52 474.95,543.88 C475.61,545.47 477.12,547.20 478.32,547.74 ZM 472.83 439.49 C472.16,445.12 464.76,445.88 463.40,440.46 C462.81,438.12 467.31,428.00 468.93,428.00 C470.35,428.00 473.20,436.41 472.83,439.49 ZM 463.89 619.00 C469.08,621.75 470.36,621.58 469.54,618.25 C468.47,613.88 466.11,610.94 462.45,609.42 C456.50,606.93 455.81,607.69 458.64,613.64 C459.58,615.63 461.80,617.90 463.89,619.00 ZM 333.42 469.03 C334.89,469.63 335.57,469.92 336.16,469.81 C336.70,469.70 337.18,469.24 338.17,468.35 C340.67,466.09 340.49,465.45 336.98,463.99 C335.32,463.30 332.87,461.45 331.54,459.87 C330.22,458.29 328.70,457.00 328.17,457.00 C327.24,457.00 326.00,459.29 326.00,461.01 C326.00,462.47 331.25,468.15 333.42,469.03 ZM 680.50 559.75 C681.19,563.53 683.00,564.13 683.00,560.58 C683.00,557.11 684.00,555.00 685.64,555.00 C688.12,555.00 692.00,551.85 692.00,549.83 C692.00,548.14 691.39,547.93 687.35,548.20 C682.91,548.49 682.63,548.68 681.30,552.50 C680.52,554.73 680.16,557.94 680.50,559.75 ZM 691.62 464.13 C694.03,466.79 695.73,466.47 699.60,462.60 C702.97,459.23 703.73,456.71 702.14,454.20 C701.53,453.24 700.64,453.79 698.72,456.30 C697.29,458.17 694.73,460.28 693.03,460.99 C690.09,462.21 690.02,462.36 691.62,464.13 ZM 517.05 467.56 C519.00,469.91 521.60,469.22 524.90,465.47 C528.16,461.75 528.38,461.14 527.39,458.58 C526.51,456.29 525.66,456.62 523.66,460.01 C522.68,461.66 520.53,463.71 518.87,464.57 C516.42,465.84 516.08,466.39 517.05,467.56 ZM 287.50 547.51 C288.05,547.69 290.30,547.88 292.50,547.92 L 296.50 547.99 L 290.50 544.00 C287.20,541.80 283.99,540.00 283.36,540.00 C282.74,540.00 282.03,541.36 281.78,543.02 C281.40,545.62 281.70,546.13 283.92,546.61 C285.34,546.92 286.95,547.33 287.50,547.51 ZM 348.50 385.99 C348.50,393.35 348.26,394.52 346.71,394.82 C345.08,395.13 344.95,394.36 345.21,386.33 C345.44,379.28 345.80,377.50 347.00,377.50 C348.22,377.50 348.50,379.11 348.50,385.99 ZM 688.25 383.78 C687.88,388.96 687.35,391.00 686.37,391.00 C685.32,391.00 685.00,389.02 685.00,382.50 C685.00,375.90 685.31,374.00 686.39,374.00 C688.47,374.00 688.82,375.81 688.25,383.78 ZM 608.20 652.80 C608.86,653.46 610.12,654.00 611.00,654.00 C615.36,654.00 616.64,647.45 612.49,646.41 C608.18,645.33 605.19,649.79 608.20,652.80 ZM 486.61 439.42 C487.65,442.12 488.68,441.15 488.20,437.92 C487.89,435.82 488.41,433.94 489.82,432.03 C491.66,429.55 491.73,429.02 490.44,427.37 C489.04,425.55 488.96,425.55 487.50,427.44 C486.00,429.39 485.47,436.45 486.61,439.42 ZM 472.79 458.71 C468.58,463.00 466.00,464.14 466.00,461.70 C466.00,459.82 473.28,453.00 475.29,453.00 C477.85,453.00 477.41,454.00 472.79,458.71 ZM 364.48 393.03 C363.10,395.76 361.86,397.99 361.73,397.98 C361.60,397.98 360.85,397.56 360.05,397.05 C358.82,396.27 359.00,395.38 361.23,391.31 C362.69,388.67 364.58,386.35 365.44,386.18 C367.61,385.73 367.40,387.28 364.48,393.03 ZM 704.48 389.03 C702.03,393.88 700.71,394.96 699.54,393.07 C698.52,391.41 703.25,383.00 705.20,383.00 C707.50,383.00 707.48,383.11 704.48,389.03 ZM 674.00 392.46 C674.00,395.31 672.03,394.04 669.07,389.29 C666.10,384.52 665.97,383.00 668.54,383.00 C670.04,383.00 674.00,389.85 674.00,392.46 ZM 334.00 395.46 C334.00,398.54 331.35,396.89 329.20,392.47 C326.61,387.14 326.48,386.00 328.48,386.00 C330.03,386.00 334.00,392.80 334.00,395.46 ZM 459.52 574.50 L 458.88 580.50 L 461.44 577.69 C464.27,574.59 464.49,573.41 462.96,569.40 C461.51,565.58 460.29,567.39 459.52,574.50 ZM 528.31 560.91 C529.47,562.07 532.15,558.61 533.46,554.25 C534.00,552.46 533.74,552.00 532.22,552.00 C529.79,552.00 526.62,559.22 528.31,560.91 ZM 687.00 562.05 C687.00,565.84 688.97,565.58 690.29,561.62 C691.33,558.50 690.79,557.48 688.54,558.35 C687.61,558.70 687.00,560.17 687.00,562.05 ZM 330.13 557.13 C333.91,560.04 335.34,559.21 332.72,555.64 C331.88,554.48 330.82,554.13 329.60,554.60 C327.89,555.26 327.92,555.44 330.13,557.13 ZM 536.00 669.27 C536.00,671.29 538.52,669.16 538.78,666.92 C539.05,664.58 539.01,664.56 537.53,666.44 C536.69,667.51 536.00,668.78 536.00,669.27 ZM 467.41 439.62 C467.91,440.93 468.34,441.06 469.23,440.17 C470.12,439.28 470.12,438.72 469.22,437.82 C467.69,436.29 466.56,437.42 467.41,439.62 ZM 566.40 532.60 C566.72,533.44 567.44,533.85 568.00,533.50 C568.66,533.09 568.61,532.13 567.84,530.69 C566.56,528.31 565.36,529.90 566.40,532.60 ZM 502.64 485.50 C503.58,487.96 504.00,487.23 503.94,483.25 C503.88,479.99 503.75,479.80 502.97,481.75 C502.47,482.99 502.32,484.68 502.64,485.50 Z" fill="rgba(0,0,0,1)"/>
<path d="M 536.00 669.27 C536.00,668.78 536.69,667.51 537.53,666.44 C539.01,664.56 539.05,664.58 538.78,666.92 C538.52,669.16 536.00,671.29 536.00,669.27 Z" fill="rgba(97,93,85,1)"/>
<path d="M 342.84 558.52 C342.48,558.15 341.41,553.72 340.45,548.67 L 338.73 539.49 L 344.36 517.98 C347.46,506.15 350.00,495.88 350.00,495.16 C350.00,494.44 349.24,494.00 348.31,494.18 C347.57,494.32 346.85,495.30 346.12,497.17 C346.48,495.96 346.73,495.19 346.83,495.00 C347.29,494.14 347.07,492.43 346.33,491.00 C345.61,489.62 345.02,487.97 345.01,487.32 C344.99,485.67 350.21,482.18 351.83,482.75 C352.55,483.01 352.65,482.52 352.32,481.63 C353.62,484.32 354.20,487.11 354.27,494.10 C353.27,494.05 351.33,496.62 351.33,498.26 C351.33,499.22 351.72,500.00 352.19,500.00 C352.77,500.00 353.71,498.31 354.27,496.75 C354.24,501.09 354.07,506.79 353.78,514.50 C353.29,527.91 353.47,534.54 354.51,540.50 C354.98,543.25 355.34,545.65 355.57,547.70 C355.28,547.14 354.78,547.00 353.97,547.00 C352.85,547.00 351.65,547.79 351.29,548.75 C350.94,549.71 349.60,551.89 348.32,553.59 C347.05,555.30 346.00,557.24 346.00,557.92 C346.00,558.32 346.21,558.57 346.66,558.68 C344.71,558.82 343.12,558.80 342.84,558.52 ZM 286.50 525.76 C286.49,525.74 286.49,525.72 286.50,525.70 C286.72,525.04 288.08,520.45 289.52,515.50 C294.74,497.55 297.29,490.46 299.31,488.24 C302.71,484.50 300.35,483.75 292.24,486.00 C288.30,487.09 284.04,487.88 282.78,487.74 C280.78,487.53 280.47,487.99 280.26,491.50 C280.21,492.43 280.10,493.96 279.98,495.77 C279.97,495.45 279.97,495.11 279.95,494.75 C279.85,491.31 280.10,487.71 280.49,486.75 C281.44,484.45 280.48,482.11 278.27,481.34 C277.30,481.00 275.07,479.10 273.32,477.11 L 270.47 473.89 C273.54,471.89 277.79,470.15 283.61,468.08 C303.41,461.04 307.91,460.20 318.23,461.62 C322.11,462.15 322.97,462.71 324.36,465.63 C327.19,471.56 333.00,473.86 340.14,471.97 C339.69,472.31 339.22,472.74 338.70,473.28 C335.83,476.25 330.68,478.55 330.19,477.08 C330.00,476.49 328.99,476.00 327.96,476.00 C324.68,476.00 320.90,473.70 319.39,470.79 C318.20,468.49 318.17,467.87 319.25,467.46 C319.97,467.18 320.66,465.86 320.77,464.53 C320.95,462.39 320.46,462.04 316.39,461.43 C313.87,461.05 309.53,461.01 306.74,461.34 C301.16,462.00 286.33,466.66 285.49,468.01 C285.20,468.48 285.78,469.46 286.77,470.18 C287.77,470.91 289.64,473.01 290.94,474.86 C292.24,476.71 294.92,478.90 296.90,479.71 C301.45,481.59 304.00,483.84 304.00,485.97 C304.00,491.14 300.57,498.70 296.50,502.50 C292.82,505.93 291.83,507.78 289.56,515.50 C288.09,520.45 286.73,525.02 286.52,525.66 C286.50,525.69 286.50,525.73 286.50,525.76 ZM 340.00 537.01 C340.00,538.80 340.51,539.08 343.25,538.81 C345.95,538.55 346.69,537.93 347.60,535.10 C348.21,533.22 349.36,531.20 350.16,530.60 C352.12,529.12 354.38,508.84 353.12,504.00 C352.62,502.08 352.16,501.27 352.10,502.22 C352.03,503.40 351.48,503.74 350.34,503.30 C349.18,502.85 348.90,503.03 349.44,503.90 C349.88,504.61 349.55,505.64 348.66,506.32 C346.74,507.80 343.67,519.55 344.42,522.55 C344.77,523.94 344.47,524.99 343.63,525.31 C342.26,525.84 340.00,533.12 340.00,537.01 ZM 315.34 546.41 C312.59,544.66 308.98,542.26 304.05,538.95 C299.60,535.96 295.58,533.14 292.52,530.87 C294.09,531.59 295.16,531.46 297.39,530.77 C299.37,530.16 301.00,529.29 301.00,528.83 C301.00,526.99 302.88,528.15 303.18,530.17 C303.56,532.73 309.79,536.61 311.23,535.17 C311.82,534.58 311.77,533.98 311.09,533.55 C310.49,533.18 310.00,531.98 310.00,530.87 C310.00,529.38 310.56,528.94 312.15,529.18 C315.72,529.71 316.78,532.55 314.75,536.10 C313.79,537.78 313.00,540.49 313.00,542.10 C313.00,543.91 313.47,544.96 315.34,546.41 ZM 279.67 500.31 C279.58,501.52 279.49,502.73 279.41,503.88 L 278.80 512.25 L 271.86 511.76 C269.19,511.57 266.73,511.27 265.38,511.00 C265.42,511.00 265.46,511.00 265.50,511.00 C266.63,511.00 267.00,509.80 267.00,506.19 C267.00,498.79 271.60,494.56 274.75,499.06 C275.50,500.13 277.02,501.00 278.13,501.00 C278.91,501.00 279.39,500.89 279.67,500.31 ZM 264.00 506.44 C264.00,509.36 264.29,510.63 265.08,510.93 C264.67,510.84 264.41,510.75 264.33,510.67 C264.01,510.34 263.51,504.89 263.23,498.57 C262.84,489.68 263.03,484.05 264.93,479.95 C264.54,481.25 264.34,482.93 264.18,485.47 C263.90,489.86 264.13,492.00 264.88,492.00 C265.57,492.00 266.00,494.13 266.00,497.56 C266.00,501.01 265.62,502.88 265.00,502.50 C264.39,502.12 264.00,503.66 264.00,506.44 ZM 287.50 547.51 C286.95,547.33 285.34,546.92 283.92,546.61 C281.70,546.13 281.40,545.62 281.78,543.02 C281.43,545.42 281.71,546.00 283.21,546.00 C285.15,546.00 286.87,542.77 286.07,541.26 C287.34,541.98 288.91,542.94 290.50,544.00 L 296.50 547.99 L 292.50 547.92 C290.30,547.88 288.05,547.69 287.50,547.51 ZM 343.60 506.09 C342.28,511.18 340.35,518.61 338.57,525.50 C337.29,530.42 336.02,535.31 335.00,539.24 C335.15,537.67 340.13,518.69 343.60,506.09 ZM 355.36 556.49 C355.14,556.94 354.86,557.22 354.51,557.36 C353.63,557.70 352.10,558.02 350.44,558.27 C353.29,557.68 354.68,557.33 355.36,556.49 ZM 346.49 473.81 C347.69,474.88 348.93,476.27 350.04,477.83 C349.13,476.60 348.04,475.32 346.88,474.19 C346.75,474.06 346.62,473.93 346.49,473.81 ZM 282.48 540.80 C282.75,540.30 283.07,540.00 283.36,540.00 C283.43,540.00 283.51,540.02 283.62,540.06 C283.16,540.09 282.78,540.34 282.48,540.80 ZM 327.10 551.00 L 326.97 551.00 C325.69,551.00 324.66,550.95 323.49,550.64 C324.61,550.89 325.77,551.00 327.10,551.00 Z" fill="rgba(121,172,197,1)"/>
<path d="M 317.70 548.02 C313.84,545.58 313.00,544.52 313.00,542.10 C313.00,540.49 313.79,537.78 314.75,536.10 C316.78,532.55 315.72,529.71 312.15,529.18 C310.56,528.94 310.00,529.38 310.00,530.87 C310.00,531.98 310.49,533.18 311.09,533.55 C311.77,533.98 311.82,534.58 311.23,535.17 C309.79,536.61 303.56,532.73 303.18,530.17 C302.88,528.15 301.00,526.99 301.00,528.83 C301.00,529.29 299.37,530.16 297.39,530.77 C294.17,531.76 293.36,531.61 289.95,529.35 C287.85,527.96 286.30,526.30 286.52,525.66 C286.73,525.02 288.09,520.45 289.56,515.50 C291.83,507.78 292.82,505.93 296.50,502.50 C300.57,498.70 304.00,491.14 304.00,485.97 C304.00,483.84 301.45,481.59 296.90,479.71 C294.92,478.90 292.24,476.71 290.94,474.86 C289.64,473.01 287.77,470.91 286.77,470.18 C285.78,469.46 285.20,468.48 285.49,468.01 C286.33,466.66 301.16,462.00 306.74,461.34 C309.53,461.01 313.87,461.05 316.39,461.43 C320.46,462.04 320.95,462.39 320.77,464.53 C320.66,465.86 319.97,467.18 319.25,467.46 C318.17,467.87 318.20,468.49 319.39,470.79 C320.90,473.70 324.68,476.00 327.96,476.00 C328.99,476.00 330.00,476.49 330.19,477.08 C330.68,478.55 335.83,476.25 338.70,473.28 C341.63,470.25 343.01,470.40 346.88,474.19 C350.74,477.96 353.94,483.49 351.83,482.75 C350.21,482.18 344.99,485.67 345.01,487.32 C345.02,487.97 345.61,489.62 346.33,491.00 C347.07,492.43 347.29,494.14 346.83,495.00 C346.00,496.57 335.00,537.75 335.00,539.30 C335.00,539.79 334.29,542.62 333.43,545.60 L 331.86 551.00 L 327.12 551.00 C323.59,551.00 321.20,550.25 317.70,548.02 ZM 264.00 506.44 C264.00,503.66 264.39,502.12 265.00,502.50 C265.62,502.88 266.00,501.01 266.00,497.56 C266.00,494.13 265.57,492.00 264.88,492.00 C264.13,492.00 263.90,489.86 264.18,485.47 C264.53,479.97 265.03,478.52 267.36,476.22 L 270.13 473.50 L 273.32 477.11 C275.07,479.10 277.30,481.00 278.27,481.34 C280.48,482.11 281.44,484.45 280.49,486.75 C280.10,487.71 279.85,491.31 279.95,494.75 C280.12,500.41 279.95,501.00 278.13,501.00 C277.02,501.00 275.50,500.13 274.75,499.06 C271.60,494.56 267.00,498.79 267.00,506.19 C267.00,509.80 266.63,511.00 265.50,511.00 C264.39,511.00 264.00,509.83 264.00,506.44 ZM 340.00 537.01 C340.00,533.12 342.26,525.84 343.63,525.31 C344.47,524.99 344.77,523.94 344.42,522.55 C343.67,519.55 346.74,507.80 348.66,506.32 C349.55,505.64 349.88,504.61 349.44,503.90 C348.90,503.03 349.18,502.85 350.34,503.30 C351.48,503.74 352.03,503.40 352.10,502.22 C352.16,501.27 352.62,502.08 353.12,504.00 C354.38,508.84 352.12,529.12 350.16,530.60 C349.36,531.20 348.21,533.22 347.60,535.10 C346.69,537.93 345.95,538.55 343.25,538.81 C340.51,539.08 340.00,538.80 340.00,537.01 ZM 346.00 557.92 C346.00,557.24 347.05,555.30 348.32,553.59 C349.60,551.89 350.94,549.71 351.29,548.75 C351.65,547.79 352.85,547.00 353.97,547.00 C355.74,547.00 356.00,547.64 356.00,551.93 C356.00,554.31 356.01,555.60 355.40,556.43 C354.66,557.43 352.99,557.75 349.25,558.50 C346.98,558.96 346.00,558.78 346.00,557.92 ZM 281.79 543.00 C282.22,540.04 283.43,539.33 285.62,540.77 C287.32,541.87 285.41,546.00 283.21,546.00 C281.71,546.00 281.43,545.42 281.79,543.00 ZM 351.33 498.26 C351.33,496.43 353.76,493.42 354.58,494.24 C355.28,494.95 353.19,500.00 352.19,500.00 C351.72,500.00 351.33,499.22 351.33,498.26 Z" fill="rgba(128,175,197,1)"/>
<path d="M 619.50 629.82 C616.81,628.56 614.06,628.08 611.10,628.37 C606.85,628.77 606.45,628.56 599.60,622.21 C586.69,610.24 573.87,597.80 574.19,597.53 C574.36,597.39 579.45,596.75 585.50,596.11 C591.55,595.47 601.90,594.28 608.50,593.48 C615.10,592.68 633.78,590.44 650.00,588.51 C666.22,586.58 680.68,584.75 682.12,584.45 L 684.74 583.90 L 680.98 598.20 C678.90,606.06 676.90,613.26 676.52,614.20 C675.75,616.08 669.68,618.21 643.00,625.98 C633.38,628.78 625.05,631.22 624.50,631.39 C623.95,631.56 621.70,630.85 619.50,629.82 ZM 512.58 609.13 C512.28,608.64 512.32,604.01 512.66,598.82 L 513.28 589.38 L 523.72 582.94 C529.46,579.40 534.60,575.69 535.15,574.69 C535.87,573.36 535.60,571.99 534.11,569.46 L 532.08 566.02 L 534.53 560.76 C535.88,557.87 536.98,554.94 536.99,554.26 C537.00,553.58 538.77,551.91 540.92,550.55 C543.08,549.18 546.31,546.25 548.09,544.03 C549.88,541.82 551.84,540.00 552.46,540.00 C553.09,540.00 555.35,538.20 557.50,536.00 C559.65,533.80 561.75,532.35 562.17,532.77 C562.97,533.57 564.97,580.77 564.99,599.25 L 565.00 610.00 L 539.06 610.00 C524.79,610.00 512.87,609.61 512.58,609.13 ZM 525.50 527.46 C522.75,526.17 519.77,525.10 518.88,525.06 C517.70,525.02 517.08,523.64 516.60,520.04 C516.15,516.63 514.88,513.69 512.57,510.66 C506.76,503.04 506.66,502.65 507.36,490.05 C508.03,478.03 508.70,474.00 510.01,474.00 C510.43,474.00 510.54,477.82 510.25,482.48 C509.80,489.76 509.95,491.05 511.38,491.59 C512.78,492.13 530.33,489.56 533.53,488.35 C534.15,488.11 534.54,483.38 534.53,476.32 C534.51,467.89 534.84,464.57 535.75,464.26 C536.67,463.94 537.00,465.74 537.01,471.17 C537.02,486.14 540.31,497.55 547.05,506.07 C548.39,507.76 549.23,508.73 549.35,509.78 C549.54,511.46 547.91,513.34 543.55,518.65 C540.77,522.04 537.77,525.87 536.88,527.18 C534.76,530.26 531.65,530.34 525.50,527.46 ZM 498.02 584.25 C488.68,564.34 486.73,559.94 487.10,559.59 C487.32,559.37 492.85,556.00 499.39,552.10 C508.96,546.38 511.56,545.22 512.71,546.18 C514.45,547.62 530.77,570.24 531.56,572.30 C531.97,573.35 528.08,576.18 517.73,582.38 C509.81,587.12 502.85,591.00 502.26,591.00 C501.67,591.00 499.76,587.96 498.02,584.25 ZM 671.33 666.42 C670.57,664.44 671.39,663.71 680.37,658.44 C685.87,655.22 686.80,655.00 695.12,655.00 L 704.00 655.00 L 704.00 659.96 C704.00,663.68 703.56,665.16 702.25,665.84 C701.29,666.34 694.09,667.08 686.25,667.47 C673.17,668.13 671.95,668.04 671.33,666.42 ZM 288.50 667.50 C287.95,667.31 284.91,666.86 281.75,666.50 C274.43,665.68 273.02,664.32 273.73,658.77 C274.03,656.42 274.41,654.34 274.57,654.15 C274.74,653.95 278.75,654.31 283.48,654.94 C290.47,655.87 293.18,656.76 297.80,659.67 C303.93,663.51 306.25,665.79 305.41,667.15 C304.91,667.95 290.67,668.24 288.50,667.50 ZM 340.21 667.11 C333.01,666.41 331.86,665.31 332.24,659.50 L 332.37 657.57 C332.57,657.83 332.94,658.00 333.42,658.00 C334.29,658.00 335.00,657.57 335.00,657.05 C335.00,656.53 337.36,655.93 340.25,655.71 C344.73,655.37 344.56,655.33 339.08,655.41 C335.41,655.46 333.12,655.83 332.44,656.47 L 332.50 655.50 L 341.12 655.21 C348.49,654.97 350.24,655.23 353.12,657.05 C354.25,657.75 356.05,658.87 357.89,660.00 L 357.87 660.00 C356.48,660.00 356.10,663.13 357.21,665.56 C357.67,666.57 358.08,667.18 358.70,667.52 C353.44,667.79 346.17,667.70 340.21,667.11 ZM 485.67 554.33 C484.26,552.93 485.06,543.81 486.90,540.21 C491.13,531.96 498.64,528.05 510.31,528.02 C518.88,528.00 528.00,530.95 528.00,533.74 C528.00,534.83 527.40,535.04 525.75,534.53 C507.25,528.70 497.32,530.02 491.31,539.11 C489.38,542.03 488.49,544.85 488.19,549.09 C487.78,554.68 487.21,555.87 485.67,554.33 ZM 750.22 664.39 C750.90,665.12 753.53,665.24 756.04,664.95 C753.88,665.39 750.90,665.83 746.81,666.43 C738.97,667.58 734.23,668.08 731.64,667.93 C731.84,667.93 732.04,667.93 732.25,667.93 C734.97,667.87 735.18,667.72 733.50,667.00 C732.40,666.53 731.89,666.11 732.37,666.07 C732.85,666.03 732.67,665.30 731.96,664.45 C731.43,663.82 731.07,663.50 730.74,663.47 C731.91,662.36 733.63,661.20 735.85,660.05 C737.86,659.01 740.24,657.28 741.14,656.19 C741.24,656.08 741.34,655.97 741.44,655.87 C741.98,656.42 743.73,657.10 745.54,657.44 C747.92,657.89 749.38,658.84 749.93,660.31 C750.39,661.51 750.37,662.65 749.91,662.82 C749.44,663.00 749.58,663.70 750.22,664.39 ZM 461.97 643.75 C457.38,641.43 453.00,636.11 453.00,632.85 C453.00,628.71 462.97,631.98 466.43,637.25 C467.28,638.55 468.26,641.04 468.61,642.80 C469.40,646.73 468.21,646.90 461.97,643.75 ZM 520.15 549.70 C516.92,545.33 516.00,543.20 516.00,540.10 C516.00,535.14 516.94,534.53 521.34,536.62 C524.13,537.96 524.92,538.99 525.35,541.89 C525.65,543.88 526.17,546.85 526.51,548.50 C526.90,550.40 526.61,552.20 525.71,553.41 C524.38,555.21 524.06,555.00 520.15,549.70 ZM 476.39 642.80 C477.33,638.12 479.53,635.28 483.97,633.01 C489.14,630.38 491.00,630.44 491.00,633.25 C490.99,637.08 487.22,642.00 482.73,644.04 C476.60,646.82 475.62,646.63 476.39,642.80 ZM 479.55 579.53 C472.98,577.22 467.41,574.73 467.17,574.01 C466.85,573.04 467.51,572.85 469.66,573.28 C471.27,573.60 476.53,574.42 481.35,575.09 C490.09,576.32 490.13,576.33 492.08,580.16 C493.45,582.84 493.66,583.96 492.77,583.86 C492.07,583.79 486.12,581.84 479.55,579.53 ZM 463.89 619.00 C461.80,617.90 459.58,615.63 458.64,613.64 C455.81,607.69 456.50,606.93 462.45,609.42 C466.11,610.94 468.47,613.88 469.54,618.25 C470.36,621.58 469.08,621.75 463.89,619.00 ZM 608.20 652.80 C605.19,649.79 608.18,645.33 612.49,646.41 C616.64,647.45 615.36,654.00 611.00,654.00 C610.12,654.00 608.86,653.46 608.20,652.80 ZM 459.52 574.50 C460.29,567.39 461.51,565.58 462.96,569.40 C464.49,573.41 464.27,574.59 461.44,577.69 L 458.88 580.50 ZM 528.31 560.91 C526.62,559.22 529.79,552.00 532.22,552.00 C533.74,552.00 534.00,552.46 533.46,554.25 C532.15,558.61 529.47,562.07 528.31,560.91 ZM 752.87 653.36 C756.57,653.13 759.59,653.23 759.96,653.64 C760.39,654.11 760.99,656.44 761.29,658.81 C761.45,660.14 761.56,661.14 761.39,661.94 C761.47,661.22 761.45,660.33 761.31,659.48 C760.87,656.64 760.62,656.48 756.92,656.84 C753.15,657.20 752.38,656.58 752.92,653.63 C752.94,653.52 752.92,653.43 752.87,653.36 ZM 504.78 505.52 C504.60,505.20 504.44,504.90 504.29,504.62 L 502.08 500.50 L 502.04 508.18 L 502.02 512.33 L 501.50 502.97 C501.00,494.06 501.12,490.04 501.90,489.56 C502.66,489.09 503.00,490.98 503.00,495.69 C503.00,500.05 503.22,502.33 504.78,505.52 ZM 502.64 485.50 C502.32,484.68 502.47,482.99 502.97,481.75 C503.75,479.80 503.88,479.99 503.94,483.25 C504.00,487.23 503.58,487.96 502.64,485.50 ZM 745.09 654.26 C746.52,653.96 748.41,653.73 750.98,653.50 C751.04,653.50 751.10,653.49 751.15,653.49 C750.28,653.78 749.11,654.00 748.42,654.00 C747.64,654.00 746.95,654.79 746.88,655.75 C746.77,657.42 746.75,657.42 746.31,655.75 C746.13,655.07 745.64,654.55 745.09,654.26 ZM 741.94 655.46 C742.24,655.24 742.59,655.05 743.01,654.87 C743.00,654.93 743.00,654.99 743.00,655.06 C743.00,655.61 742.53,655.78 741.94,655.46 ZM 365.74 666.28 C365.80,665.87 364.99,664.92 363.85,663.88 C365.12,664.92 365.89,665.84 365.74,666.28 C365.74,666.28 365.74,666.28 365.74,666.28 ZM 729.00 666.57 C729.00,666.15 729.12,665.71 729.35,665.25 C729.15,665.79 729.02,666.35 729.02,666.75 L 729.02 666.76 C729.01,666.70 729.00,666.64 729.00,666.57 ZM 512.93 520.42 C512.63,518.76 511.31,515.89 509.75,513.57 C509.56,513.28 509.36,512.98 509.15,512.67 C509.34,512.96 509.54,513.26 509.75,513.56 C511.31,515.89 512.63,518.76 512.93,520.42 Z" fill="rgba(160,171,139,1)"/>
<path d="M 282.25 650.76 C276.29,650.07 274.00,649.41 274.00,648.40 C274.00,647.62 276.30,636.76 279.11,624.25 L 284.21 601.50 L 283.05 576.14 C282.42,562.19 282.03,550.65 282.20,550.49 C282.36,550.34 287.45,550.98 293.50,551.92 L 304.50 553.62 L 324.19 566.88 C335.01,574.17 344.29,580.67 344.80,581.32 C345.31,581.97 346.89,586.10 348.31,590.50 C350.77,598.13 350.91,599.70 351.20,624.75 L 351.50 651.00 L 340.75 651.00 L 330.00 651.00 L 329.96 647.25 C329.94,645.19 329.52,634.81 329.02,624.20 L 328.12 604.89 L 321.22 588.70 C315.35,574.91 314.39,571.85 314.78,568.15 C315.17,564.33 315.00,563.85 313.36,564.17 C311.18,564.59 310.77,567.18 308.98,591.50 C307.78,607.76 306.67,612.67 296.84,645.25 C295.88,648.44 295.56,650.20 294.50,651.06 C293.04,652.24 290.17,651.68 282.25,650.76 ZM 684.37 629.79 C684.88,613.64 685.40,608.09 686.51,606.54 C700.76,586.65 717.77,564.36 720.63,561.85 C722.03,560.61 734.54,556.00 736.50,556.00 C736.65,556.00 737.07,557.15 737.43,558.57 C738.21,561.70 743.94,564.39 747.95,563.51 L 750.69 562.91 L 751.39 581.68 C751.99,597.99 752.68,603.52 756.58,623.86 C759.05,636.73 760.88,647.45 760.64,647.69 C759.80,648.54 740.49,650.87 739.89,650.19 C737.81,647.82 726.68,603.57 724.50,589.00 C723.14,579.92 722.02,572.16 722.01,571.75 C722.01,571.34 721.19,571.00 720.20,571.00 C718.86,571.00 718.12,572.23 717.33,575.75 C716.75,578.36 714.64,586.27 712.66,593.33 C709.50,604.56 708.92,608.43 707.98,624.33 C707.40,634.32 706.68,644.41 706.40,646.75 L 705.88 651.00 L 683.68 651.00 ZM 686.00 598.59 C686.00,597.81 688.25,587.02 691.00,574.60 C693.75,562.18 696.00,551.11 696.00,550.00 C696.00,548.90 693.79,537.98 691.09,525.75 C683.62,491.85 680.93,472.27 683.63,471.31 C684.35,471.06 685.18,473.88 685.93,479.21 C687.15,487.88 689.67,498.00 690.60,498.00 C692.46,498.00 713.64,492.73 714.28,492.11 C714.70,491.69 714.14,487.56 713.03,482.92 C711.92,478.29 710.72,471.01 710.36,466.75 C709.74,459.29 709.79,459.00 711.86,459.00 C713.71,459.00 714.00,459.58 714.02,463.25 C714.04,469.10 717.42,484.61 720.81,494.38 C724.40,504.76 727.96,510.31 733.55,514.25 L 738.00 517.39 L 738.00 528.79 C738.00,538.31 737.69,540.63 736.13,542.85 C733.48,546.61 732.65,549.87 733.94,551.42 C734.82,552.49 733.38,553.27 726.77,555.34 L 718.50 557.94 L 707.44 572.22 C701.36,580.07 694.25,589.54 691.64,593.25 C686.71,600.27 686.00,600.94 686.00,598.59 ZM 586.48 589.03 C588.26,585.60 590.79,584.00 594.43,584.00 C597.01,584.00 597.48,583.61 603.06,576.82 C606.58,572.54 610.50,571.35 615.59,573.03 C619.04,574.17 619.34,574.07 622.85,570.68 C629.12,564.59 634.32,564.58 641.02,570.64 C643.26,572.66 645.53,573.94 646.24,573.57 C646.93,573.21 648.62,572.27 650.00,571.48 C653.20,569.63 659.33,569.60 662.80,571.42 C665.92,573.05 673.61,580.72 672.88,581.46 C672.60,581.73 669.22,582.40 665.36,582.95 C653.08,584.69 590.24,592.00 587.54,592.00 C584.99,592.00 584.97,591.95 586.48,589.03 ZM 396.99 627.10 C391.82,625.46 373.00,614.50 373.00,613.13 C373.00,612.61 379.25,602.75 380.63,601.11 C380.81,600.89 384.96,603.25 389.86,606.36 C399.10,612.21 401.00,612.94 401.00,610.63 C401.00,609.88 396.95,606.69 392.00,603.55 C387.05,600.42 383.00,597.69 383.00,597.50 C383.00,596.43 390.37,585.00 391.05,585.00 C392.55,585.00 412.00,599.18 414.01,601.74 C416.89,605.40 418.25,611.52 417.47,617.24 C416.81,622.05 416.62,622.28 411.64,624.54 C405.54,627.30 400.44,628.19 396.99,627.10 ZM 606.73 667.67 C593.56,663.58 588.95,648.61 597.82,638.77 C602.02,634.12 606.32,632.00 611.57,632.00 C615.15,632.00 622.00,634.57 622.00,635.92 C622.00,636.30 620.52,638.05 618.70,639.80 C616.10,642.33 614.56,643.00 611.36,643.00 C606.37,643.00 604.00,645.32 604.00,650.17 C604.00,654.26 606.21,656.69 610.75,657.60 C615.24,658.50 619.37,654.32 618.80,649.45 C618.46,646.54 618.97,645.46 622.11,642.39 L 625.83 638.76 L 627.41 641.83 C628.29,643.52 628.99,647.28 628.98,650.20 C628.96,657.87 625.93,662.78 619.07,666.25 C613.09,669.28 612.22,669.38 606.73,667.67 ZM 381.00 667.65 C381.00,662.91 389.19,658.36 395.77,659.45 C399.30,660.03 399.61,659.86 401.50,656.32 C404.20,651.25 409.24,648.00 414.40,648.00 C418.93,648.01 424.26,650.75 425.97,653.95 C426.71,655.33 428.07,656.00 430.11,656.00 C434.59,656.00 439.23,660.93 438.81,665.24 L 438.50 668.50 L 409.75 668.77 C385.84,668.99 381.00,668.80 381.00,667.65 ZM 528.40 450.46 C528.05,449.06 528.31,445.96 528.98,443.56 C530.37,438.61 529.77,435.80 526.73,432.97 C524.17,430.57 520.25,430.44 517.12,432.63 C512.05,436.18 498.73,432.30 493.63,425.79 L 491.08 422.53 L 493.68 419.81 C497.52,415.80 502.10,414.00 508.45,414.00 C517.27,414.00 522.38,417.68 527.34,427.62 C528.79,430.52 532.13,434.66 535.07,437.19 C541.07,442.36 541.09,443.87 535.27,449.53 C531.02,453.66 529.26,453.89 528.40,450.46 ZM 335.00 430.99 C334.17,430.45 332.27,430.26 330.76,430.58 C328.12,431.13 328.04,431.03 328.65,427.83 C330.25,419.45 335.64,413.93 342.92,413.23 C347.20,412.82 349.07,413.29 355.53,416.36 C362.73,419.77 363.35,419.90 367.56,418.77 C372.85,417.36 374.33,418.31 374.33,423.12 C374.33,427.07 370.18,431.00 366.01,431.00 C364.43,431.00 359.47,429.65 355.00,428.00 C345.74,424.58 342.95,424.79 339.75,429.12 C337.40,432.31 337.16,432.40 335.00,430.99 ZM 656.87 426.55 C651.53,423.52 653.44,420.00 660.43,420.00 C661.70,420.00 665.78,417.65 669.50,414.77 C675.87,409.86 676.67,409.53 682.94,409.17 C689.06,408.83 689.88,409.03 692.94,411.61 C696.29,414.43 699.94,420.97 699.98,424.25 C699.99,425.51 699.21,426.00 697.20,426.00 C695.66,426.00 693.84,426.56 693.16,427.24 C692.18,428.22 691.40,427.81 689.39,425.24 C686.21,421.17 682.65,421.01 675.00,424.60 C668.18,427.79 660.51,428.62 656.87,426.55 ZM 712.58 524.10 C715.40,522.82 717.19,521.11 718.41,518.55 C720.07,515.06 720.07,514.42 718.52,507.42 C717.61,503.34 716.56,499.99 716.18,499.98 C713.26,499.90 692.65,505.75 692.26,506.77 C691.42,508.96 694.18,517.06 696.86,520.25 C699.38,523.24 704.13,525.91 707.00,525.94 C707.83,525.95 710.33,525.12 712.58,524.10 ZM 331.80 567.67 C294.08,542.27 280.49,532.90 280.22,532.11 C280.06,531.67 280.60,530.75 281.42,530.07 C282.65,529.05 288.45,532.60 315.70,551.05 C333.74,563.27 349.29,573.95 350.25,574.79 C352.10,576.40 352.66,580.00 351.05,580.00 C350.53,580.00 341.87,574.45 331.80,567.67 ZM 703.05 520.73 C700.42,519.40 697.52,515.07 696.51,510.95 C695.90,508.48 696.13,508.33 703.69,506.56 C707.99,505.55 712.03,504.53 712.68,504.28 C713.92,503.82 715.98,509.75 715.99,513.83 C716.00,516.84 710.83,522.00 707.83,521.99 C706.55,521.98 704.40,521.41 703.05,520.73 ZM 525.80 417.62 C522.91,413.99 515.78,410.00 512.18,410.00 C509.21,410.00 509.43,407.60 512.63,405.07 C515.83,402.56 522.56,402.30 525.78,404.56 C530.36,407.77 532.47,415.62 529.75,419.32 C528.62,420.86 528.25,420.70 525.80,417.62 ZM 459.60 666.89 C464.56,661.41 474.04,659.45 480.30,662.62 C484.05,664.52 487.00,666.96 487.00,668.15 C487.00,668.62 480.41,669.00 472.35,669.00 L 457.69 669.00 ZM 750.22 664.39 C749.58,663.70 749.44,663.00 749.91,662.82 C750.37,662.65 750.39,661.51 749.93,660.31 C749.38,658.84 747.92,657.89 745.54,657.44 C743.58,657.07 741.69,656.30 741.33,655.73 C740.96,655.13 741.18,654.99 741.85,655.40 C742.48,655.80 743.00,655.64 743.00,655.06 C743.00,653.29 745.82,653.88 746.31,655.75 C746.75,657.42 746.77,657.42 746.88,655.75 C746.95,654.79 747.64,654.00 748.42,654.00 C749.20,654.00 750.57,653.72 751.46,653.38 C752.35,653.03 753.01,653.15 752.92,653.63 C752.38,656.58 753.15,657.20 756.92,656.84 C760.62,656.48 760.87,656.64 761.31,659.48 C761.57,661.14 761.41,662.91 760.94,663.40 C759.43,665.01 751.48,665.74 750.22,664.39 ZM 367.44 591.91 C359.90,586.77 357.94,585.56 358.08,584.68 C358.14,584.29 358.61,583.96 359.20,583.37 C360.63,581.94 361.61,582.35 370.14,588.05 C375.29,591.48 379.68,594.44 379.89,594.62 C380.41,595.06 377.95,598.00 377.07,598.00 C376.69,598.00 372.35,595.26 367.44,591.91 ZM 357.21 665.56 C356.10,663.13 356.48,660.00 357.87,660.00 C359.52,660.00 366.08,665.28 365.73,666.33 C365.52,666.97 363.78,667.63 361.86,667.80 C358.94,668.05 358.17,667.68 357.21,665.56 ZM 486.61 439.42 C485.47,436.45 486.00,429.39 487.50,427.44 C488.96,425.55 489.04,425.55 490.44,427.37 C491.73,429.02 491.66,429.55 489.82,432.03 C488.41,433.94 487.89,435.82 488.20,437.92 C488.68,441.15 487.65,442.12 486.61,439.42 ZM 330.13 557.13 C327.92,555.44 327.89,555.26 329.60,554.60 C330.82,554.13 331.88,554.48 332.72,555.64 C335.34,559.21 333.91,560.04 330.13,557.13 ZM 729.02 666.75 C729.02,666.06 729.40,664.92 729.85,664.20 C730.51,663.17 730.93,663.22 731.96,664.45 C732.67,665.30 732.85,666.03 732.37,666.07 C731.89,666.11 732.40,666.53 733.50,667.00 C735.18,667.72 734.97,667.87 732.25,667.93 C730.27,667.97 729.01,667.51 729.02,666.75 ZM 332.25 656.75 C332.51,655.94 334.90,655.47 339.08,655.41 C344.56,655.33 344.73,655.37 340.25,655.71 C337.36,655.93 335.00,656.53 335.00,657.05 C335.00,657.57 334.29,658.00 333.42,658.00 C332.55,658.00 332.02,657.44 332.25,656.75 Z" fill="rgba(180,145,107,1)"/>
<path d="M 479.50 859.91 C410.57,852.79 348.28,827.25 293.74,783.71 C280.56,773.20 253.61,746.34 243.35,733.50 C233.16,720.74 220.75,702.98 214.10,691.63 C153.61,588.44 150.16,463.23 204.91,358.50 C226.30,317.59 259.10,277.81 295.50,248.63 C370.22,188.73 467.51,162.57 563.67,176.54 C637.31,187.23 704.33,220.89 756.52,273.39 C784.94,301.99 805.14,329.74 822.40,363.92 C838.92,396.62 848.84,428.42 855.16,469.00 C857.15,481.78 857.42,487.30 857.45,515.50 C857.48,549.72 856.72,558.52 851.49,584.25 C845.39,614.29 836.52,640.11 822.53,668.50 C795.88,722.59 757.00,767.24 706.89,801.30 C657.94,834.56 606.81,853.20 547.15,859.53 C532.39,861.10 493.14,861.32 479.50,859.91 ZM 767.32 671.60 C768.15,669.45 767.05,668.97 762.85,669.64 C760.29,670.05 759.00,669.88 759.00,669.13 C759.00,668.51 759.64,668.00 760.43,668.00 C766.39,668.00 766.24,654.02 759.94,622.00 C756.07,602.33 755.67,598.83 755.24,580.89 C754.82,563.22 754.95,561.01 756.57,558.54 C757.74,556.75 758.62,552.76 759.09,547.15 C759.48,542.39 760.52,532.20 761.39,524.50 C764.24,499.32 763.67,496.67 751.88,480.34 C737.36,460.22 731.16,455.96 715.28,455.20 C707.86,454.85 705.97,454.45 705.59,453.13 C702.90,443.81 702.83,442.71 704.62,438.73 C706.31,434.98 706.32,434.35 704.74,426.71 C702.60,416.35 698.91,410.23 693.03,407.25 C684.85,403.11 677.14,404.48 667.60,411.74 C663.57,414.80 660.40,416.39 657.60,416.75 C650.93,417.59 648.41,421.16 651.03,426.06 C652.12,428.10 658.91,432.00 661.36,432.00 C662.27,432.00 663.58,434.50 664.89,438.75 C666.03,442.46 668.34,447.87 670.01,450.76 C673.14,456.18 679.92,462.00 683.09,462.00 C686.39,462.00 686.13,463.95 682.39,467.23 C677.33,471.68 674.02,479.08 674.01,486.00 C674.00,489.02 674.88,496.90 675.95,503.50 C677.94,515.74 678.68,542.88 677.37,555.21 C676.86,559.96 676.31,561.21 674.13,562.56 C672.68,563.46 670.53,565.35 669.35,566.75 C667.21,569.27 667.16,569.28 663.08,567.65 C657.88,565.57 655.66,565.57 649.77,567.69 C645.17,569.34 644.97,569.33 642.77,567.32 C639.24,564.11 636.48,563.00 632.00,563.00 C627.53,563.00 624.76,564.11 621.28,567.27 C619.53,568.87 617.59,569.31 612.09,569.40 C605.55,569.49 604.88,569.72 601.56,572.94 C599.61,574.83 597.76,577.19 597.44,578.19 C597.07,579.34 595.89,580.00 594.18,580.00 C590.03,580.01 585.68,583.25 582.97,588.35 C581.13,591.82 579.92,593.00 578.20,593.00 C576.00,593.00 575.93,592.76 576.51,587.25 C577.47,578.30 577.58,555.30 576.72,547.00 C575.80,538.26 577.28,539.05 579.12,548.27 C580.34,554.42 581.59,556.22 582.68,553.40 C584.36,549.02 577.04,529.06 572.11,524.60 C570.17,522.84 570.19,522.77 573.55,518.37 C580.90,508.74 580.58,504.95 570.88,485.87 C560.97,466.39 554.69,461.04 540.77,460.21 C535.93,459.92 532.61,459.23 531.89,458.37 C531.24,457.58 531.17,457.00 531.74,457.00 C533.59,457.00 541.73,449.07 542.98,446.05 C544.83,441.58 543.56,438.58 538.13,434.59 C531.49,429.72 530.21,426.47 532.93,421.39 C535.60,416.42 535.55,412.51 532.75,406.96 C529.79,401.10 525.36,398.75 518.23,399.28 C514.09,399.58 512.29,400.29 509.88,402.58 C508.18,404.19 506.41,406.49 505.94,407.70 C505.39,409.12 503.57,410.34 500.80,411.16 C495.70,412.66 485.72,422.02 483.47,427.42 C480.41,434.73 482.81,443.60 489.11,448.23 C490.81,449.48 493.06,452.18 494.11,454.22 C496.88,459.64 502.40,464.74 506.96,466.11 L 510.94 467.30 L 506.59 471.13 C499.75,477.15 498.65,480.90 498.48,498.78 C498.40,507.18 497.93,514.44 497.42,514.90 C496.91,515.36 491.04,520.29 484.37,525.84 C477.70,531.39 471.96,536.66 471.62,537.55 C470.65,540.07 470.89,544.93 472.09,547.16 C472.68,548.28 475.11,550.05 477.48,551.09 C481.96,553.08 483.00,554.49 483.00,558.62 C483.00,559.96 484.16,563.35 485.57,566.13 C486.98,568.92 487.89,571.44 487.60,571.73 C487.03,572.30 469.19,570.23 467.93,569.46 C467.52,569.20 465.79,566.52 464.09,563.50 C459.85,555.99 458.49,556.34 457.17,565.25 C455.07,579.43 454.70,585.69 455.90,586.44 C456.55,586.84 459.17,585.37 461.91,583.07 L 466.78 579.00 L 478.62 583.08 C495.05,588.75 496.72,589.53 497.47,591.91 C498.60,595.46 501.25,596.15 505.35,593.95 L 509.00 592.00 L 509.00 602.52 L 509.00 613.05 L 512.00 613.65 L 515.00 614.25 L 515.00 634.61 L 515.00 654.97 L 509.75 657.59 C503.00,660.97 500.00,663.76 500.00,666.67 C500.00,668.70 499.51,669.00 496.25,669.00 C493.16,669.00 492.01,668.38 489.71,665.50 C486.87,661.94 481.73,658.82 476.75,657.62 C474.40,657.06 474.00,656.45 474.00,653.48 C474.00,650.83 474.42,650.00 475.75,649.99 C485.63,649.96 495.00,640.97 495.00,631.53 C495.00,628.01 494.99,628.00 490.46,628.00 C485.40,628.00 478.67,630.96 476.75,634.02 C476.07,635.11 475.24,636.00 474.89,636.00 C474.55,636.00 474.05,631.55 473.79,626.11 C473.44,618.74 472.82,615.37 471.35,612.87 C468.51,607.99 463.56,605.00 458.35,605.00 C454.04,605.00 454.00,605.03 454.00,608.54 C454.00,616.01 460.09,623.07 467.86,624.62 C470.86,625.22 471.00,625.46 471.00,630.12 C471.00,635.49 470.27,636.06 467.41,632.90 C464.31,629.47 460.44,628.00 454.55,628.00 C448.37,628.00 448.14,628.36 450.04,635.22 C452.01,642.29 458.81,647.94 467.30,649.53 C470.71,650.17 471.00,650.49 471.00,653.64 C471.00,656.02 470.47,657.23 469.25,657.62 C463.29,659.50 459.38,661.90 455.99,665.75 C452.33,669.91 451.91,670.10 447.32,669.81 C442.88,669.52 442.53,669.31 442.84,667.12 C443.02,665.81 442.42,662.76 441.49,660.35 C439.80,655.92 436.12,653.00 432.22,653.00 C431.19,653.00 429.26,651.83 427.92,650.40 C424.29,646.51 420.66,645.00 414.95,645.00 C408.35,645.00 403.40,647.38 400.11,652.14 C397.78,655.52 397.04,655.93 393.15,655.96 C385.41,656.03 378.02,661.54 378.00,667.25 C378.00,668.62 377.14,669.00 374.00,669.00 C370.70,669.00 370.00,668.66 370.00,667.06 C370.00,664.21 366.20,660.27 360.50,657.19 L 355.50 654.50 L 354.97 625.00 C354.52,600.30 354.15,594.78 352.71,591.09 C351.76,588.67 351.21,586.45 351.50,586.16 C352.19,585.47 375.00,601.07 375.00,602.24 C375.00,602.73 373.65,605.10 372.00,607.50 C370.35,609.90 369.00,612.68 369.00,613.68 C369.00,616.03 390.80,629.50 396.76,630.84 C399.37,631.42 402.56,631.44 405.08,630.87 C410.69,629.61 418.71,625.40 419.96,623.07 C420.53,622.00 420.99,618.06 420.98,614.32 C420.95,606.53 418.84,600.96 414.38,596.87 C409.29,592.22 392.28,581.00 390.32,581.00 C389.10,581.00 387.38,582.78 385.50,586.00 C383.89,588.75 382.11,590.99 381.54,590.97 C380.97,590.95 376.67,588.32 372.00,585.11 C364.43,579.92 363.47,578.91 363.21,575.89 C363.04,574.03 362.21,570.33 361.35,567.68 C360.49,565.03 360.01,561.71 360.28,560.31 C360.55,558.91 359.92,551.63 358.87,544.13 C357.36,533.23 357.03,525.69 357.24,506.50 C357.54,479.02 357.54,479.04 348.81,470.87 L 343.86 466.25 L 347.21 465.62 C354.73,464.21 361.12,455.40 364.57,441.68 C365.49,438.00 366.68,435.00 367.22,435.00 C369.78,435.00 375.24,431.43 376.54,428.91 C378.47,425.19 378.39,420.00 376.36,417.10 C374.86,414.96 374.18,414.80 368.76,415.29 C363.61,415.75 361.99,415.44 356.66,412.91 C349.71,409.63 341.31,409.01 335.67,411.36 C331.41,413.14 327.36,418.04 325.81,423.30 C324.48,427.75 324.28,441.15 325.44,447.00 C325.90,449.29 325.62,451.71 324.65,454.00 L 323.17 457.50 L 312.83 457.53 C303.13,457.56 301.68,457.84 289.00,462.27 C270.46,468.74 265.08,471.61 262.25,476.52 C260.06,480.33 259.98,481.20 260.41,497.00 C260.66,506.08 260.88,514.17 260.90,515.00 C260.91,515.83 260.68,519.50 260.38,523.16 C260.05,527.22 260.27,530.64 260.95,531.91 C263.20,536.11 274.72,539.88 276.50,537.00 C278.05,534.50 278.82,536.54 278.69,542.75 C278.60,546.46 278.92,561.42 279.39,576.00 L 280.25 602.50 L 275.23 625.00 C270.12,647.94 268.64,662.60 271.01,667.02 C271.89,668.67 271.43,668.93 266.50,669.54 C261.27,670.20 260.17,670.83 261.67,672.33 C262.03,672.70 375.84,673.00 514.56,673.00 C730.02,673.00 766.86,672.80 767.32,671.60 ZM 485.78 477.44 C487.00,476.59 488.00,474.91 488.00,473.73 C488.00,470.22 484.85,463.00 483.32,463.00 C481.82,463.00 478.06,470.28 478.02,473.25 C478.00,475.00 481.31,479.00 482.78,479.00 C483.21,479.00 484.56,478.30 485.78,477.44 ZM 472.79 458.71 C477.41,454.00 477.85,453.00 475.29,453.00 C473.28,453.00 466.00,459.82 466.00,461.70 C466.00,464.14 468.58,463.00 472.79,458.71 ZM 472.83 439.49 C473.20,436.41 470.35,428.00 468.93,428.00 C467.31,428.00 462.81,438.12 463.40,440.46 C464.76,445.88 472.16,445.12 472.83,439.49 ZM 364.48 393.03 C367.40,387.28 367.61,385.73 365.44,386.18 C364.58,386.35 362.69,388.67 361.23,391.31 C359.00,395.38 358.82,396.27 360.05,397.05 C360.85,397.56 361.60,397.98 361.73,397.98 C361.86,397.99 363.10,395.76 364.48,393.03 ZM 334.00 395.46 C334.00,392.80 330.03,386.00 328.48,386.00 C326.48,386.00 326.61,387.14 329.20,392.47 C331.35,396.89 334.00,398.54 334.00,395.46 ZM 348.50 385.99 C348.50,379.11 348.22,377.50 347.00,377.50 C345.80,377.50 345.44,379.28 345.21,386.33 C344.95,394.36 345.08,395.13 346.71,394.82 C348.26,394.52 348.50,393.35 348.50,385.99 ZM 674.00 392.46 C674.00,389.85 670.04,383.00 668.54,383.00 C665.97,383.00 666.10,384.52 669.07,389.29 C672.03,394.04 674.00,395.31 674.00,392.46 ZM 704.48 389.03 C707.48,383.11 707.50,383.00 705.20,383.00 C703.25,383.00 698.52,391.41 699.54,393.07 C700.71,394.96 702.03,393.88 704.48,389.03 ZM 688.25 383.78 C688.82,375.81 688.47,374.00 686.39,374.00 C685.31,374.00 685.00,375.90 685.00,382.50 C685.00,389.02 685.32,391.00 686.37,391.00 C687.35,391.00 687.88,388.96 688.25,383.78 ZM 318.44 669.27 L 310.37 668.93 L 309.10 665.40 C308.20,662.92 306.37,660.98 302.91,658.85 C300.21,657.19 298.00,655.64 298.00,655.40 C298.00,655.16 300.99,644.74 304.64,632.24 C310.61,611.78 311.38,608.12 312.30,595.75 C312.87,588.19 313.59,582.00 313.92,582.00 C314.24,582.00 316.82,587.52 319.65,594.25 L 324.81 606.50 L 325.73 629.69 C326.27,643.36 327.09,653.41 327.73,654.19 C328.32,654.91 328.96,658.64 329.15,662.49 C329.43,668.16 329.22,669.48 328.00,669.54 C327.17,669.58 322.87,669.46 318.44,669.27 ZM 577.48 667.25 C578.79,658.83 578.93,645.62 577.90,627.89 C577.26,616.92 577.00,607.67 577.32,607.35 C577.90,606.76 602.03,628.90 601.96,629.95 C601.94,630.25 600.21,631.69 598.11,633.14 C588.17,640.00 587.23,657.50 596.34,665.90 C597.77,667.21 598.70,668.68 598.41,669.15 C598.12,669.62 593.19,670.00 587.47,670.00 L 577.05 670.00 L 577.48 667.25 ZM 624.00 669.29 C624.00,668.77 625.18,667.26 626.63,665.92 C633.19,659.89 634.84,648.97 630.50,640.42 C629.13,637.71 628.01,635.36 628.00,635.20 C627.99,634.48 635.15,632.00 637.23,632.00 C638.83,632.00 642.89,635.37 650.52,643.05 C663.79,656.40 666.79,658.51 670.29,656.91 C674.31,655.08 675.00,652.01 675.00,636.00 C675.00,621.36 675.05,621.05 677.55,618.55 C678.95,617.15 680.35,616.00 680.67,616.00 C680.99,616.00 681.02,624.82 680.75,635.61 L 680.25 655.21 L 675.87 657.17 C669.89,659.85 667.00,662.78 667.00,666.17 L 667.00 669.00 L 647.75 669.01 C637.16,669.02 627.49,669.30 626.25,669.63 C625.01,669.96 624.00,669.81 624.00,669.29 ZM 706.46 668.41 C706.90,667.36 707.48,664.03 707.75,661.00 C708.02,657.97 708.59,655.05 709.01,654.50 C709.43,653.95 710.32,644.05 710.98,632.50 C712.24,610.70 713.31,603.35 717.05,590.88 C719.70,582.05 720.17,582.66 722.48,597.99 C723.35,603.77 727.01,618.84 730.60,631.49 L 737.14 654.50 L 735.00 656.00 C728.36,660.65 726.00,663.30 726.00,666.10 C726.00,668.94 725.89,669.00 720.64,669.00 C717.69,669.00 713.12,669.30 710.47,669.66 C706.01,670.27 705.72,670.18 706.46,668.41 ZM 543.34 667.45 C542.53,665.33 543.72,664.17 549.88,661.06 C553.04,659.47 556.21,657.45 556.93,656.58 C557.93,655.38 560.16,655.00 566.12,655.00 L 574.00 655.00 L 574.00 660.98 C574.00,668.12 575.01,667.69 556.68,668.34 C546.52,668.70 543.75,668.51 543.34,667.45 ZM 504.18 666.25 C504.36,665.29 507.05,663.15 510.15,661.50 C513.25,659.85 516.66,657.71 517.72,656.75 C519.21,655.40 521.43,655.00 527.33,655.00 L 535.00 655.00 L 535.00 659.93 C535.00,667.65 534.26,668.00 517.86,668.00 C505.06,668.00 503.88,667.85 504.18,666.25 ZM 538.15 659.91 C538.02,657.66 538.48,655.13 539.18,654.29 C540.26,652.98 542.68,629.13 542.93,617.25 C542.98,614.73 543.43,614.00 544.93,614.00 C547.33,614.00 547.32,613.95 550.46,634.00 C551.87,643.08 553.26,651.51 553.53,652.74 C553.97,654.69 553.15,655.40 547.45,658.10 C543.82,659.81 540.61,661.84 540.32,662.61 C539.33,665.19 538.39,664.03 538.15,659.91 ZM 655.01 642.02 C646.46,633.88 642.99,629.96 644.01,629.62 C648.66,628.05 670.13,622.00 671.06,622.00 C671.85,622.00 671.97,626.21 671.46,636.75 C670.82,650.03 670.04,654.09 668.13,653.95 C667.78,653.93 661.88,648.56 655.01,642.02 ZM 518.67 650.33 C518.30,649.97 518.00,641.64 518.00,631.83 L 518.00 614.00 L 529.09 614.00 L 540.18 614.00 L 539.62 617.75 C539.32,619.81 538.81,625.55 538.50,630.50 C538.19,635.45 537.68,642.09 537.37,645.25 L 536.80 651.00 L 528.07 651.00 C523.26,651.00 519.03,650.70 518.67,650.33 ZM 556.51 648.75 C555.55,644.62 550.93,614.73 551.22,614.47 C551.37,614.34 555.33,613.83 560.00,613.36 L 568.50 612.50 L 569.00 605.63 C569.47,599.15 569.59,598.87 571.15,600.63 C572.42,602.08 573.04,606.25 573.90,619.03 C574.50,628.12 575.00,639.03 575.00,643.28 L 575.00 651.00 L 566.02 651.00 C557.53,651.00 557.01,650.88 556.51,648.75 ZM 568.58 592.82 C568.35,592.10 567.89,579.46 567.55,564.75 C566.94,538.51 566.97,538.00 568.92,538.00 C570.35,538.00 571.23,539.06 572.05,541.75 C573.59,546.83 574.30,570.12 573.31,582.99 C572.63,591.81 572.22,593.53 570.75,593.81 C569.78,594.00 568.81,593.55 568.58,592.82 ZM 674.10 576.49 C670.36,571.29 670.60,568.77 675.05,566.47 C677.77,565.07 678.11,565.11 680.10,567.10 C681.74,568.74 683.00,569.10 685.66,568.67 C688.56,568.20 689.02,568.37 688.60,569.80 C688.32,570.74 687.81,572.85 687.45,574.50 C686.06,581.03 686.09,581.00 681.60,581.00 C677.69,581.00 677.07,580.62 674.10,576.49 ZM 356.03 576.87 C356.00,573.56 355.53,572.96 350.50,569.91 C346.57,567.53 345.00,565.96 345.00,564.43 C345.00,562.58 345.74,562.19 350.19,561.66 C353.05,561.33 355.53,561.19 355.71,561.37 C356.29,561.96 359.00,573.05 359.00,574.86 C359.00,575.83 358.34,577.49 357.53,578.56 C356.15,580.38 356.06,580.28 356.03,576.87 ZM 687.00 562.05 C687.00,560.17 687.61,558.70 688.54,558.35 C690.79,557.48 691.33,558.50 690.29,561.62 C688.97,565.58 687.00,565.84 687.00,562.05 ZM 680.50 559.75 C680.16,557.94 680.52,554.73 681.30,552.50 C682.63,548.68 682.91,548.49 687.35,548.20 C691.39,547.93 692.00,548.14 692.00,549.83 C692.00,551.85 688.12,555.00 685.64,555.00 C684.00,555.00 683.00,557.11 683.00,560.58 C683.00,564.13 681.19,563.53 680.50,559.75 ZM 742.26 558.75 C741.72,558.06 741.01,555.74 740.67,553.58 C740.34,551.43 739.55,549.34 738.91,548.94 C738.08,548.43 738.42,547.02 740.11,544.01 C742.45,539.85 742.54,539.80 746.88,540.40 C749.30,540.73 752.12,541.00 753.14,541.00 C754.78,541.00 755.00,541.84 755.00,548.05 C755.00,554.19 754.69,555.40 752.55,557.55 C749.85,560.24 743.98,560.93 742.26,558.75 ZM 491.00 550.15 C491.00,547.98 493.17,545.91 498.00,543.48 C499.92,542.51 503.59,539.99 506.14,537.86 C511.48,533.41 513.00,533.07 513.00,536.31 C513.00,539.62 511.55,540.99 501.88,546.81 C492.46,552.48 491.00,552.93 491.00,550.15 ZM 478.32 547.74 C477.12,547.20 475.61,545.47 474.95,543.88 C473.97,541.52 474.04,540.58 475.33,538.62 C477.38,535.50 483.65,531.65 485.52,532.37 C486.73,532.83 486.55,533.74 484.49,537.61 C483.12,540.19 481.99,543.24 481.98,544.40 C481.96,547.79 480.79,548.86 478.32,547.74 ZM 532.23 547.77 C530.98,547.17 529.69,545.62 529.37,544.34 C528.29,540.04 529.81,537.41 535.51,533.71 L 541.06 530.11 L 544.53 533.16 C546.44,534.84 548.00,536.84 548.00,537.61 C548.00,539.80 538.59,549.01 536.43,548.93 C535.37,548.90 533.48,548.37 532.23,547.77 ZM 681.66 543.33 C681.29,542.96 681.26,537.22 681.59,530.58 C682.09,520.76 681.81,516.28 680.10,506.62 C678.22,495.99 677.22,480.89 678.49,482.15 C678.75,482.42 679.88,487.93 680.98,494.40 C682.09,500.87 684.79,514.13 687.00,523.86 C689.20,533.60 691.00,542.12 691.00,542.78 C691.00,544.08 682.88,544.55 681.66,543.33 ZM 748.83 537.10 C745.71,536.76 742.81,536.14 742.39,535.72 C741.56,534.89 741.72,517.04 742.61,510.47 C743.12,506.73 742.63,505.64 735.91,495.72 C729.20,485.79 726.95,483.65 725.59,485.86 C725.29,486.33 728.19,491.14 732.03,496.54 C738.93,506.25 740.99,512.00 737.58,512.00 C735.59,512.00 730.28,506.47 728.10,502.13 C723.79,493.54 718.02,471.52 718.01,463.62 L 718.00 458.74 L 722.09 459.40 C731.07,460.83 737.13,466.03 748.92,482.41 C757.94,494.96 759.00,497.56 758.99,507.21 C758.98,520.27 756.78,538.16 755.23,537.85 C754.83,537.77 751.95,537.43 748.83,537.10 ZM 268.22 533.24 C266.37,532.32 264.68,530.57 264.34,529.22 C263.63,526.39 264.61,516.96 265.72,515.94 C266.15,515.55 269.04,515.45 272.14,515.73 C277.66,516.22 277.82,516.32 279.38,520.30 C280.80,523.90 280.81,524.55 279.49,526.01 C278.67,526.92 278.00,528.12 278.00,528.69 C278.00,530.31 273.99,535.01 272.68,534.94 C272.03,534.90 270.02,534.14 268.22,533.24 ZM 547.05 530.55 C542.04,525.45 541.60,526.95 551.75,514.53 C555.19,510.32 558.00,506.17 558.00,505.31 C558.00,502.78 547.78,485.00 546.32,485.00 C544.19,485.00 544.72,486.70 549.74,496.04 C554.65,505.16 554.89,508.11 550.40,503.92 C544.56,498.47 541.04,486.77 541.01,472.75 L 541.00 464.00 L 544.03 464.00 C552.65,464.00 559.38,470.94 568.57,489.29 C575.69,503.52 576.37,507.24 572.86,513.00 C570.00,517.70 554.06,535.00 552.59,535.00 C551.94,535.00 549.45,533.00 547.05,530.55 ZM 566.40 532.60 C565.36,529.90 566.56,528.31 567.84,530.69 C568.61,532.13 568.66,533.09 568.00,533.50 C567.44,533.85 566.72,533.44 566.40,532.60 ZM 488.04 529.54 C487.25,528.59 488.84,526.75 494.49,522.07 L 502.00 515.86 L 502.04 508.18 L 502.08 500.50 L 504.29 504.62 C505.51,506.89 507.96,510.92 509.75,513.57 C511.54,516.22 513.00,519.59 513.00,521.06 C513.00,523.60 512.71,523.75 506.83,524.28 C502.81,524.65 498.65,525.88 494.87,527.83 C490.32,530.18 488.86,530.54 488.04,529.54 ZM 282.76 519.32 C282.52,518.87 282.52,512.62 282.77,505.43 L 283.23 492.35 L 287.63 491.18 C290.05,490.53 292.44,490.00 292.94,490.00 C293.73,490.00 284.77,518.56 283.62,519.71 C283.39,519.94 283.00,519.77 282.76,519.32 ZM 692.63 493.21 C691.88,492.00 689.01,474.89 689.00,471.63 C689.00,469.05 689.27,468.82 691.75,469.29 C695.27,469.97 700.01,467.98 703.27,464.46 L 705.83 461.70 L 706.48 466.60 C707.33,472.98 709.69,485.05 710.50,487.15 C711.33,489.30 710.28,489.87 701.28,492.12 C692.52,494.31 693.25,494.21 692.63,493.21 ZM 514.00 479.95 L 514.00 471.91 L 517.38 472.54 C521.28,473.27 526.34,471.10 528.01,467.99 C529.97,464.32 530.50,465.96 530.50,475.74 L 530.50 485.47 L 524.00 486.69 C513.34,488.69 514.00,489.13 514.00,479.95 ZM 333.42 469.03 C331.25,468.15 326.00,462.47 326.00,461.01 C326.00,459.29 327.24,457.00 328.17,457.00 C328.70,457.00 330.22,458.29 331.54,459.87 C332.87,461.45 335.32,463.30 336.98,463.99 C340.49,465.45 340.67,466.09 338.17,468.35 C336.12,470.20 336.26,470.18 333.42,469.03 ZM 517.05 467.56 C516.08,466.39 516.42,465.84 518.87,464.57 C520.53,463.71 522.68,461.66 523.66,460.01 C525.66,456.62 526.51,456.29 527.39,458.58 C528.38,461.14 528.16,461.75 524.90,465.47 C521.60,469.22 519.00,469.91 517.05,467.56 ZM 691.62 464.13 C690.02,462.36 690.09,462.21 693.03,460.99 C694.73,460.28 697.29,458.17 698.72,456.30 C700.64,453.79 701.53,453.24 702.14,454.20 C703.73,456.71 702.97,459.23 699.60,462.60 C695.73,466.47 694.03,466.79 691.62,464.13 ZM 338.97 460.75 C333.59,458.03 330.01,453.00 329.97,448.10 C329.95,446.12 329.28,443.63 328.47,442.56 C326.50,439.95 326.62,437.66 328.83,435.65 C330.76,433.90 335.00,433.38 335.00,434.89 C335.00,435.38 335.76,436.08 336.69,436.43 C337.88,436.89 339.44,435.84 342.02,432.85 L 345.67 428.61 L 353.45 431.55 C357.73,433.17 361.47,435.10 361.75,435.82 C362.52,437.78 359.11,448.22 355.84,453.96 C353.90,457.35 351.69,459.63 349.03,460.99 C344.15,463.48 344.38,463.48 338.97,460.75 ZM 503.57 459.80 C497.00,454.38 490.31,437.60 493.19,433.76 C494.42,432.14 494.83,432.19 499.72,434.63 C506.39,437.95 516.89,439.04 518.90,436.62 C520.62,434.55 524.60,434.52 525.39,436.58 C526.33,439.02 526.11,442.81 525.00,443.50 C524.45,443.84 524.00,445.68 524.00,447.60 C524.00,449.51 523.11,452.82 522.03,454.95 C517.64,463.55 510.42,465.45 503.57,459.80 ZM 681.18 457.37 C679.35,456.44 676.78,454.27 675.47,452.55 C672.13,448.18 667.80,438.41 667.64,434.89 C667.51,432.20 668.03,431.72 673.50,429.36 C682.89,425.33 684.52,425.27 687.89,428.89 C690.83,432.03 693.36,432.84 694.50,431.00 C695.35,429.62 699.34,429.74 700.80,431.20 C702.46,432.86 702.30,436.12 700.44,438.78 C699.59,440.00 699.16,441.44 699.49,441.98 C700.64,443.85 697.86,451.19 694.69,454.62 C690.79,458.84 686.00,459.81 681.18,457.37 ZM 467.41 439.62 C466.56,437.42 467.69,436.29 469.22,437.82 C470.12,438.72 470.12,439.28 469.23,440.17 C468.34,441.06 467.91,440.93 467.41,439.62 Z" fill="rgba(248,246,239,1)"/>
</g>
</svg>